STARTFONT 2.1
COMMENT
COMMENT Converted from OpenType font "UbuntuMono-Italic.ttf" by "otf2bdf 3.0".
COMMENT
FONT -FreeType-Ubuntu Mono-Medium-I-Normal--39-280-100-100-P-181-ISO10646-1
SIZE 28 100 100
FONTBOUNDINGBOX 34 39 -8 -7
STARTPROPERTIES 19
FOUNDRY "FreeType"
FAMILY_NAME "Ubuntu Mono"
WEIGHT_NAME "Medium"
SLANT "I"
SETWIDTH_NAME "Normal"
ADD_STYLE_NAME ""
PIXEL_SIZE 39
POINT_SIZE 280
RESOLUTION_X 100
RESOLUTION_Y 100
SPACING "P"
AVERAGE_WIDTH 181
CHARSET_REGISTRY "ISO10646"
CHARSET_ENCODING "1"
FONT_ASCENT 32
FONT_DESCENT 6
COPYRIGHT "Copyright 2011 Canonical Ltd.  Licensed under the Ubuntu Font Licence 1.0"
_OTF_FONTFILE "UbuntuMono-Italic.ttf"
_OTF_PSNAME "UbuntuMono-Italic"
ENDPROPERTIES
CHARS 1224
STARTCHAR 0000
ENCODING 0
SWIDTH 488 0
DWIDTH 19 0
BBX 0 0 0 0
BITMAP
ENDCHAR
STARTCHAR 0008
ENCODING 8
SWIDTH 488 0
DWIDTH 19 0
BBX 0 0 0 0
BITMAP
ENDCHAR
STARTCHAR 0009
ENCODING 9
SWIDTH 488 0
DWIDTH 19 0
BBX 0 0 0 0
BITMAP
ENDCHAR
STARTCHAR 000D
ENCODING 13
SWIDTH 488 0
DWIDTH 19 0
BBX 0 0 0 0
BITMAP
ENDCHAR
STARTCHAR 001D
ENCODING 29
SWIDTH 488 0
DWIDTH 19 0
BBX 0 0 0 0
BITMAP
ENDCHAR
STARTCHAR 0020
ENCODING 32
SWIDTH 488 0
DWIDTH 19 0
BBX 0 0 0 0
BITMAP
ENDCHAR
STARTCHAR 0021
ENCODING 33
SWIDTH 488 0
DWIDTH 19 0
BBX 9 24 7 0
BITMAP
0780
0780
0700
0700
0700
0F00
0F00
0E00
0E00
1E00
1C00
1C00
1C00
1800
1800
1800
0000
0000
0000
7000
F800
F800
F800
F000
ENDCHAR
STARTCHAR 0022
ENCODING 34
SWIDTH 488 0
DWIDTH 19 0
BBX 10 9 9 17
BITMAP
71C0
71C0
71C0
E1C0
E180
E380
C380
C300
C300
ENDCHAR
STARTCHAR 0023
ENCODING 35
SWIDTH 488 0
DWIDTH 19 0
BBX 20 24 2 0
BITMAP
003870
0070E0
0070E0
00E0E0
00E1C0
00E1C0
3FFFF0
3FFFF0
3FFFE0
038700
070700
070E00
0E0E00
0E1C00
0E1C00
FFFFC0
FFFF80
FFFF80
387000
707000
70E000
70E000
E1C000
E1C000
ENDCHAR
STARTCHAR 0024
ENCODING 36
SWIDTH 488 0
DWIDTH 19 0
BBX 18 31 3 -4
BITMAP
001C00
001C00
001C00
001800
00FF00
03FFC0
07FF80
0F0080
0E0000
0E0000
0E0000
0E0000
0F0000
07C000
03F000
01F800
007C00
001E00
000E00
000E00
000E00
000E00
401E00
F9FC00
FFF800
7FE000
070000
070000
060000
0E0000
0E0000
ENDCHAR
STARTCHAR 0025
ENCODING 37
SWIDTH 488 0
DWIDTH 19 0
BBX 22 26 1 -1
BITMAP
008000
07E01C
07E038
0C7070
1C7060
1C70E0
1871C0
186380
186700
18EE00
1FCC00
0F9C00
003800
007100
00E7C0
01CFE0
039CE0
0318E0
0738E0
0E38E0
1C30C0
3830C0
7039C0
E03F80
C01F00
000400
ENDCHAR
STARTCHAR 0026
ENCODING 38
SWIDTH 488 0
DWIDTH 19 0
BBX 17 25 2 0
BITMAP
003800
00FE00
01FF00
038700
070700
070700
070700
070E00
071E00
073C00
077800
03E000
07C380
0FC380
1DE300
38E700
707700
707E00
F03E00
F03C00
F03C00
F07E00
79FE00
7FEE00
3F8F00
ENDCHAR
STARTCHAR 0027
ENCODING 39
SWIDTH 488 0
DWIDTH 19 0
BBX 5 10 12 16
BITMAP
78
70
70
70
F0
E0
E0
E0
C0
C0
ENDCHAR
STARTCHAR 0028
ENCODING 40
SWIDTH 488 0
DWIDTH 19 0
BBX 14 33 6 -7
BITMAP
0008
003C
007C
00F0
01E0
03C0
0780
0F00
0E00
1E00
3C00
3800
7800
7000
7000
F000
E000
E000
E000
E000
E000
E000
E000
E000
E000
F000
7000
7000
7800
3C00
1C00
1E00
0C00
ENDCHAR
STARTCHAR 0029
ENCODING 41
SWIDTH 488 0
DWIDTH 19 0
BBX 15 33 2 -7
BITMAP
0040
00E0
00F0
0070
0038
0038
001C
001C
001C
001E
000E
000E
000E
000E
000E
000E
001C
001C
001C
003C
0038
0078
0070
00F0
01E0
01C0
0380
0780
0F00
3E00
7C00
F000
6000
ENDCHAR
STARTCHAR 002A
ENCODING 42
SWIDTH 488 0
DWIDTH 19 0
BBX 15 14 5 10
BITMAP
03C0
03C0
0380
4180
718E
7DBE
FFFE
0FF0
03C0
07E0
0E70
1E78
3C38
0830
ENDCHAR
STARTCHAR 002B
ENCODING 43
SWIDTH 488 0
DWIDTH 19 0
BBX 17 17 3 2
BITMAP
007000
007000
007000
00E000
00E000
00E000
00E000
7FFF80
7FFF00
FFFF00
01C000
038000
038000
038000
038000
070000
070000
ENDCHAR
STARTCHAR 002C
ENCODING 44
SWIDTH 488 0
DWIDTH 19 0
BBX 9 11 4 -6
BITMAP
0F00
1F00
1F80
1F80
1F00
0700
0E00
3E00
FC00
F000
8000
ENDCHAR
STARTCHAR 002D
ENCODING 45
SWIDTH 488 0
DWIDTH 19 0
BBX 9 3 7 8
BITMAP
FF80
FF80
FF00
ENDCHAR
STARTCHAR 002E
ENCODING 46
SWIDTH 488 0
DWIDTH 19 0
BBX 5 5 7 0
BITMAP
78
F8
F8
F8
F8
ENDCHAR
STARTCHAR 002F
ENCODING 47
SWIDTH 488 0
DWIDTH 19 0
BBX 21 33 0 -6
BITMAP
000038
000078
000070
0000E0
0000E0
0001C0
0003C0
000380
000780
000700
000F00
000E00
001C00
001C00
003800
007800
007000
00F000
00E000
01C000
01C000
038000
078000
070000
0F0000
0E0000
1E0000
1C0000
380000
380000
700000
F00000
E00000
ENDCHAR
STARTCHAR 0030
ENCODING 48
SWIDTH 488 0
DWIDTH 19 0
BBX 17 26 3 -1
BITMAP
001000
00FE00
03FF00
07C780
0F0380
0E0380
1E0380
1C0380
3C0380
380380
38E380
79E380
71E380
71E780
71C700
F00700
F00F00
F00E00
F01E00
F01C00
F03C00
707800
7DF000
3FE000
3FC000
060000
ENDCHAR
STARTCHAR 0031
ENCODING 49
SWIDTH 488 0
DWIDTH 19 0
BBX 14 24 4 0
BITMAP
001C
0038
00F8
03F8
0FF8
1F70
1C70
0070
00F0
00E0
00E0
00E0
00E0
01E0
01C0
01C0
01C0
03C0
0380
0380
0380
FFF8
FFF8
FFF8
ENDCHAR
STARTCHAR 0032
ENCODING 50
SWIDTH 488 0
DWIDTH 19 0
BBX 17 25 3 0
BITMAP
003000
03FE00
07FF00
0F8F80
060380
000380
000380
000380
000380
000780
000F00
001E00
003C00
007800
01F000
03E000
078000
0F0000
1E0000
3C0000
780000
700000
FFFC00
FFFC00
FFFC00
ENDCHAR
STARTCHAR 0033
ENCODING 51
SWIDTH 488 0
DWIDTH 19 0
BBX 17 26 3 -1
BITMAP
007000
03FE00
07FF00
070F80
000780
000380
000380
000780
000700
000F00
003E00
03F800
03F800
01FC00
001E00
000E00
000E00
000E00
000E00
000E00
001E00
803C00
F1FC00
FFF800
FFE000
040000
ENDCHAR
STARTCHAR 0034
ENCODING 52
SWIDTH 488 0
DWIDTH 19 0
BBX 18 24 2 0
BITMAP
0003C0
0007C0
000F80
001F80
007B80
007780
00E700
01C700
038700
070F00
0E0E00
1E0E00
1C0E00
380E00
701C00
FFFF80
FFFF80
FFFF00
003800
003800
003800
003800
007000
007000
ENDCHAR
STARTCHAR 0035
ENCODING 53
SWIDTH 488 0
DWIDTH 19 0
BBX 19 25 2 -1
BITMAP
00FFE0
00FFE0
01FFE0
01C000
01C000
01C000
038000
038000
030000
07C000
07F800
0FFC00
003E00
000F00
000700
000700
000700
000700
000F00
000F00
001E00
79FC00
FFF800
7FF000
060000
ENDCHAR
STARTCHAR 0036
ENCODING 54
SWIDTH 488 0
DWIDTH 19 0
BBX 17 25 4 -1
BITMAP
000F80
007F80
00FF80
03F000
07C000
0F0000
1E0000
1C0000
380000
79E000
7FF800
7FFC00
F81E00
E00E00
E00E00
E00E00
E00E00
E00E00
E01E00
E01C00
F03C00
78F800
7FF000
3FE000
060000
ENDCHAR
STARTCHAR 0037
ENCODING 55
SWIDTH 488 0
DWIDTH 19 0
BBX 17 24 6 0
BITMAP
3FFF80
7FFF80
7FFF00
000E00
001C00
003C00
007800
00F000
00E000
01C000
03C000
078000
070000
0F0000
0E0000
1C0000
1C0000
380000
780000
700000
700000
F00000
E00000
E00000
ENDCHAR
STARTCHAR 0038
ENCODING 56
SWIDTH 488 0
DWIDTH 19 0
BBX 18 26 3 -1
BITMAP
003800
01FF00
03FF80
078780
0F03C0
0E01C0
0E01C0
0E03C0
0E0380
0E0780
0F0F00
07DE00
07F800
0FFC00
1E3E00
381E00
700F00
F00F00
E00F00
E00E00
E00E00
F01E00
787C00
7FF800
3FE000
020000
ENDCHAR
STARTCHAR 0039
ENCODING 57
SWIDTH 488 0
DWIDTH 19 0
BBX 18 25 3 0
BITMAP
003800
01FE00
07FF00
0F8780
0E0380
1E03C0
1C01C0
1C01C0
3C01C0
3803C0
3C03C0
3C0380
1E0F80
1FFF80
0FFF80
008700
000F00
001E00
001C00
003C00
00F800
03F000
FFC000
FF0000
F80000
ENDCHAR
STARTCHAR 003A
ENCODING 58
SWIDTH 488 0
DWIDTH 19 0
BBX 8 18 7 0
BITMAP
0E
1F
1F
1F
1F
0E
00
00
00
00
00
00
00
78
F8
F8
F8
F8
ENDCHAR
STARTCHAR 003B
ENCODING 59
SWIDTH 488 0
DWIDTH 19 0
BBX 11 24 4 -6
BITMAP
01C0
03E0
03E0
03E0
03E0
01C0
0000
0000
0000
0000
0000
0000
0000
0F00
1F00
1F80
1F80
1F00
0700
0E00
3E00
FC00
F000
8000
ENDCHAR
STARTCHAR 003C
ENCODING 60
SWIDTH 488 0
DWIDTH 19 0
BBX 17 15 3 3
BITMAP
000380
001F80
007F00
03FC00
0FE000
7F8000
FC0000
F00000
FE0000
3F8000
0FE000
03F800
00FE00
003C00
000800
ENDCHAR
STARTCHAR 003D
ENCODING 61
SWIDTH 488 0
DWIDTH 19 0
BBX 17 10 3 5
BITMAP
3FFF80
7FFF80
000000
000000
000000
000000
000000
FFFF00
FFFE00
FFFE00
ENDCHAR
STARTCHAR 003E
ENCODING 62
SWIDTH 488 0
DWIDTH 19 0
BBX 17 16 2 2
BITMAP
080000
0E0000
1F8000
0FE000
03F800
00FE00
001F80
000780
000F80
007F80
01FC00
0FF000
3F8000
FE0000
F00000
800000
ENDCHAR
STARTCHAR 003F
ENCODING 63
SWIDTH 488 0
DWIDTH 19 0
BBX 14 25 6 0
BITMAP
0180
1FF8
1FF8
183C
001C
001C
001C
003C
0038
0070
01E0
03C0
0780
0F00
1E00
1C00
1C00
0000
0000
0000
3000
7800
F800
F800
7800
ENDCHAR
STARTCHAR 0040
ENCODING 64
SWIDTH 488 0
DWIDTH 19 0
BBX 19 30 3 -5
BITMAP
001C00
00FF80
01FFC0
03C3C0
0781E0
0F00E0
1E00E0
1C00E0
380FE0
387FC0
70FFC0
71E1C0
71C1C0
E38380
E38380
E38380
E38380
E38700
E38700
E38700
E3C700
E1FE00
E0FE00
E00000
F00000
700000
780000
3F7000
1FE000
07E000
ENDCHAR
STARTCHAR 0041
ENCODING 65
SWIDTH 488 0
DWIDTH 19 0
BBX 18 24 0 0
BITMAP
000F80
000F80
001F80
001B80
003B80
007380
007380
00E380
00E380
01C1C0
0181C0
0381C0
0701C0
0701C0
0E01C0
0FFFC0
1FFFC0
1FFFC0
3801C0
3801C0
7001C0
7001C0
E001C0
E001C0
ENDCHAR
STARTCHAR 0042
ENCODING 66
SWIDTH 488 0
DWIDTH 19 0
BBX 18 24 2 0
BITMAP
07FF00
07FF80
070FC0
0703C0
0E01C0
0E01C0
0E01C0
0E01C0
1E0380
1C0F00
1FFE00
1FFC00
3FFF00
380F00
380780
380380
780380
700380
700780
700F00
F01E00
FFFE00
FFF800
FFE000
ENDCHAR
STARTCHAR 0043
ENCODING 67
SWIDTH 488 0
DWIDTH 19 0
BBX 19 26 3 -1
BITMAP
000600
007FC0
01FFE0
03E1E0
078040
0F0000
1E0000
1C0000
3C0000
380000
380000
700000
700000
700000
700000
700000
F00000
F00000
700000
700000
780000
780000
3F3C00
1FFC00
0FF800
010000
ENDCHAR
STARTCHAR 0044
ENCODING 68
SWIDTH 488 0
DWIDTH 19 0
BBX 19 24 1 0
BITMAP
03FE00
03FF80
07DFC0
0703C0
0701E0
0700E0
0F00E0
0E00E0
0E00E0
0E00E0
0E00E0
1C00E0
1C00E0
1C01E0
1C01C0
3C01C0
3803C0
380780
380780
780F00
703E00
7FFC00
7FF000
FFC000
ENDCHAR
STARTCHAR 0045
ENCODING 69
SWIDTH 488 0
DWIDTH 19 0
BBX 19 24 3 0
BITMAP
07FFE0
07FFE0
07FFC0
070000
0F0000
0E0000
0E0000
0E0000
0E0000
1C0000
1FFE00
1FFE00
1FFE00
3C0000
380000
380000
380000
780000
700000
700000
700000
FFFE00
FFFC00
FFFC00
ENDCHAR
STARTCHAR 0046
ENCODING 70
SWIDTH 488 0
DWIDTH 19 0
BBX 19 24 3 0
BITMAP
07FFE0
07FFE0
07FFE0
070000
0F0000
0E0000
0E0000
0E0000
0E0000
1C0000
1FFE00
1FFE00
1FFE00
380000
380000
380000
380000
780000
700000
700000
700000
F00000
E00000
E00000
ENDCHAR
STARTCHAR 0047
ENCODING 71
SWIDTH 488 0
DWIDTH 19 0
BBX 19 26 3 -1
BITMAP
001E00
00FFC0
01FFE0
07E1C0
0F8000
0E0000
1E0000
3C0000
380000
380000
700000
700000
700000
F00700
E00700
E00700
E00F00
E00E00
E00E00
F00E00
701E00
781C00
7E3C00
3FFC00
0FFC00
010000
ENDCHAR
STARTCHAR 0048
ENCODING 72
SWIDTH 488 0
DWIDTH 19 0
BBX 20 24 2 0
BITMAP
070070
070070
070070
0F00F0
0E00E0
0E00E0
0E00E0
1E01E0
1C01C0
1C01C0
1FFFC0
3FFFC0
3FFF80
380380
380380
780780
700700
700700
700700
F00700
E00E00
E00E00
E00E00
E00E00
ENDCHAR
STARTCHAR 0049
ENCODING 73
SWIDTH 488 0
DWIDTH 19 0
BBX 18 24 3 0
BITMAP
07FFC0
07FFC0
07FF80
007800
007000
007000
007000
00F000
00E000
00E000
00E000
01E000
01C000
01C000
01C000
03C000
038000
038000
038000
078000
070000
FFF800
FFF800
FFF000
ENDCHAR
STARTCHAR 004A
ENCODING 74
SWIDTH 488 0
DWIDTH 19 0
BBX 18 25 3 -1
BITMAP
01FFC0
01FFC0
01FFC0
0003C0
000380
000380
000380
000380
000780
000700
000700
000700
000F00
000E00
000E00
000E00
001E00
001C00
001C00
003C00
407800
F1F800
FFF000
7FC000
040000
ENDCHAR
STARTCHAR 004B
ENCODING 75
SWIDTH 488 0
DWIDTH 19 0
BBX 20 24 2 0
BITMAP
0780F0
0701E0
0703C0
070380
0F0700
0E0E00
0E3C00
0E7800
1EF000
1DE000
1FC000
1F8000
3FC000
39E000
38E000
38F000
387800
783800
703C00
701C00
701E00
F00E00
E00F00
E00F00
ENDCHAR
STARTCHAR 004C
ENCODING 76
SWIDTH 488 0
DWIDTH 19 0
BBX 14 24 2 0
BITMAP
0380
0780
0700
0700
0700
0700
0F00
0E00
0E00
0E00
1E00
1C00
1C00
1C00
3C00
3800
3800
3800
7800
7000
7000
7FFC
FFFC
FFFC
ENDCHAR
STARTCHAR 004D
ENCODING 77
SWIDTH 488 0
DWIDTH 19 0
BBX 21 24 1 0
BITMAP
01C078
01C078
03C0F0
03C0F0
03E1F0
07E1B0
06E370
06E370
0EE670
0E6E60
0C6CE0
1C7CE0
1C78E0
1C78E0
3870C0
3801C0
3801C0
3001C0
7001C0
7003C0
700380
E00380
E00380
E00380
ENDCHAR
STARTCHAR 004E
ENCODING 78
SWIDTH 488 0
DWIDTH 19 0
BBX 20 24 2 0
BITMAP
078070
078070
078070
0FC070
0FC0E0
0FC0E0
0EC0E0
0CE0E0
1CE0C0
1CE1C0
1C61C0
1871C0
3871C0
383380
383380
303B80
703B80
703F00
701F00
701F00
E01F00
E01E00
E01E00
E01E00
ENDCHAR
STARTCHAR 004F
ENCODING 79
SWIDTH 488 0
DWIDTH 19 0
BBX 18 26 3 -1
BITMAP
001000
00FE00
03FF80
07C780
0F03C0
0E03C0
1C01C0
3C01C0
3801C0
3801C0
7801C0
7001C0
7003C0
700380
F00380
E00380
E00700
E00700
E00F00
E00E00
F01E00
703C00
7CF800
3FF000
1FC000
020000
ENDCHAR
STARTCHAR 0050
ENCODING 80
SWIDTH 488 0
DWIDTH 19 0
BBX 19 24 2 0
BITMAP
03FF00
07FF80
078FC0
0701E0
0700E0
0F00E0
0E00E0
0E00E0
0E01E0
0E01C0
1E03C0
1C0780
1FFF00
1FFE00
3FF000
380000
380000
380000
780000
700000
700000
700000
F00000
E00000
ENDCHAR
STARTCHAR 0051
ENCODING 81
SWIDTH 488 0
DWIDTH 19 0
BBX 18 31 3 -6
BITMAP
001000
00FE00
03FF80
07C780
0F03C0
0E03C0
1C01C0
3C01C0
3801C0
3801C0
7801C0
7001C0
7003C0
700380
F00380
E00380
E00700
E00700
E00F00
E00E00
F01E00
703C00
7CF800
3FF000
1FC000
0F0000
0F0000
078000
07E000
03F800
00F000
ENDCHAR
STARTCHAR 0052
ENCODING 82
SWIDTH 488 0
DWIDTH 19 0
BBX 19 24 2 0
BITMAP
07FF00
07FF80
078FC0
0703C0
0F01C0
0E01E0
0E01C0
0E01C0
1E01C0
1C03C0
1C0780
1C1F00
3FFE00
3FF800
3FF000
383800
383800
703C00
701C00
701C00
701E00
F00E00
E00E00
E00E00
ENDCHAR
STARTCHAR 0053
ENCODING 83
SWIDTH 488 0
DWIDTH 19 0
BBX 19 26 2 -1
BITMAP
001E00
00FFC0
01FFE0
03E1C0
078000
070000
070000
0F0000
070000
070000
07C000
03E000
01F800
007E00
003E00
000F00
000700
000700
000700
000700
000F00
401E00
787E00
FFFC00
7FF000
030000
ENDCHAR
STARTCHAR 0054
ENCODING 84
SWIDTH 488 0
DWIDTH 19 0
BBX 17 24 6 0
BITMAP
FFFF80
FFFF80
FFFF00
038000
038000
038000
038000
078000
070000
070000
070000
0F0000
0E0000
0E0000
0E0000
1E0000
1C0000
1C0000
1C0000
3C0000
380000
380000
380000
780000
ENDCHAR
STARTCHAR 0055
ENCODING 85
SWIDTH 488 0
DWIDTH 19 0
BBX 19 25 3 -1
BITMAP
0E00E0
0E00E0
0E00E0
1E01E0
1C01C0
1C01C0
1C01C0
3C03C0
380380
380380
380380
780780
700700
700700
700700
F00F00
E00E00
E00E00
E01E00
F01C00
703C00
787800
3FF000
1FE000
020000
ENDCHAR
STARTCHAR 0056
ENCODING 86
SWIDTH 488 0
DWIDTH 19 0
BBX 19 24 5 0
BITMAP
F001E0
F001C0
F003C0
F00380
F00780
F00700
F00F00
700E00
701C00
701C00
703800
703800
707000
707000
70E000
70E000
71C000
73C000
738000
770000
770000
3E0000
3E0000
3C0000
ENDCHAR
STARTCHAR 0057
ENCODING 87
SWIDTH 488 0
DWIDTH 19 0
BBX 21 24 2 0
BITMAP
0E0038
0E0038
0E0038
0E0070
1C0070
1C0070
1C0060
1C00E0
1C00E0
3870E0
38F1C0
38F1C0
39F1C0
31B180
33B380
733380
763300
7E3B00
6C3F00
7C3E00
781E00
781E00
F01C00
F01C00
ENDCHAR
STARTCHAR 0058
ENCODING 88
SWIDTH 488 0
DWIDTH 19 0
BBX 22 24 1 0
BITMAP
03C01C
03C03C
01C078
01E0F0
01E0E0
00E1C0
00F3C0
007780
007700
007E00
003C00
003C00
007C00
00FC00
01FE00
03CE00
038E00
070F00
0F0700
1E0700
3C0780
780380
700380
F00380
ENDCHAR
STARTCHAR 0059
ENCODING 89
SWIDTH 488 0
DWIDTH 19 0
BBX 18 24 6 0
BITMAP
E003C0
E00380
E00780
E00F00
700E00
701C00
703C00
703800
387000
38E000
39E000
1DC000
1F8000
1F0000
0E0000
0E0000
1E0000
1C0000
1C0000
1C0000
3C0000
380000
380000
380000
ENDCHAR
STARTCHAR 005A
ENCODING 90
SWIDTH 488 0
DWIDTH 19 0
BBX 20 24 2 0
BITMAP
07FFF0
07FFF0
07FFF0
0001E0
0003C0
000780
000F00
001E00
001C00
003800
007000
00F000
01E000
03C000
078000
070000
0E0000
1E0000
3C0000
780000
700000
FFFE00
FFFE00
FFFE00
ENDCHAR
STARTCHAR 005B
ENCODING 91
SWIDTH 488 0
DWIDTH 19 0
BBX 17 33 4 -6
BITMAP
00FF80
01FF80
01C000
01C000
01C000
01C000
038000
038000
038000
038000
070000
070000
070000
070000
0E0000
0E0000
0E0000
0E0000
1C0000
1C0000
1C0000
1C0000
3C0000
380000
380000
380000
780000
700000
700000
700000
F00000
FFC000
FF8000
ENDCHAR
STARTCHAR 005C
ENCODING 92
SWIDTH 488 0
DWIDTH 19 0
BBX 5 33 9 -6
BITMAP
E0
E0
E0
E0
E0
E0
E0
E0
E0
F0
F0
F0
70
70
70
70
70
70
70
70
70
70
78
78
78
38
38
38
38
38
38
38
38
ENDCHAR
STARTCHAR 005D
ENCODING 93
SWIDTH 488 0
DWIDTH 19 0
BBX 17 33 1 -6
BITMAP
00FF80
00FF80
000380
000780
000700
000700
000700
000700
000E00
000E00
000E00
000E00
001C00
001C00
001C00
001C00
003800
003800
003800
003800
007000
007000
007000
007000
00E000
00E000
00E000
00E000
01E000
01C000
01C000
FFC000
FFC000
ENDCHAR
STARTCHAR 005E
ENCODING 94
SWIDTH 488 0
DWIDTH 19 0
BBX 16 13 4 11
BITMAP
0070
00F8
01F8
01F8
039C
079C
0F1C
1E0E
1C0E
380E
7807
F007
2006
ENDCHAR
STARTCHAR 005F
ENCODING 95
SWIDTH 488 0
DWIDTH 19 0
BBX 18 2 -1 -6
BITMAP
FFFFC0
FFFFC0
ENDCHAR
STARTCHAR 0060
ENCODING 96
SWIDTH 488 0
DWIDTH 19 0
BBX 6 7 11 20
BITMAP
40
E0
E0
70
38
3C
18
ENDCHAR
STARTCHAR 0061
ENCODING 97
SWIDTH 488 0
DWIDTH 19 0
BBX 17 18 3 0
BITMAP
01FF80
07FF80
0FC700
1E0700
3C0700
780700
700E00
F00E00
F00E00
E00E00
E01E00
E01C00
E01C00
E01C00
F03C00
F8FC00
7FFC00
3F9C00
ENDCHAR
STARTCHAR 0062
ENCODING 98
SWIDTH 488 0
DWIDTH 19 0
BBX 17 27 3 0
BITMAP
038000
078000
070000
070000
070000
0F0000
0E0000
0E0000
0E0000
1FFC00
1FFE00
1F1F00
1C0700
3C0780
380780
380780
380780
380700
700700
700F00
700F00
701E00
E03C00
E07C00
F3F800
FFE000
FF8000
ENDCHAR
STARTCHAR 0063
ENCODING 99
SWIDTH 488 0
DWIDTH 19 0
BBX 17 19 3 0
BITMAP
001800
01FF80
07FF00
0F8300
1E0000
3C0000
780000
700000
F00000
E00000
E00000
E00000
E00000
E00000
E00000
F00000
7E3C00
3FFC00
1FF800
ENDCHAR
STARTCHAR 0064
ENCODING 100
SWIDTH 488 0
DWIDTH 19 0
BBX 19 27 3 0
BITMAP
000060
0000E0
0000E0
0000E0
0001E0
0001C0
0001C0
0001C0
0003C0
01FF80
03FF80
0FC380
1F0780
3C0700
380700
780700
700F00
700E00
F00E00
E00E00
E01E00
E01C00
F01C00
F03C00
78FC00
7FFC00
3FCE00
ENDCHAR
STARTCHAR 0065
ENCODING 101
SWIDTH 488 0
DWIDTH 19 0
BBX 17 18 3 0
BITMAP
03FE00
07FF00
1F8F00
3E0780
3C0780
780700
700700
F01F00
EFFE00
FFF800
FF8000
E00000
E00000
E00000
F00000
7E3C00
3FFC00
1FF800
ENDCHAR
STARTCHAR 0066
ENCODING 102
SWIDTH 488 0
DWIDTH 19 0
BBX 23 33 0 -7
BITMAP
0000FC
0003FE
0007FC
000F00
000E00
000E00
001E00
001C00
001C00
01FFF8
01FFF8
03FFF8
003800
003800
003800
007800
007000
007000
007000
00F000
00E000
00E000
00E000
00E000
01E000
01C000
01C000
01C000
03C000
038000
4F8000
7F0000
FE0000
ENDCHAR
STARTCHAR 0067
ENCODING 103
SWIDTH 488 0
DWIDTH 19 0
BBX 20 25 1 -7
BITMAP
003FF0
00FFE0
03F0E0
07C0E0
0781E0
0F01C0
1E01C0
1C01C0
1C03C0
1C0380
3C0380
3C0380
3C0380
1C0700
1F3F00
1FFF00
07F700
000E00
000E00
001E00
003C00
707800
FFF800
FFE000
060000
ENDCHAR
STARTCHAR 0068
ENCODING 104
SWIDTH 488 0
DWIDTH 19 0
BBX 17 27 2 0
BITMAP
018000
038000
038000
078000
070000
070000
070000
0F0000
0E0000
0FFC00
0FFE00
1F1F00
1C0700
1C0700
1C0780
3C0700
380700
380700
380700
380F00
780E00
700E00
700E00
701E00
F01C00
E01C00
E01C00
ENDCHAR
STARTCHAR 0069
ENCODING 105
SWIDTH 488 0
DWIDTH 19 0
BBX 12 26 5 0
BITMAP
01C0
03E0
07E0
03C0
03C0
0000
0000
0000
7F80
FF80
FF80
0700
0700
0700
0F00
0E00
0E00
0E00
0E00
1E00
1C00
1C00
1E00
0FF0
0FE0
07E0
ENDCHAR
STARTCHAR 006A
ENCODING 106
SWIDTH 488 0
DWIDTH 19 0
BBX 18 32 1 -7
BITMAP
0003C0
0003C0
0007C0
0007C0
000380
000000
000000
000000
01FF80
01FF80
03FF80
000380
000700
000700
000700
000700
000F00
000E00
000E00
000E00
001E00
001C00
001C00
001C00
003C00
003800
003800
007800
007000
61F000
FFE000
FF8000
ENDCHAR
STARTCHAR 006B
ENCODING 107
SWIDTH 488 0
DWIDTH 19 0
BBX 18 27 3 0
BITMAP
038000
038000
078000
070000
070000
070000
0F0000
0E0000
0E0000
0E03C0
1E0780
1C1E00
1C3C00
1C7800
3CF000
3BC000
3F8000
3F8000
7FC000
73C000
71E000
70F000
707000
E07800
E03C00
E01C00
E01E00
ENDCHAR
STARTCHAR 006C
ENCODING 108
SWIDTH 488 0
DWIDTH 19 0
BBX 10 27 7 0
BITMAP
7F80
FF80
FF00
0700
0700
0700
0F00
0E00
0E00
0E00
1E00
1C00
1C00
1C00
3C00
3800
3800
3800
7800
7000
7000
7000
7000
7000
78C0
7FC0
3FC0
ENDCHAR
STARTCHAR 006D
ENCODING 109
SWIDTH 488 0
DWIDTH 19 0
BBX 19 18 1 0
BITMAP
0FF7C0
0FFFE0
0E7CE0
0E38E0
1C38E0
1C38E0
1C70E0
1C70C0
3871C0
3871C0
38E1C0
3801C0
300380
700380
700380
700380
600700
E00700
ENDCHAR
STARTCHAR 006E
ENCODING 110
SWIDTH 488 0
DWIDTH 19 0
BBX 16 18 3 0
BITMAP
0FFC
1FFE
1F3F
1C0F
1C07
3C07
3807
3807
3807
780E
700E
700E
700E
701E
E01C
E01C
E01C
E03C
ENDCHAR
STARTCHAR 006F
ENCODING 111
SWIDTH 488 0
DWIDTH 19 0
BBX 17 18 3 0
BITMAP
03FC00
07FE00
0F9F00
1E0700
3C0780
380780
780780
700780
700700
F00700
E00700
E00F00
E00E00
F01E00
F03C00
7DF800
7FF000
1FC000
ENDCHAR
STARTCHAR 0070
ENCODING 112
SWIDTH 488 0
DWIDTH 19 0
BBX 19 24 1 -6
BITMAP
03FF00
07FF80
0787C0
0701C0
0F01E0
0E01E0
0E01E0
0E01E0
1E01C0
1C01C0
1C01C0
1C03C0
1C0780
3C0F00
381F00
3DFE00
3FF800
7FE000
700000
700000
700000
F00000
E00000
E00000
ENDCHAR
STARTCHAR 0071
ENCODING 113
SWIDTH 488 0
DWIDTH 19 0
BBX 17 24 3 -6
BITMAP
00FF80
03FF80
0FC380
1F0780
3C0700
380700
780700
700F00
700E00
F00E00
E00E00
E01E00
E01C00
F01C00
F03C00
78FC00
7FF800
3FF800
003800
007800
007000
007000
007000
007000
ENDCHAR
STARTCHAR 0072
ENCODING 114
SWIDTH 488 0
DWIDTH 19 0
BBX 16 18 4 0
BITMAP
07FF
1FFF
1F86
1C00
1C00
3C00
3800
3800
3800
7800
7000
7000
7000
7000
F000
E000
E000
E000
ENDCHAR
STARTCHAR 0073
ENCODING 115
SWIDTH 488 0
DWIDTH 19 0
BBX 16 18 3 0
BITMAP
03FF
07FF
0F87
0E00
0E00
0E00
0F00
0F80
07F0
01F8
007C
003C
001C
001C
403C
70F8
FFF8
7FE0
ENDCHAR
STARTCHAR 0074
ENCODING 116
SWIDTH 488 0
DWIDTH 19 0
BBX 15 23 5 1
BITMAP
0380
0380
0780
0700
0700
7FFE
7FFE
FFFC
0E00
0E00
1E00
1C00
1C00
1C00
3C00
3C00
3800
3800
3800
3800
3E70
1FF0
1FF0
ENDCHAR
STARTCHAR 0075
ENCODING 117
SWIDTH 488 0
DWIDTH 19 0
BBX 17 18 3 0
BITMAP
1C0380
1C0780
3C0700
380700
380700
380F00
780E00
700E00
700E00
700E00
F01E00
F01C00
E01C00
F01C00
F03C00
78FC00
7FFC00
3F9C00
ENDCHAR
STARTCHAR 0076
ENCODING 118
SWIDTH 488 0
DWIDTH 19 0
BBX 16 18 5 0
BITMAP
E00F
F00E
F00E
F01C
F01C
F038
7038
7070
7070
70E0
71E0
71C0
7B80
3B80
3F00
3E00
3E00
3C00
ENDCHAR
STARTCHAR 0077
ENCODING 119
SWIDTH 488 0
DWIDTH 19 0
BBX 19 18 3 0
BITMAP
7000E0
7000E0
7000E0
7001C0
70E1C0
70E1C0
71E380
61E380
63E300
E36700
E66700
EE6E00
EC6E00
FC6C00
F87C00
F07800
F07800
E03800
ENDCHAR
STARTCHAR 0078
ENCODING 120
SWIDTH 488 0
DWIDTH 19 0
BBX 20 18 1 0
BITMAP
0700F0
0781E0
0383C0
03C380
01C700
01EE00
00FC00
00FC00
007800
00F800
01F800
03FC00
079C00
0F1E00
1E0E00
3C0F00
780700
F00700
ENDCHAR
STARTCHAR 0079
ENCODING 121
SWIDTH 488 0
DWIDTH 19 0
BBX 22 25 -1 -7
BITMAP
03C03C
03C038
03C038
01C078
01C070
01C070
01C0E0
01C0E0
01E1E0
00E1C0
00E3C0
00E380
00E780
00F700
007F00
007E00
007C00
003C00
003800
007000
00E000
43C000
7F8000
FF0000
300000
ENDCHAR
STARTCHAR 007A
ENCODING 122
SWIDTH 488 0
DWIDTH 19 0
BBX 18 18 2 0
BITMAP
07FFC0
07FF80
0FFF80
000F00
001E00
003C00
007800
00F000
01E000
03C000
078000
0F0000
1E0000
1C0000
380000
7FFC00
7FFC00
FFFC00
ENDCHAR
STARTCHAR 007B
ENCODING 123
SWIDTH 488 0
DWIDTH 19 0
BBX 18 33 4 -6
BITMAP
001FC0
007FC0
00F800
00E000
01C000
01C000
01C000
01C000
038000
038000
038000
038000
070000
070000
0E0000
FE0000
F80000
FC0000
1C0000
1C0000
1C0000
1C0000
1C0000
1C0000
1C0000
380000
380000
380000
380000
380000
380000
3FE000
1FC000
ENDCHAR
STARTCHAR 007C
ENCODING 124
SWIDTH 488 0
DWIDTH 19 0
BBX 11 33 6 -6
BITMAP
00E0
00E0
01C0
01C0
01C0
01C0
0380
0380
0380
0380
0780
0700
0700
0700
0F00
0E00
0E00
0E00
0E00
1C00
1C00
1C00
1C00
3800
3800
3800
3800
7000
7000
7000
7000
E000
E000
ENDCHAR
STARTCHAR 007D
ENCODING 125
SWIDTH 488 0
DWIDTH 19 0
BBX 19 33 0 -6
BITMAP
00FE00
00FF00
000F80
000380
000380
000700
000700
000700
000700
000600
000E00
000E00
000E00
000E00
000E00
000FE0
0007C0
000FC0
001E00
003C00
003800
003800
007000
007000
007000
007000
00E000
00E000
00E000
01E000
03C000
FF8000
FF0000
ENDCHAR
STARTCHAR 007E
ENCODING 126
SWIDTH 488 0
DWIDTH 19 0
BBX 17 6 3 7
BITMAP
1F0100
3F8380
7FE700
E1FF00
E0FE00
001000
ENDCHAR
STARTCHAR 00A0
ENCODING 160
SWIDTH 488 0
DWIDTH 19 0
BBX 0 0 0 0
BITMAP
ENDCHAR
STARTCHAR 00A1
ENCODING 161
SWIDTH 488 0
DWIDTH 19 0
BBX 9 24 6 -6
BITMAP
0700
0F80
0F80
0F80
0700
0000
0000
0000
0000
0C00
1C00
1C00
1C00
3C00
3800
3800
3800
7800
7800
7000
7000
F000
F000
E000
ENDCHAR
STARTCHAR 00A2
ENCODING 162
SWIDTH 488 0
DWIDTH 19 0
BBX 16 28 4 -4
BITMAP
0038
0038
0038
0070
0070
01FF
07FE
0FFE
1E00
3C00
7800
7000
F000
E000
E000
E000
E000
E000
E000
F808
7FF8
3FF8
0FE0
0600
0E00
0E00
0E00
0C00
ENDCHAR
STARTCHAR 00A3
ENCODING 163
SWIDTH 488 0
DWIDTH 19 0
BBX 18 25 4 0
BITMAP
000400
007FC0
01FF80
03F180
03C000
078000
070000
070000
0F0000
0E0000
0E0000
0E0000
FFF800
FFF800
FFF800
1C0000
3C0000
380000
380000
780000
700000
700000
FFFC00
FFF800
FFF800
ENDCHAR
STARTCHAR 00A4
ENCODING 164
SWIDTH 488 0
DWIDTH 19 0
BBX 16 16 4 4
BITMAP
4006
E3CF
FFFE
7FFC
383C
701C
700C
700C
700C
700C
701C
383C
7FFC
FFFE
E18F
4006
ENDCHAR
STARTCHAR 00A5
ENCODING 165
SWIDTH 488 0
DWIDTH 19 0
BBX 21 24 3 0
BITMAP
1C0078
1C00F0
1E00E0
0E01C0
0E03C0
0F0780
070700
070E00
079C00
03BC00
03F800
03F000
3FFF00
7FFF00
01C000
01C000
03C000
038000
FFFE00
FFFE00
078000
070000
070000
070000
ENDCHAR
STARTCHAR 00A6
ENCODING 166
SWIDTH 488 0
DWIDTH 19 0
BBX 11 33 6 -6
BITMAP
00E0
00E0
01C0
01C0
01C0
01C0
0380
0380
0380
0380
0700
0700
0700
0000
0000
0000
0000
0000
0000
0000
1C00
1C00
1C00
3800
3800
3800
3800
7000
7000
7000
7000
E000
E000
ENDCHAR
STARTCHAR 00A7
ENCODING 167
SWIDTH 488 0
DWIDTH 19 0
BBX 18 29 2 -4
BITMAP
000C00
007FC0
01FFC0
01C0C0
038000
038000
038000
03C000
03F000
03FC00
07FE00
0E1F00
1C0700
1C0700
1C0700
1C0700
1C0700
1F0E00
0FFC00
07F800
00F800
003800
003C00
003C00
003800
407800
FFF000
FFE000
1F0000
ENDCHAR
STARTCHAR 00A8
ENCODING 168
SWIDTH 488 0
DWIDTH 19 0
BBX 11 4 9 21
BITMAP
71E0
F1E0
F1E0
2080
ENDCHAR
STARTCHAR 00A9
ENCODING 169
SWIDTH 488 0
DWIDTH 19 0
BBX 17 18 3 0
BITMAP
0FF000
1FFC00
381E00
700E00
61E700
E7E300
C70300
CE0380
CC0380
CC0380
CE0380
CF2300
E7E300
63E700
700E00
381C00
1FF800
0FF000
ENDCHAR
STARTCHAR 00AA
ENCODING 170
SWIDTH 488 0
DWIDTH 19 0
BBX 12 13 7 11
BITMAP
00C0
0FF0
1FF0
3860
7060
60E0
E0E0
E0C0
C0C0
E1C0
E1C0
FFC0
7EC0
ENDCHAR
STARTCHAR 00AB
ENCODING 171
SWIDTH 488 0
DWIDTH 19 0
BBX 15 14 4 3
BITMAP
0204
070E
0E1C
1C38
3C78
3870
70E0
E1C0
70E0
70E0
3870
3870
1830
1020
ENDCHAR
STARTCHAR 00AC
ENCODING 172
SWIDTH 488 0
DWIDTH 19 0
BBX 16 12 4 2
BITMAP
FFFF
FFFF
FFFF
0006
000E
000E
000E
000E
001C
001C
001C
001C
ENDCHAR
STARTCHAR 00AD
ENCODING 173
SWIDTH 488 0
DWIDTH 19 0
BBX 9 3 7 8
BITMAP
FF80
FF80
FF00
ENDCHAR
STARTCHAR 00AE
ENCODING 174
SWIDTH 488 0
DWIDTH 19 0
BBX 17 18 3 0
BITMAP
0FF000
1FFC00
381E00
700E00
67C700
E7E300
C67300
C63380
C67380
C7E380
C7E380
C66300
E67300
663700
700E00
381C00
1FF800
0FF000
ENDCHAR
STARTCHAR 00AF
ENCODING 175
SWIDTH 488 0
DWIDTH 19 0
BBX 10 3 9 22
BITMAP
7FC0
FFC0
FFC0
ENDCHAR
STARTCHAR 00B0
ENCODING 176
SWIDTH 488 0
DWIDTH 19 0
BBX 9 10 9 17
BITMAP
3E00
7F00
E380
C180
C180
C180
C180
F780
7F00
1C00
ENDCHAR
STARTCHAR 00B1
ENCODING 177
SWIDTH 488 0
DWIDTH 19 0
BBX 19 22 1 0
BITMAP
000E00
000E00
001C00
001C00
001C00
001C00
003800
0FFFE0
0FFFE0
1FFFE0
007000
007000
007000
007000
00E000
00E000
00E000
000000
000000
7FFF00
7FFF00
FFFF00
ENDCHAR
STARTCHAR 00B2
ENCODING 178
SWIDTH 488 0
DWIDTH 19 0
BBX 11 14 7 11
BITMAP
0300
1FC0
3FE0
10E0
00E0
00E0
01C0
0780
0F00
3C00
3000
6000
FFC0
FF80
ENDCHAR
STARTCHAR 00B3
ENCODING 179
SWIDTH 488 0
DWIDTH 19 0
BBX 11 14 7 11
BITMAP
0380
1FE0
1FE0
0060
0060
00C0
0F80
0FC0
01C0
00C0
00C0
01C0
7FC0
FF00
ENDCHAR
STARTCHAR 00B4
ENCODING 180
SWIDTH 488 0
DWIDTH 19 0
BBX 7 7 12 20
BITMAP
04
0C
1E
3C
78
E0
40
ENDCHAR
STARTCHAR 00B5
ENCODING 181
SWIDTH 488 0
DWIDTH 19 0
BBX 20 24 0 -6
BITMAP
038070
0380F0
0780E0
0700E0
0700E0
0701E0
0F01C0
0E01C0
0E01C0
0E03C0
1E0380
1E0380
1C0380
1E0380
1E0780
3FBFC0
3FFFE0
3BF9C0
380000
700000
700000
700000
700000
F00000
ENDCHAR
STARTCHAR 00B6
ENCODING 182
SWIDTH 488 0
DWIDTH 19 0
BBX 18 30 4 -6
BITMAP
01FFC0
0FFFC0
1FF380
3FE380
7FE380
FFE380
FFE300
FFC700
FFC700
FFC700
FFC600
FF8E00
FF8E00
7F8E00
1F8C00
030C00
071C00
071C00
071C00
061800
0E3800
0E3800
0E3800
0C3000
1C7000
1C7000
1C7000
1C6000
18E000
38E000
ENDCHAR
STARTCHAR 00B7
ENCODING 183
SWIDTH 488 0
DWIDTH 19 0
BBX 5 6 9 7
BITMAP
70
F8
F8
F8
F8
60
ENDCHAR
STARTCHAR 00B8
ENCODING 184
SWIDTH 488 0
DWIDTH 19 0
BBX 7 8 5 -7
BITMAP
0C
1C
18
3C
0E
FC
FC
30
ENDCHAR
STARTCHAR 00B9
ENCODING 185
SWIDTH 488 0
DWIDTH 19 0
BBX 10 13 7 11
BITMAP
0380
0780
3F80
1B00
0300
0700
0700
0600
0600
0E00
0E00
FFC0
FF80
ENDCHAR
STARTCHAR 00BA
ENCODING 186
SWIDTH 488 0
DWIDTH 19 0
BBX 12 14 7 11
BITMAP
0380
0FE0
1FF0
3870
7030
7030
6030
E070
E070
E0E0
E0E0
7FC0
7F80
0C00
ENDCHAR
STARTCHAR 00BB
ENCODING 187
SWIDTH 488 0
DWIDTH 19 0
BBX 14 14 4 3
BITMAP
0810
1870
1C38
1C38
0E18
0E1C
0E1C
0E1C
1E38
3C78
3870
70E0
E1C0
4180
ENDCHAR
STARTCHAR 00BC
ENCODING 188
SWIDTH 488 0
DWIDTH 19 0
BBX 21 24 1 0
BITMAP
00E038
03C038
0FC070
05C0E0
01C1C0
0183C0
018380
038700
038E00
001C00
001C00
003800
007000
00E000
01C0C0
01C3C0
0387C0
070FC0
0E1D80
0E3980
1C7FC0
387FC0
700300
E00300
ENDCHAR
STARTCHAR 00BD
ENCODING 189
SWIDTH 488 0
DWIDTH 19 0
BBX 21 24 1 0
BITMAP
00E038
03C070
0FC0F0
05C0E0
01C1C0
018380
018700
038700
038E00
001C00
003800
007000
007000
00E000
01C780
039FC0
0388C0
0700C0
0E01C0
1C0780
380E00
381800
703F80
E03F80
ENDCHAR
STARTCHAR 00BE
ENCODING 190
SWIDTH 488 0
DWIDTH 19 0
BBX 21 25 1 0
BITMAP
018000
0FE038
04E038
00E070
07C0E0
0781C0
01C3C0
00C380
11C700
3F8E00
1E1C00
001C00
003800
007000
00E000
01C0C0
01C3C0
0387C0
070FC0
0E1D80
0E3980
1C7FC0
387FC0
700300
E00300
ENDCHAR
STARTCHAR 00BF
ENCODING 191
SWIDTH 488 0
DWIDTH 19 0
BBX 14 25 3 -7
BITMAP
0038
007C
007C
007C
0078
0000
0000
0000
0000
00E0
00E0
01C0
0380
0F00
1E00
3C00
7800
7000
E000
E000
E000
F060
7FE0
3FE0
0700
ENDCHAR
STARTCHAR 00C0
ENCODING 192
SWIDTH 488 0
DWIDTH 19 0
BBX 18 32 0 0
BITMAP
000400
000E00
000F00
000780
0003C0
0001C0
000080
000000
000F80
000F80
001F80
001B80
003B80
007380
007380
00E380
00E380
01C1C0
0181C0
0381C0
0701C0
0701C0
0E01C0
0FFFC0
1FFFC0
1FFFC0
3801C0
3801C0
7001C0
7001C0
E001C0
E001C0
ENDCHAR
STARTCHAR 00C1
ENCODING 193
SWIDTH 488 0
DWIDTH 19 0
BBX 20 32 0 0
BITMAP
000020
000070
0000F0
0001E0
000380
000300
000200
000000
000F80
000F80
001F80
001B80
003B80
007380
007380
00E380
00E380
01C1C0
0181C0
0381C0
0701C0
0701C0
0E01C0
0FFFC0
1FFFC0
1FFFC0
3801C0
3801C0
7001C0
7001C0
E001C0
E001C0
ENDCHAR
STARTCHAR 00C2
ENCODING 194
SWIDTH 488 0
DWIDTH 19 0
BBX 20 32 0 0
BITMAP
000080
0001C0
0007C0
000FE0
001C70
001830
000000
000000
000F80
000F80
001F80
001B80
003B80
007380
007380
00E380
00E380
01C1C0
0181C0
0381C0
0701C0
0701C0
0E01C0
0FFFC0
1FFFC0
1FFFC0
3801C0
3801C0
7001C0
7001C0
E001C0
E001C0
ENDCHAR
STARTCHAR 00C3
ENCODING 195
SWIDTH 488 0
DWIDTH 19 0
BBX 21 31 0 0
BITMAP
000E18
001FB8
003FF8
0031E0
000000
000000
000000
000F80
000F80
001F80
001B80
003B80
007380
007380
00E380
00E380
01C1C0
0181C0
0381C0
0701C0
0701C0
0E01C0
0FFFC0
1FFFC0
1FFFC0
3801C0
3801C0
7001C0
7001C0
E001C0
E001C0
ENDCHAR
STARTCHAR 00C4
ENCODING 196
SWIDTH 488 0
DWIDTH 19 0
BBX 21 31 0 0
BITMAP
000C30
001E78
001E78
001C38
000000
000000
000000
000F80
000F80
001F80
001B80
003B80
007380
007380
00E380
00E380
01C1C0
0181C0
0381C0
0701C0
0701C0
0E01C0
0FFFC0
1FFFC0
1FFFC0
3801C0
3801C0
7001C0
7001C0
E001C0
E001C0
ENDCHAR
STARTCHAR 00C5
ENCODING 197
SWIDTH 488 0
DWIDTH 19 0
BBX 18 29 0 0
BITMAP
000780
000FC0
0018C0
001840
0018C0
000FC0
000F80
001F80
001B80
003B80
007380
007380
00E380
00E380
01C180
0181C0
0381C0
0701C0
0701C0
0E01C0
0FFFC0
1FFFC0
1FFFC0
3801C0
3801C0
7001C0
7001C0
E001C0
E001C0
ENDCHAR
STARTCHAR 00C6
ENCODING 198
SWIDTH 488 0
DWIDTH 19 0
BBX 22 24 1 0
BITMAP
000FFC
000FFC
001FFC
003F80
003700
007700
006700
00E700
01CE00
01CE00
038FE0
038FE0
071FC0
071C00
0E1C00
0FFC00
1FF800
1FF800
383800
383800
707000
707FC0
E07F80
E07F80
ENDCHAR
STARTCHAR 00C7
ENCODING 199
SWIDTH 488 0
DWIDTH 19 0
BBX 19 32 3 -7
BITMAP
000600
007FC0
01FFE0
03E1E0
078040
0F0000
1E0000
1C0000
3C0000
380000
380000
700000
700000
700000
700000
700000
F00000
F00000
700000
700000
780000
780000
3F3C00
1FFC00
0FF800
038000
030000
078000
038000
1F8000
1F0000
0C0000
ENDCHAR
STARTCHAR 00C8
ENCODING 200
SWIDTH 488 0
DWIDTH 19 0
BBX 19 32 3 0
BITMAP
001800
003800
003C00
001E00
000F00
000700
000200
000000
07FFE0
07FFE0
07FFC0
070000
0F0000
0E0000
0E0000
0E0000
0E0000
1C0000
1FFE00
1FFE00
1FFE00
3C0000
380000
380000
380000
780000
700000
700000
700000
FFFE00
FFFC00
FFFC00
ENDCHAR
STARTCHAR 00C9
ENCODING 201
SWIDTH 488 0
DWIDTH 19 0
BBX 19 32 3 0
BITMAP
000100
000380
000780
000F00
001C00
001800
001000
000000
07FFE0
07FFE0
07FFC0
070000
0F0000
0E0000
0E0000
0E0000
0E0000
1C0000
1FFE00
1FFE00
1FFE00
3C0000
380000
380000
380000
780000
700000
700000
700000
FFFE00
FFFC00
FFFC00
ENDCHAR
STARTCHAR 00CA
ENCODING 202
SWIDTH 488 0
DWIDTH 19 0
BBX 19 32 3 0
BITMAP
000600
000E00
001F00
003B80
007180
006180
000000
000000
07FFE0
07FFE0
07FFC0
070000
0F0000
0E0000
0E0000
0E0000
0E0000
1C0000
1FFE00
1FFE00
1FFE00
3C0000
380000
380000
380000
780000
700000
700000
700000
FFFE00
FFFC00
FFFC00
ENDCHAR
STARTCHAR 00CB
ENCODING 203
SWIDTH 488 0
DWIDTH 19 0
BBX 19 31 3 0
BITMAP
006180
00F3C0
00F3C0
00E1C0
000000
000000
000000
07FFE0
07FFE0
07FFC0
070000
0F0000
0E0000
0E0000
0E0000
0E0000
1C0000
1FFE00
1FFE00
1FFE00
3C0000
380000
380000
380000
780000
700000
700000
700000
FFFE00
FFFC00
FFFC00
ENDCHAR
STARTCHAR 00CC
ENCODING 204
SWIDTH 488 0
DWIDTH 19 0
BBX 18 32 3 0
BITMAP
003000
007000
007800
003C00
001E00
000E00
000400
000000
07FFC0
07FFC0
07FF80
007800
007000
007000
007000
00F000
00E000
00E000
00E000
01E000
01C000
01C000
01C000
03C000
038000
038000
038000
078000
070000
FFF800
FFF800
FFF000
ENDCHAR
STARTCHAR 00CD
ENCODING 205
SWIDTH 488 0
DWIDTH 19 0
BBX 18 32 3 0
BITMAP
000300
000700
000F80
001E00
003C00
003800
000000
000000
07FFC0
07FFC0
07FF80
007800
007000
007000
007000
00F000
00E000
00E000
00E000
01E000
01C000
01C000
01C000
03C000
038000
038000
038000
078000
070000
FFF800
FFF800
FFF000
ENDCHAR
STARTCHAR 00CE
ENCODING 206
SWIDTH 488 0
DWIDTH 19 0
BBX 18 32 3 0
BITMAP
000400
000E00
003E00
007F00
00E380
00C180
000000
000000
07FFC0
07FFC0
07FF80
007800
007000
007000
007000
00F000
00E000
00E000
00E000
01E000
01C000
01C000
01C000
03C000
038000
038000
038000
078000
070000
FFF800
FFF800
FFF000
ENDCHAR
STARTCHAR 00CF
ENCODING 207
SWIDTH 488 0
DWIDTH 19 0
BBX 18 31 3 0
BITMAP
0061C0
00F1C0
00F3C0
00E1C0
000000
000000
000000
07FFC0
07FFC0
07FF80
007800
007000
007000
007000
00F000
00E000
00E000
00E000
01E000
01C000
01C000
01C000
03C000
038000
038000
038000
078000
070000
FFF800
FFF800
FFF000
ENDCHAR
STARTCHAR 00D0
ENCODING 208
SWIDTH 488 0
DWIDTH 19 0
BBX 17 24 3 0
BITMAP
07F800
07FE00
07BF00
070F00
0E0780
0E0380
0E0380
0E0380
1E0380
1C0380
FF8380
FF8380
FF8380
380780
380700
380700
780F00
700E00
701E00
703C00
F07800
FFF000
FFE000
FF8000
ENDCHAR
STARTCHAR 00D1
ENCODING 209
SWIDTH 488 0
DWIDTH 19 0
BBX 20 31 2 0
BITMAP
003820
007E60
00FFE0
00C3C0
000000
000000
000000
078070
078070
078070
0FC070
0FC0E0
0FC0E0
0EC0E0
0CE0E0
1CE0C0
1CE1C0
1C61C0
1871C0
3871C0
383380
383380
303B80
703B80
703F00
701F00
701F00
E01F00
E01E00
E01E00
E01E00
ENDCHAR
STARTCHAR 00D2
ENCODING 210
SWIDTH 488 0
DWIDTH 19 0
BBX 18 33 3 -1
BITMAP
003000
007800
003800
001C00
000E00
000E00
000400
001000
00FE00
03FF80
07C780
0F03C0
0E03C0
1C01C0
3C01C0
3801C0
3801C0
7801C0
7001C0
7003C0
700380
F00380
E00380
E00700
E00700
E00F00
E00E00
F01E00
703C00
7CF800
3FF000
1FC000
020000
ENDCHAR
STARTCHAR 00D3
ENCODING 211
SWIDTH 488 0
DWIDTH 19 0
BBX 18 33 3 -1
BITMAP
000100
000380
000780
000F00
001C00
001800
001000
001000
00FE00
03FF80
07C780
0F03C0
0E03C0
1C01C0
3C01C0
3801C0
3801C0
7801C0
7001C0
7003C0
700380
F00380
E00380
E00700
E00700
E00F00
E00E00
F01E00
703C00
7CF800
3FF000
1FC000
020000
ENDCHAR
STARTCHAR 00D4
ENCODING 212
SWIDTH 488 0
DWIDTH 19 0
BBX 18 33 3 -1
BITMAP
000400
000E00
001F00
007F00
00F380
004180
000000
001000
00FE00
03FF80
07C780
0F03C0
0E03C0
1C01C0
3C01C0
3801C0
3801C0
7801C0
7001C0
7003C0
700380
F00380
E00380
E00700
E00700
E00F00
E00E00
F01E00
703C00
7CF800
3FF000
1FC000
020000
ENDCHAR
STARTCHAR 00D5
ENCODING 213
SWIDTH 488 0
DWIDTH 19 0
BBX 18 32 3 -1
BITMAP
003040
00FCC0
01FFC0
018780
000000
000000
001000
00FE00
03FF80
07C780
0F03C0
0E03C0
1C01C0
3C01C0
3801C0
3801C0
7801C0
7001C0
7003C0
700380
F00380
E00380
E00700
E00700
E00F00
E00E00
F01E00
703C00
7CF800
3FF000
1FC000
020000
ENDCHAR
STARTCHAR 00D6
ENCODING 214
SWIDTH 488 0
DWIDTH 19 0
BBX 18 32 3 -1
BITMAP
0060C0
00F1C0
00F1C0
00E1C0
000000
000000
001000
00FE00
03FF80
07C780
0F03C0
0E03C0
1C01C0
3C01C0
3801C0
3801C0
7801C0
7001C0
7003C0
700380
F00380
E00380
E00700
E00700
E00F00
E00E00
F01E00
703C00
7CF800
3FF000
1FC000
020000
ENDCHAR
STARTCHAR 00D7
ENCODING 215
SWIDTH 488 0
DWIDTH 19 0
BBX 16 13 4 3
BITMAP
1806
380F
1C1E
1E3C
0FF0
07E0
03C0
07C0
1FE0
3CE0
7870
F078
E038
ENDCHAR
STARTCHAR 00D8
ENCODING 216
SWIDTH 488 0
DWIDTH 19 0
BBX 20 26 2 -1
BITMAP
001860
00FFF0
01FFE0
03C3C0
0783C0
0F03C0
0E07E0
1C0EE0
1C1CE0
381CE0
3839E0
3871C0
7871C0
70E1C0
71C1C0
738380
738380
770380
7E0700
7C0F00
7C0E00
781C00
7C7C00
7FF800
FFE000
C10000
ENDCHAR
STARTCHAR 00D9
ENCODING 217
SWIDTH 488 0
DWIDTH 19 0
BBX 19 33 3 -1
BITMAP
006000
00E000
00F000
007800
003C00
001C00
000800
000000
0E00E0
0E00E0
0E00E0
1E01E0
1C01C0
1C01C0
1C01C0
3C03C0
380380
380380
380380
780780
700700
700700
700700
F00F00
E00E00
E00E00
E01E00
F01C00
703C00
787800
3FF000
1FE000
020000
ENDCHAR
STARTCHAR 00DA
ENCODING 218
SWIDTH 488 0
DWIDTH 19 0
BBX 19 33 3 -1
BITMAP
000100
000380
000780
000F00
001E00
001800
001000
000000
0E00E0
0E00E0
0E00E0
1E01E0
1C01C0
1C01C0
1C01C0
3C03C0
380380
380380
380380
780780
700700
700700
700700
F00F00
E00E00
E00E00
E01E00
F01C00
703C00
787800
3FF000
1FE000
020000
ENDCHAR
STARTCHAR 00DB
ENCODING 219
SWIDTH 488 0
DWIDTH 19 0
BBX 19 33 3 -1
BITMAP
000400
000E00
003E00
007F00
00E380
00C180
000000
000000
0E00E0
0E00E0
0E00E0
1E01E0
1C01C0
1C01C0
1C01C0
3C03C0
380380
380380
380380
780780
700700
700700
700700
F00F00
E00E00
E00E00
E01E00
F01C00
703C00
787800
3FF000
1FE000
020000
ENDCHAR
STARTCHAR 00DC
ENCODING 220
SWIDTH 488 0
DWIDTH 19 0
BBX 19 32 3 -1
BITMAP
0061C0
00F1C0
00F3C0
00E1C0
000000
000000
000000
0E00E0
0E00E0
0E00E0
1E01E0
1C01C0
1C01C0
1C01C0
3C03C0
380380
380380
380380
780780
700700
700700
700700
F00F00
E00E00
E00E00
E01E00
F01C00
703C00
787800
3FF000
1FE000
020000
ENDCHAR
STARTCHAR 00DD
ENCODING 221
SWIDTH 488 0
DWIDTH 19 0
BBX 18 32 6 0
BITMAP
000C00
001C00
003E00
007800
00F000
00E000
000000
000000
E003C0
E00380
E00780
E00F00
700E00
701C00
703C00
703800
387000
38E000
39E000
1DC000
1F8000
1F0000
0E0000
0E0000
1E0000
1C0000
1C0000
1C0000
3C0000
380000
380000
380000
ENDCHAR
STARTCHAR 00DE
ENCODING 222
SWIDTH 488 0
DWIDTH 19 0
BBX 18 24 2 0
BITMAP
038000
078000
070000
070000
07FE00
07FF00
0FFF80
0E07C0
0E03C0
0E01C0
1E01C0
1C01C0
1C03C0
1C0380
3C0780
381F00
3FFE00
3FFC00
7FE000
700000
700000
700000
F00000
E00000
ENDCHAR
STARTCHAR 00DF
ENCODING 223
SWIDTH 488 0
DWIDTH 19 0
BBX 24 33 -4 -7
BITMAP
0000F8
0003FE
0007FF
00070F
000F07
000E07
001E07
001C0E
001C1E
001C3C
003C78
0038E0
0039E0
0039C0
0039C0
0079E0
0070F0
00707C
00703E
00701E
00F00E
00E00E
00E00E
00E01E
01E63C
01CFFC
01CFF0
01C000
03C000
038000
4F8000
7F0000
FE0000
ENDCHAR
STARTCHAR 00E0
ENCODING 224
SWIDTH 488 0
DWIDTH 19 0
BBX 17 27 3 0
BITMAP
002000
006000
00F000
007800
003C00
001E00
000C00
000000
000000
01FF80
07FF80
0FC700
1E0700
3C0700
780700
700E00
F00E00
F00E00
E00E00
E01E00
E01C00
E01C00
E01C00
F03C00
F8FC00
7FFC00
3F9C00
ENDCHAR
STARTCHAR 00E1
ENCODING 225
SWIDTH 488 0
DWIDTH 19 0
BBX 17 26 3 1
BITMAP
000300
000780
000F00
001C00
003800
001000
000000
000000
01FF80
07FF80
0FC700
1E0700
3C0700
780700
700E00
F00E00
F00E00
E00E00
E01E00
E01C00
E01C00
E01C00
F03C00
F8FC00
7FFC00
3F9C00
ENDCHAR
STARTCHAR 00E2
ENCODING 226
SWIDTH 488 0
DWIDTH 19 0
BBX 17 26 3 1
BITMAP
001C00
003C00
007E00
00E700
00C300
008000
000000
000000
01FF80
07FF80
0FC700
1E0700
3C0700
780700
700E00
F00E00
F00E00
E00E00
E01E00
E01C00
E01C00
E01C00
F03C00
F8FC00
7FFC00
3F9C00
ENDCHAR
STARTCHAR 00E3
ENCODING 227
SWIDTH 488 0
DWIDTH 19 0
BBX 18 25 3 1
BITMAP
00F8C0
01FFC0
038F80
000000
000000
000000
000000
01FF80
07FF80
0FC700
1E0700
3C0700
780700
700E00
F00E00
F00E00
E00E00
E01E00
E01C00
E01C00
E01C00
F03C00
F8FC00
7FFC00
3F9C00
ENDCHAR
STARTCHAR 00E4
ENCODING 228
SWIDTH 488 0
DWIDTH 19 0
BBX 18 25 3 0
BITMAP
00E3C0
01F3C0
00E3C0
004080
000000
000000
000000
01FF80
07FF80
0FC700
1E0700
3C0700
780700
700E00
F00E00
F00E00
E00E00
E01E00
E01C00
E01C00
E01C00
F03C00
F8FC00
7FFC00
3F9C00
ENDCHAR
STARTCHAR 00E5
ENCODING 229
SWIDTH 488 0
DWIDTH 19 0
BBX 17 27 3 0
BITMAP
003C00
007E00
006300
006300
006300
007E00
003C00
000000
000000
01FF80
07FF80
0FC700
1E0700
3C0700
780700
700E00
F00E00
F00E00
E00E00
E01E00
E01C00
E01C00
E01C00
F03C00
F8FC00
7FFC00
3F9C00
ENDCHAR
STARTCHAR 00E6
ENCODING 230
SWIDTH 488 0
DWIDTH 19 0
BBX 19 18 2 0
BITMAP
1F87C0
1FCFE0
19FDE0
00F8E0
00F0E0
00F0E0
00E1E0
07E3C0
1FFF80
3FFF00
78FC00
F1E000
E1E000
E1E000
E3E000
E7FB00
FE7F00
7C3F00
ENDCHAR
STARTCHAR 00E7
ENCODING 231
SWIDTH 488 0
DWIDTH 19 0
BBX 17 26 3 -7
BITMAP
001800
01FF80
07FF00
0F8300
1E0000
3C0000
780000
700000
F00000
E00000
E00000
E00000
E00000
E00000
E00000
F00000
7E3C00
3FFC00
1FF800
070000
060000
0F0000
038000
3F0000
3F0000
0C0000
ENDCHAR
STARTCHAR 00E8
ENCODING 232
SWIDTH 488 0
DWIDTH 19 0
BBX 17 27 3 0
BITMAP
002000
006000
00F000
007800
003C00
001E00
000C00
000000
000000
03FE00
07FF00
1F8F00
3E0780
3C0780
780700
700700
F01F00
EFFE00
FFF800
FF8000
E00000
E00000
E00000
F00000
7E3C00
3FFC00
1FF800
ENDCHAR
STARTCHAR 00E9
ENCODING 233
SWIDTH 488 0
DWIDTH 19 0
BBX 17 27 3 0
BITMAP
000200
000600
000F00
001E00
003C00
007000
002000
000000
000000
03FE00
07FF00
1F8F00
3E0780
3C0780
780700
700700
F01F00
EFFE00
FFF800
FF8000
E00000
E00000
E00000
F00000
7E3C00
3FFC00
1FF800
ENDCHAR
STARTCHAR 00EA
ENCODING 234
SWIDTH 488 0
DWIDTH 19 0
BBX 17 27 3 0
BITMAP
000800
001800
003C00
007E00
00EF00
01C700
000200
000000
000000
03FE00
07FF00
1F8F00
3E0780
3C0780
780700
700700
F01F00
EFFE00
FFF800
FF8000
E00000
E00000
E00000
F00000
7E3C00
3FFC00
1FF800
ENDCHAR
STARTCHAR 00EB
ENCODING 235
SWIDTH 488 0
DWIDTH 19 0
BBX 18 25 3 0
BITMAP
00E3C0
01E3C0
01E380
004100
000000
000000
000000
03FE00
07FF00
1F8F00
3E0780
3C0780
780700
700700
F01F00
EFFE00
FFF800
FF8000
E00000
E00000
E00000
F00000
7E3C00
3FFC00
1FF800
ENDCHAR
STARTCHAR 00EC
ENCODING 236
SWIDTH 488 0
DWIDTH 19 0
BBX 12 26 5 1
BITMAP
0600
0F00
0780
03C0
01C0
00C0
0000
0000
7F80
FF80
FF80
0700
0700
0700
0F00
0E00
0E00
0E00
0E00
1E00
1C00
1C00
1E00
0FF0
0FE0
07E0
ENDCHAR
STARTCHAR 00ED
ENCODING 237
SWIDTH 488 0
DWIDTH 19 0
BBX 13 26 5 1
BITMAP
0030
0078
01F0
03C0
0380
0300
0000
0000
7F80
FF80
FF80
0700
0700
0700
0F00
0E00
0E00
0E00
0E00
1E00
1C00
1C00
1E00
0FF0
0FE0
07E0
ENDCHAR
STARTCHAR 00EE
ENCODING 238
SWIDTH 488 0
DWIDTH 19 0
BBX 12 26 5 1
BITMAP
01C0
03C0
07E0
0E70
1C30
0800
0000
0000
7F80
FF80
FF80
0700
0700
0700
0F00
0E00
0E00
0E00
0E00
1E00
1C00
1C00
1E00
0FF0
0FE0
07E0
ENDCHAR
STARTCHAR 00EF
ENCODING 239
SWIDTH 488 0
DWIDTH 19 0
BBX 14 25 5 0
BITMAP
1E38
1E3C
1E38
0010
0000
0000
0000
7F80
FF80
FF80
0700
0700
0700
0F00
0E00
0E00
0E00
0E00
1E00
1C00
1C00
1E00
0FF0
0FE0
07E0
ENDCHAR
STARTCHAR 00F0
ENCODING 240
SWIDTH 488 0
DWIDTH 19 0
BBX 19 27 3 0
BITMAP
003000
007800
003860
003FE0
001FC0
00FE00
01FF00
008700
000700
000700
03F700
0FFF00
1FFF00
3C0F00
380700
780700
700700
F00700
F00F00
F00E00
E00E00
E01E00
F03C00
703800
78F800
3FF000
1FC000
ENDCHAR
STARTCHAR 00F1
ENCODING 241
SWIDTH 488 0
DWIDTH 19 0
BBX 17 26 3 0
BITMAP
000100
01F180
03FF80
073F00
020000
000000
000000
000000
0FFC00
1FFE00
1F3F00
1C0F00
1C0700
3C0700
380700
380700
380700
780E00
700E00
700E00
700E00
701E00
E01C00
E01C00
E01C00
E03C00
ENDCHAR
STARTCHAR 00F2
ENCODING 242
SWIDTH 488 0
DWIDTH 19 0
BBX 17 27 3 0
BITMAP
004000
00E000
00F000
007800
003800
001C00
000800
000000
000000
03FC00
07FE00
0F9F00
1E0700
3C0780
380780
780780
700780
700700
F00700
E00700
E00F00
E00E00
F01E00
F03C00
7DF800
7FF000
1FC000
ENDCHAR
STARTCHAR 00F3
ENCODING 243
SWIDTH 488 0
DWIDTH 19 0
BBX 17 27 3 0
BITMAP
000200
000600
000F00
001E00
003C00
007000
002000
000000
000000
03FC00
07FE00
0F9F00
1E0700
3C0780
380780
780780
700780
700700
F00700
E00700
E00F00
E00E00
F01E00
F03C00
7DF800
7FF000
1FC000
ENDCHAR
STARTCHAR 00F4
ENCODING 244
SWIDTH 488 0
DWIDTH 19 0
BBX 17 27 3 0
BITMAP
000800
001800
003C00
007E00
01EE00
01C700
000200
000000
000000
03FC00
07FE00
0F9F00
1E0700
3C0780
380780
780780
700780
700700
F00700
E00700
E00F00
E00E00
F01E00
F03C00
7DF800
7FF000
1FC000
ENDCHAR
STARTCHAR 00F5
ENCODING 245
SWIDTH 488 0
DWIDTH 19 0
BBX 17 25 3 1
BITMAP
01F180
03FF80
031F00
000000
000000
000000
000000
03FC00
07FE00
0F9F00
1E0700
3C0780
380780
780780
700780
700700
F00700
E00700
E00F00
E00E00
F01E00
F03C00
7DF800
7FF000
1FC000
ENDCHAR
STARTCHAR 00F6
ENCODING 246
SWIDTH 488 0
DWIDTH 19 0
BBX 17 25 3 0
BITMAP
01C380
01E780
01C780
008100
000000
000000
000000
03FC00
07FE00
0F9F00
1E0700
3C0780
380780
780780
700780
700700
F00700
E00700
E00F00
E00E00
F01E00
F03C00
7DF800
7FF000
1FC000
ENDCHAR
STARTCHAR 00F7
ENCODING 247
SWIDTH 488 0
DWIDTH 19 0
BBX 16 18 4 1
BITMAP
00E0
01E0
03E0
03E0
0180
0000
0000
FFFF
FFFE
FFFE
0000
0000
0000
0700
0F80
0F80
0F00
0400
ENDCHAR
STARTCHAR 00F8
ENCODING 248
SWIDTH 488 0
DWIDTH 19 0
BBX 20 20 1 -1
BITMAP
000030
00FF70
01FFE0
03E7C0
0783C0
0F07E0
0E0EE0
1C1CE0
1C39E0
1C71C0
38E1C0
39C1C0
3B83C0
3F0380
3E0780
3C0F00
3F7E00
7FFC00
E7F000
600000
ENDCHAR
STARTCHAR 00F9
ENCODING 249
SWIDTH 488 0
DWIDTH 19 0
BBX 17 27 3 0
BITMAP
008000
01C000
01E000
00F000
007000
003800
001000
000000
000000
1C0380
1C0780
3C0700
380700
380700
380F00
780E00
700E00
700E00
700E00
F01E00
F01C00
E01C00
F01C00
F03C00
78FC00
7FFC00
3F9C00
ENDCHAR
STARTCHAR 00FA
ENCODING 250
SWIDTH 488 0
DWIDTH 19 0
BBX 17 27 3 0
BITMAP
000400
000E00
001E00
003C00
007800
00F000
004000
000000
000000
1C0380
1C0780
3C0700
380700
380700
380F00
780E00
700E00
700E00
700E00
F01E00
F01C00
E01C00
F01C00
F03C00
78FC00
7FFC00
3F9C00
ENDCHAR
STARTCHAR 00FB
ENCODING 251
SWIDTH 488 0
DWIDTH 19 0
BBX 17 26 3 1
BITMAP
003800
007800
00FC00
01CE00
038600
010000
000000
000000
1C0380
1C0780
3C0700
380700
380700
380F00
780E00
700E00
700E00
700E00
F01E00
F01C00
E01C00
F01C00
F03C00
78FC00
7FFC00
3F9C00
ENDCHAR
STARTCHAR 00FC
ENCODING 252
SWIDTH 488 0
DWIDTH 19 0
BBX 17 25 3 0
BITMAP
03C700
03CF00
038F00
010200
000000
000000
000000
1C0380
1C0780
3C0700
380700
380700
380F00
780E00
700E00
700E00
700E00
F01E00
F01C00
E01C00
F01C00
F03C00
78FC00
7FFC00
3F9C00
ENDCHAR
STARTCHAR 00FD
ENCODING 253
SWIDTH 488 0
DWIDTH 19 0
BBX 22 34 -1 -7
BITMAP
000040
0000E0
0001E0
0003C0
000780
000F00
000400
000000
000000
03C03C
03C038
03C038
01C078
01C070
01C070
01C0E0
01C0E0
01E1E0
00E1C0
00E3C0
00E380
00E780
00F700
007F00
007E00
007C00
003C00
003800
007000
00E000
43C000
7F8000
FF0000
300000
ENDCHAR
STARTCHAR 00FE
ENCODING 254
SWIDTH 488 0
DWIDTH 19 0
BBX 19 33 1 -6
BITMAP
00E000
01E000
01C000
01C000
01C000
03C000
038000
038000
038000
07FF00
07FF80
07C7C0
0701C0
0F01E0
0E01E0
0E01E0
0E01E0
0E01C0
1C01C0
1C03C0
1C0380
1C0780
380F00
381F00
3CFE00
3FF800
7FE000
700000
700000
700000
F00000
E00000
E00000
ENDCHAR
STARTCHAR 00FF
ENCODING 255
SWIDTH 488 0
DWIDTH 19 0
BBX 22 32 -1 -7
BITMAP
003C70
003CF0
0038F0
001020
000000
000000
000000
03C03C
03C038
03C038
01C078
01C070
01C070
01C0E0
01C0E0
01E1E0
00E1C0
00E3C0
00E380
00E780
00F700
007F00
007E00
007C00
003C00
003800
007000
00E000
43C000
7F8000
FF0000
300000
ENDCHAR
STARTCHAR 0100
ENCODING 256
SWIDTH 488 0
DWIDTH 19 0
BBX 21 30 0 0
BITMAP
001FF8
001FF0
000000
000000
000000
000000
000F80
000F80
001F80
001B80
003B80
007380
007380
00E380
00E380
01C1C0
0181C0
0381C0
0701C0
0701C0
0E01C0
0FFFC0
1FFFC0
1FFFC0
3801C0
3801C0
7001C0
7001C0
E001C0
E001C0
ENDCHAR
STARTCHAR 0101
ENCODING 257
SWIDTH 488 0
DWIDTH 19 0
BBX 18 25 3 0
BITMAP
00FFC0
00FFC0
00FF80
000000
000000
000000
000000
01FF80
07FF80
0FC700
1E0700
3C0700
780700
700E00
F00E00
F00E00
E00E00
E01E00
E01C00
E01C00
E01C00
F03C00
F8FC00
7FFC00
3F9C00
ENDCHAR
STARTCHAR 0102
ENCODING 258
SWIDTH 488 0
DWIDTH 19 0
BBX 21 31 0 0
BITMAP
000C38
000C30
000FF0
0007E0
000000
000000
000000
000F80
000F80
001F80
001B80
003B80
007380
007380
00E380
00E380
01C1C0
0181C0
0381C0
0701C0
0701C0
0E01C0
0FFFC0
1FFFC0
1FFFC0
3801C0
3801C0
7001C0
7001C0
E001C0
E001C0
ENDCHAR
STARTCHAR 0103
ENCODING 259
SWIDTH 488 0
DWIDTH 19 0
BBX 18 26 3 0
BITMAP
0060C0
0061C0
007F80
007F00
001E00
000000
000000
000000
01FF80
07FF80
0FC700
1E0700
3C0700
780700
700E00
F00E00
F00E00
E00E00
E01E00
E01C00
E01C00
E01C00
F03C00
F8FC00
7FFC00
3F9C00
ENDCHAR
STARTCHAR 0104
ENCODING 260
SWIDTH 488 0
DWIDTH 19 0
BBX 18 30 0 -7
BITMAP
000F80
000F80
001F80
001B80
003B80
007380
007380
00E380
00E380
01C1C0
0181C0
0381C0
0701C0
0701C0
0E01C0
0FFFC0
1FFFC0
1FFFC0
3801C0
3801C0
7001C0
7001C0
E001C0
E001C0
0003C0
000700
000E00
000E00
000F80
000F80
ENDCHAR
STARTCHAR 0105
ENCODING 261
SWIDTH 488 0
DWIDTH 19 0
BBX 17 25 3 -7
BITMAP
01FF80
07FF80
0FC700
1E0700
3C0700
780700
700E00
F00E00
F00E00
E00E00
E01E00
E01C00
E01C00
E01C00
F03C00
F8FC00
7FFC00
3F9C00
003800
007000
00E000
00E000
00F800
00F800
002000
ENDCHAR
STARTCHAR 0106
ENCODING 262
SWIDTH 488 0
DWIDTH 19 0
BBX 19 33 3 -1
BITMAP
000180
000380
0007C0
000F00
001E00
001C00
000000
000600
007FC0
01FFE0
03E1E0
078040
0F0000
1E0000
1C0000
3C0000
380000
380000
700000
700000
700000
700000
700000
F00000
F00000
700000
700000
780000
780000
3F3C00
1FFC00
0FF800
010000
ENDCHAR
STARTCHAR 0107
ENCODING 263
SWIDTH 488 0
DWIDTH 19 0
BBX 17 26 3 1
BITMAP
000300
000780
000F00
001C00
003800
001000
000000
001800
01FF80
07FF00
0F8300
1E0000
3C0000
780000
700000
F00000
E00000
E00000
E00000
E00000
E00000
E00000
F00000
7E3C00
3FFC00
1FF800
ENDCHAR
STARTCHAR 0108
ENCODING 264
SWIDTH 488 0
DWIDTH 19 0
BBX 19 33 3 -1
BITMAP
000200
000700
000F80
001F80
0079C0
0020C0
000000
000600
007FC0
01FFE0
03E1E0
078040
0F0000
1E0000
1C0000
3C0000
380000
380000
700000
700000
700000
700000
700000
F00000
F00000
700000
700000
780000
780000
3F3C00
1FFC00
0FF800
010000
ENDCHAR
STARTCHAR 0109
ENCODING 265
SWIDTH 488 0
DWIDTH 19 0
BBX 17 26 3 1
BITMAP
001C00
003C00
007E00
00E700
00C300
008000
000000
001800
01FF80
07FF00
0F8300
1E0000
3C0000
780000
700000
F00000
E00000
E00000
E00000
E00000
E00000
E00000
F00000
7E3C00
3FFC00
1FF800
ENDCHAR
STARTCHAR 010A
ENCODING 266
SWIDTH 488 0
DWIDTH 19 0
BBX 19 32 3 -1
BITMAP
000E00
000F00
000F00
000E00
000000
000000
000600
007FC0
01FFE0
03E1E0
078040
0F0000
1E0000
1C0000
3C0000
380000
380000
700000
700000
700000
700000
700000
F00000
F00000
700000
700000
780000
780000
3F3C00
1FFC00
0FF800
010000
ENDCHAR
STARTCHAR 010B
ENCODING 267
SWIDTH 488 0
DWIDTH 19 0
BBX 17 26 3 0
BITMAP
000800
001E00
001E00
001C00
001800
000000
000000
001800
01FF80
07FF00
0F8300
1E0000
3C0000
780000
700000
F00000
E00000
E00000
E00000
E00000
E00000
E00000
F00000
7E3C00
3FFC00
1FF800
ENDCHAR
STARTCHAR 010C
ENCODING 268
SWIDTH 488 0
DWIDTH 19 0
BBX 19 33 3 -1
BITMAP
003040
0038E0
001FC0
001F80
000E00
000400
000000
000600
007FC0
01FFE0
03E1E0
078040
0F0000
1E0000
1C0000
3C0000
380000
380000
700000
700000
700000
700000
700000
F00000
F00000
700000
700000
780000
780000
3F3C00
1FFC00
0FF800
010000
ENDCHAR
STARTCHAR 010D
ENCODING 269
SWIDTH 488 0
DWIDTH 19 0
BBX 17 27 3 0
BITMAP
004000
00E180
007780
007E00
003C00
001800
000000
000000
001800
01FF80
07FF00
0F8300
1E0000
3C0000
780000
700000
F00000
E00000
E00000
E00000
E00000
E00000
E00000
F00000
7E3C00
3FFC00
1FF800
ENDCHAR
STARTCHAR 010E
ENCODING 270
SWIDTH 488 0
DWIDTH 19 0
BBX 19 32 1 0
BITMAP
002040
0071C0
003B80
001F00
000E00
000C00
000000
000000
03FE00
03FF80
07DFC0
0703C0
0701E0
0700E0
0F00E0
0E00E0
0E00E0
0E00E0
0E00E0
1C00E0
1C00E0
1C01E0
1C01C0
3C01C0
3803C0
380780
380780
780F00
703E00
7FFC00
7FF000
FFC000
ENDCHAR
STARTCHAR 010F
ENCODING 271
SWIDTH 488 0
DWIDTH 19 0
BBX 23 27 2 0
BITMAP
0001CE
00038E
00039C
00039C
000798
000718
000738
000730
000700
01FE00
07FE00
0F8E00
1E0E00
3C1E00
781C00
701C00
701C00
F03C00
E03800
E03800
E03800
E03800
E07000
F07000
F9F000
7FB800
3F3800
ENDCHAR
STARTCHAR 0110
ENCODING 272
SWIDTH 488 0
DWIDTH 19 0
BBX 17 24 3 0
BITMAP
07F800
07FE00
07BF00
070F00
0E0780
0E0380
0E0380
0E0380
1E0380
1C0380
FF8380
FF8380
FF8380
380780
380700
380700
780F00
700E00
701E00
703C00
F07800
FFF000
FFE000
FF8000
ENDCHAR
STARTCHAR 0111
ENCODING 273
SWIDTH 488 0
DWIDTH 19 0
BBX 21 27 3 0
BITMAP
0000E0
0001E0
0001C0
00FFF8
00FFF0
00FFF0
000380
000380
000380
01FF80
07FF00
0FC700
1E0700
3C0F00
380E00
780E00
700E00
701E00
F01C00
E01C00
E01C00
E01C00
F03C00
F03800
78FC00
7FFC00
3F9C00
ENDCHAR
STARTCHAR 0112
ENCODING 274
SWIDTH 488 0
DWIDTH 19 0
BBX 19 30 3 0
BITMAP
007FC0
00FFC0
000000
000000
000000
000000
07FFE0
07FFE0
07FFC0
070000
0F0000
0E0000
0E0000
0E0000
0E0000
1C0000
1FFE00
1FFE00
1FFE00
3C0000
380000
380000
380000
780000
700000
700000
700000
FFFE00
FFFC00
FFFC00
ENDCHAR
STARTCHAR 0113
ENCODING 275
SWIDTH 488 0
DWIDTH 19 0
BBX 17 25 3 0
BITMAP
01FF80
01FF80
01FF80
000000
000000
000000
000000
03FE00
07FF00
1F8F00
3E0780
3C0780
780700
700700
F01F00
EFFE00
FFF800
FF8000
E00000
E00000
E00000
F00000
7E3C00
3FFC00
1FF800
ENDCHAR
STARTCHAR 0114
ENCODING 276
SWIDTH 488 0
DWIDTH 19 0
BBX 19 31 3 0
BITMAP
0060E0
0071C0
003FC0
003F80
000000
000000
000000
07FFE0
07FFE0
07FFC0
070000
0F0000
0E0000
0E0000
0E0000
0E0000
1C0000
1FFE00
1FFE00
1FFE00
3C0000
380000
380000
380000
780000
700000
700000
700000
FFFE00
FFFC00
FFFC00
ENDCHAR
STARTCHAR 0115
ENCODING 277
SWIDTH 488 0
DWIDTH 19 0
BBX 17 26 3 0
BITMAP
00C180
00C380
00FF80
007F00
003C00
000000
000000
000000
03FE00
07FF00
1F8F00
3E0780
3C0780
780700
700700
F01F00
EFFE00
FFF800
FF8000
E00000
E00000
E00000
F00000
7E3C00
3FFC00
1FF800
ENDCHAR
STARTCHAR 0116
ENCODING 278
SWIDTH 488 0
DWIDTH 19 0
BBX 19 31 3 0
BITMAP
000E00
001E00
001E00
001E00
000000
000000
000000
07FFE0
07FFE0
07FFC0
070000
0F0000
0E0000
0E0000
0E0000
0E0000
1C0000
1FFE00
1FFE00
1FFE00
3C0000
380000
380000
380000
780000
700000
700000
700000
FFFE00
FFFC00
FFFC00
ENDCHAR
STARTCHAR 0117
ENCODING 279
SWIDTH 488 0
DWIDTH 19 0
BBX 17 25 3 1
BITMAP
003C00
003C00
003C00
001800
000000
000000
000000
03FE00
07FF00
1F8F00
3E0780
3C0780
780700
700700
F01F00
EFFE00
FFF800
FF8000
E00000
E00000
E00000
F00000
7E3C00
3FFC00
1FF800
ENDCHAR
STARTCHAR 0118
ENCODING 280
SWIDTH 488 0
DWIDTH 19 0
BBX 19 31 3 -7
BITMAP
07FFE0
07FFE0
07FFC0
070000
0F0000
0E0000
0E0000
0E0000
0E0000
1C0000
1FFE00
1FFE00
1FFE00
3C0000
380000
380000
380000
780000
700000
700000
700000
FFFE00
FFFC00
FFFC00
003800
007000
00E000
01C000
01F800
00F800
002000
ENDCHAR
STARTCHAR 0119
ENCODING 281
SWIDTH 488 0
DWIDTH 19 0
BBX 17 25 3 -7
BITMAP
03FE00
07FF00
1F8F00
3E0780
3C0780
780700
700700
F01F00
EFFE00
FFF800
FF8000
E00000
E00000
E00000
F00000
7E3C00
3FFC00
1FF800
007000
00E000
01C000
038000
03F000
01F000
004000
ENDCHAR
STARTCHAR 011A
ENCODING 282
SWIDTH 488 0
DWIDTH 19 0
BBX 19 32 3 0
BITMAP
003040
0031E0
003B80
001F00
000E00
000C00
000000
000000
07FFE0
07FFE0
07FFC0
070000
0F0000
0E0000
0E0000
0E0000
0E0000
1C0000
1FFE00
1FFE00
1FFE00
3C0000
380000
380000
380000
780000
700000
700000
700000
FFFE00
FFFC00
FFFC00
ENDCHAR
STARTCHAR 011B
ENCODING 283
SWIDTH 488 0
DWIDTH 19 0
BBX 17 27 3 0
BITMAP
004100
00C380
00E700
007E00
003C00
003800
001000
000000
000000
03FE00
07FF00
1F8F00
3E0780
3C0780
780700
700700
F01F00
EFFE00
FFF800
FF8000
E00000
E00000
E00000
F00000
7E3C00
3FFC00
1FF800
ENDCHAR
STARTCHAR 011C
ENCODING 284
SWIDTH 488 0
DWIDTH 19 0
BBX 19 33 3 -1
BITMAP
000600
000E00
001F00
003B80
007180
006180
000000
001E00
00FFC0
01FFE0
07E1C0
0F8000
0E0000
1E0000
3C0000
380000
380000
700000
700000
700000
F00700
E00700
E00700
E00F00
E00E00
E00E00
F00E00
701E00
781C00
7E3C00
3FFC00
0FFC00
010000
ENDCHAR
STARTCHAR 011D
ENCODING 285
SWIDTH 488 0
DWIDTH 19 0
BBX 20 33 1 -6
BITMAP
000300
000780
001FC0
003DC0
0030E0
000040
000000
000000
003FF0
00FFE0
03F0E0
07C0E0
0781E0
0F01C0
1E01C0
1C01C0
1C03C0
1C0380
3C0380
3C0380
3C0380
1C0700
1F3F00
1FFF00
07F700
000E00
000E00
001E00
003C00
707800
FFF800
FFE000
060000
ENDCHAR
STARTCHAR 011E
ENCODING 286
SWIDTH 488 0
DWIDTH 19 0
BBX 19 32 3 -1
BITMAP
0060E0
0071C0
003FC0
003F80
000000
000000
001E00
00FFC0
01FFE0
07E1C0
0F8000
0E0000
1E0000
3C0000
380000
380000
700000
700000
700000
F00700
E00700
E00700
E00F00
E00E00
E00E00
F00E00
701E00
781C00
7E3C00
3FFC00
0FFC00
010000
ENDCHAR
STARTCHAR 011F
ENCODING 287
SWIDTH 488 0
DWIDTH 19 0
BBX 20 33 1 -7
BITMAP
003870
003860
001DE0
001FC0
000700
000000
000000
000000
003FF0
00FFE0
03F0E0
07C0E0
0781E0
0F01C0
1E01C0
1C01C0
1C03C0
1C0380
3C0380
3C0380
3C0380
1C0700
1F3F00
1FFF00
07F700
000E00
000E00
001E00
003C00
707800
FFF800
FFE000
060000
ENDCHAR
STARTCHAR 0120
ENCODING 288
SWIDTH 488 0
DWIDTH 19 0
BBX 19 32 3 -1
BITMAP
000E00
001E00
001E00
001E00
000000
000000
001E00
00FFC0
01FFE0
07E1C0
0F8000
0E0000
1E0000
3C0000
380000
380000
700000
700000
700000
F00700
E00700
E00700
E00F00
E00E00
E00E00
F00E00
701E00
781C00
7E3C00
3FFC00
0FFC00
010000
ENDCHAR
STARTCHAR 0121
ENCODING 289
SWIDTH 488 0
DWIDTH 19 0
BBX 20 33 1 -7
BITMAP
000200
000780
000780
000700
000600
000000
000000
000000
003FF0
00FFE0
03F0E0
07C0E0
0781E0
0F01C0
1E01C0
1C01C0
1C03C0
1C0380
3C0380
3C0380
3C0380
1C0700
1F3F00
1FFF00
07F700
000E00
000E00
001E00
003C00
707800
FFF800
FFE000
060000
ENDCHAR
STARTCHAR 0122
ENCODING 290
SWIDTH 488 0
DWIDTH 19 0
BBX 19 32 3 -7
BITMAP
001E00
00FFC0
01FFE0
07E1C0
0F8000
0E0000
1E0000
3C0000
380000
380000
700000
700000
700000
F00700
E00700
E00700
E00F00
E00E00
E00E00
F00E00
701E00
781C00
7E3C00
3FFC00
0FFC00
010000
000000
070000
0F0000
1E0000
3C0000
300000
ENDCHAR
STARTCHAR 0123
ENCODING 291
SWIDTH 488 0
DWIDTH 19 0
BBX 20 34 1 -7
BITMAP
0000E0
0001E0
0003C0
000380
000700
000700
000000
000000
000000
003FF0
00FFE0
03F0E0
07C0E0
0781E0
0F01C0
1E01C0
1C01C0
1C03C0
1C0380
3C0380
3C0380
3C0380
1C0700
1F3F00
1FFF00
07F700
000E00
000E00
001E00
003C00
707800
FFF800
FFE000
060000
ENDCHAR
STARTCHAR 0124
ENCODING 292
SWIDTH 488 0
DWIDTH 19 0
BBX 20 32 2 0
BITMAP
000200
000700
001F00
003F80
0071C0
0060C0
000000
000000
070070
070070
070070
0F00F0
0E00E0
0E00E0
0E00E0
1E01E0
1C01C0
1C01C0
1FFFC0
3FFFC0
3FFF80
380380
380380
780780
700700
700700
700700
F00700
E00E00
E00E00
E00E00
E00E00
ENDCHAR
STARTCHAR 0125
ENCODING 293
SWIDTH 488 0
DWIDTH 19 0
BBX 17 32 2 0
BITMAP
006000
00F000
01F800
039C00
000800
000000
038000
038000
078000
070000
070000
070000
0F0000
0E0000
0FFC00
0FFE00
1F1F00
1C0700
1C0700
1C0780
3C0700
380700
380700
380700
380F00
780E00
700E00
700E00
701E00
F01C00
E01C00
E01C00
ENDCHAR
STARTCHAR 0126
ENCODING 294
SWIDTH 488 0
DWIDTH 19 0
BBX 20 24 3 0
BITMAP
0701C0
0701C0
0701C0
3FFFF0
3FFFF0
7FFFF0
0E0380
1E0780
1C0700
1C0700
1FFF00
3FFF00
3FFE00
380E00
380E00
781E00
701C00
701C00
701C00
703C00
E03800
E03800
E03800
E03800
ENDCHAR
STARTCHAR 0127
ENCODING 295
SWIDTH 488 0
DWIDTH 19 0
BBX 16 27 3 0
BITMAP
01C0
0380
0380
1FFE
1FFC
1FFC
0700
0700
0700
0FFC
0FFE
0F1F
0E0F
1E07
1C07
1C07
1C07
3C07
380F
380E
380E
780E
701E
701C
701C
F01C
E03C
ENDCHAR
STARTCHAR 0128
ENCODING 296
SWIDTH 488 0
DWIDTH 19 0
BBX 18 31 3 0
BITMAP
007040
00FCC0
01FFC0
018780
000000
000000
000000
07FFC0
07FFC0
07FF80
007800
007000
007000
007000
00F000
00E000
00E000
00E000
01E000
01C000
01C000
01C000
03C000
038000
038000
038000
078000
070000
FFF800
FFF800
FFF000
ENDCHAR
STARTCHAR 0129
ENCODING 297
SWIDTH 488 0
DWIDTH 19 0
BBX 14 25 5 1
BITMAP
0F8C
1FFC
18F8
0000
0000
0000
0000
7F80
FF80
FF80
0700
0700
0700
0F00
0E00
0E00
0E00
0E00
1E00
1C00
1C00
1E00
0FF0
0FE0
07E0
ENDCHAR
STARTCHAR 012A
ENCODING 298
SWIDTH 488 0
DWIDTH 19 0
BBX 18 30 3 0
BITMAP
00FFC0
00FFC0
000000
000000
000000
000000
07FFC0
07FFC0
07FF80
007800
007000
007000
007000
00F000
00E000
00E000
00E000
01E000
01C000
01C000
01C000
03C000
038000
038000
038000
078000
070000
FFF800
FFF800
FFF000
ENDCHAR
STARTCHAR 012B
ENCODING 299
SWIDTH 488 0
DWIDTH 19 0
BBX 14 25 5 0
BITMAP
0FFC
0FFC
0FF8
0000
0000
0000
0000
7F80
FF80
FF80
0700
0700
0700
0F00
0E00
0E00
0E00
0E00
1E00
1C00
1C00
1E00
0FF0
0FE0
07E0
ENDCHAR
STARTCHAR 012C
ENCODING 300
SWIDTH 488 0
DWIDTH 19 0
BBX 18 31 3 0
BITMAP
0061C0
006180
007F80
003F00
000000
000000
000000
07FFC0
07FFC0
07FF80
007800
007000
007000
007000
00F000
00E000
00E000
00E000
01E000
01C000
01C000
01C000
03C000
038000
038000
038000
078000
070000
FFF800
FFF800
FFF000
ENDCHAR
STARTCHAR 012D
ENCODING 301
SWIDTH 488 0
DWIDTH 19 0
BBX 14 26 5 0
BITMAP
060C
061C
0778
07F0
01C0
0000
0000
0000
7F80
FF80
FF80
0700
0700
0700
0F00
0E00
0E00
0E00
0E00
1E00
1C00
1C00
1E00
0FF0
0FE0
07E0
ENDCHAR
STARTCHAR 012E
ENCODING 302
SWIDTH 488 0
DWIDTH 19 0
BBX 18 31 3 -7
BITMAP
07FFC0
07FFC0
07FF80
007800
007000
007000
007000
00F000
00E000
00E000
00E000
01E000
01C000
01C000
01C000
03C000
038000
038000
038000
078000
070000
FFF800
FFF800
FFF000
0E0000
1C0000
380000
700000
7E0000
7E0000
080000
ENDCHAR
STARTCHAR 012F
ENCODING 303
SWIDTH 488 0
DWIDTH 19 0
BBX 12 33 5 -7
BITMAP
01C0
03E0
07E0
03C0
03C0
0000
0000
0000
7F80
FF80
FF80
0700
0700
0700
0F00
0E00
0E00
0E00
0E00
1E00
1C00
1C00
1E00
0FF0
0FE0
07E0
01C0
0380
0700
0700
07C0
07C0
0100
ENDCHAR
STARTCHAR 0130
ENCODING 304
SWIDTH 488 0
DWIDTH 19 0
BBX 18 31 3 0
BITMAP
001C00
001E00
001E00
001C00
000000
000000
000000
07FFC0
07FFC0
07FF80
007800
007000
007000
007000
00F000
00E000
00E000
00E000
01E000
01C000
01C000
01C000
03C000
038000
038000
038000
078000
070000
FFF800
FFF800
FFF000
ENDCHAR
STARTCHAR 0131
ENCODING 305
SWIDTH 488 0
DWIDTH 19 0
BBX 12 18 5 0
BITMAP
7F80
FF80
FF80
0700
0700
0700
0F00
0E00
0E00
0E00
0E00
1E00
1C00
1C00
1E00
0FF0
0FE0
07E0
ENDCHAR
STARTCHAR 0132
ENCODING 306
SWIDTH 488 0
DWIDTH 19 0
BBX 22 25 1 -1
BITMAP
07801C
07001C
07003C
070038
0F0038
0E0038
0E0078
0E0070
1E0070
1C0070
1C00F0
1C00E0
1C00E0
3800E0
3801E0
3801C0
3801C0
7801C0
7003C0
700380
710780
F38F00
E7FF00
E3FC00
004000
ENDCHAR
STARTCHAR 0133
ENCODING 307
SWIDTH 488 0
DWIDTH 19 0
BBX 17 33 4 -7
BITMAP
030300
078780
078F80
078780
070700
000000
000000
000000
0E0E00
0E0E00
1E1E00
1C1C00
1C1C00
1C1C00
1C3C00
383800
383800
383800
387800
787000
707000
707000
707000
F0F000
E0E000
E0E000
01E000
01C000
01C000
27C000
3F8000
7F0000
180000
ENDCHAR
STARTCHAR 0134
ENCODING 308
SWIDTH 488 0
DWIDTH 19 0
BBX 18 33 3 -1
BITMAP
000200
000700
000F80
001F80
0079C0
0020C0
000000
000000
01FFC0
01FFC0
01FFC0
0003C0
000380
000380
000380
000380
000780
000700
000700
000700
000F00
000E00
000E00
000E00
001E00
001C00
001C00
003C00
407800
F1F800
FFF000
7FC000
040000
ENDCHAR
STARTCHAR 0135
ENCODING 309
SWIDTH 488 0
DWIDTH 19 0
BBX 18 32 1 -6
BITMAP
000700
000F00
001F80
0039C0
0070C0
002000
000000
000000
01FF80
01FF80
03FF80
000380
000700
000700
000700
000700
000F00
000E00
000E00
000E00
001E00
001C00
001C00
001C00
003C00
003800
003800
007800
007000
61F000
FFE000
FF8000
ENDCHAR
STARTCHAR 0136
ENCODING 310
SWIDTH 488 0
DWIDTH 19 0
BBX 20 31 2 -7
BITMAP
0780F0
0701E0
0703C0
070380
0F0700
0E0E00
0E3C00
0E7800
1EF000
1DE000
1FC000
1F8000
3FC000
39E000
38E000
38F000
387800
783800
703C00
701C00
701E00
F00E00
E00F00
E00F00
000000
000000
070000
070000
1F0000
3E0000
180000
ENDCHAR
STARTCHAR 0137
ENCODING 311
SWIDTH 488 0
DWIDTH 19 0
BBX 18 34 3 -7
BITMAP
038000
038000
078000
070000
070000
070000
0F0000
0E0000
0E0000
0E03C0
1E0780
1C1E00
1C3C00
1C7800
3CF000
3BC000
3F8000
3F8000
7FC000
73C000
71E000
70F000
707000
E07800
E03C00
E01C00
E01E00
000000
000000
070000
0F0000
1E0000
3C0000
300000
ENDCHAR
STARTCHAR 0138
ENCODING 312
SWIDTH 488 0
DWIDTH 19 0
BBX 18 18 3 0
BITMAP
0E03C0
1E0780
1C1E00
1C3C00
1C7800
3CF000
3BC000
3F8000
3F0000
7F8000
73C000
71E000
70F000
707800
E07800
E03C00
E03C00
E01E00
ENDCHAR
STARTCHAR 0139
ENCODING 313
SWIDTH 488 0
DWIDTH 19 0
BBX 14 32 2 0
BITMAP
0008
001C
003C
0078
00E0
00C0
0080
0000
0380
0780
0700
0700
0700
0700
0F00
0E00
0E00
0E00
1E00
1C00
1C00
1C00
3C00
3800
3800
3800
7800
7000
7000
7FFC
FFFC
FFFC
ENDCHAR
STARTCHAR 013A
ENCODING 314
SWIDTH 488 0
DWIDTH 19 0
BBX 11 32 7 0
BITMAP
0040
01E0
07C0
0600
0000
0000
FF80
FF80
0700
0700
0700
0F00
0E00
0E00
0E00
1E00
1C00
1C00
1C00
3C00
3800
3800
3800
7800
7000
7000
7000
7000
7000
78C0
7FC0
3FC0
ENDCHAR
STARTCHAR 013B
ENCODING 315
SWIDTH 488 0
DWIDTH 19 0
BBX 14 31 2 -7
BITMAP
0380
0780
0700
0700
0700
0700
0F00
0E00
0E00
0E00
1E00
1C00
1C00
1C00
3C00
3800
3800
3800
7800
7000
7000
7FFC
FFFC
FFFC
0000
0000
0380
0780
0F00
1E00
1800
ENDCHAR
STARTCHAR 013C
ENCODING 316
SWIDTH 488 0
DWIDTH 19 0
BBX 10 34 7 -7
BITMAP
7F80
FF80
FF00
0700
0700
0700
0F00
0E00
0E00
0E00
1E00
1C00
1C00
1C00
3C00
3800
3800
3800
7800
7000
7000
7000
7000
7000
78C0
7FC0
3FC0
0000
0000
1C00
1C00
7800
F800
C000
ENDCHAR
STARTCHAR 013D
ENCODING 317
SWIDTH 488 0
DWIDTH 19 0
BBX 15 24 2 0
BITMAP
038E
078E
070C
071C
071C
0718
0F18
0E38
0E00
0E00
1E00
1C00
1C00
1C00
3C00
3800
3800
3800
7800
7000
7000
7FFC
FFFC
FFFC
ENDCHAR
STARTCHAR 013E
ENCODING 318
SWIDTH 488 0
DWIDTH 19 0
BBX 15 27 7 0
BITMAP
7F8E
FF9C
FF1C
071C
0718
0738
0F38
0E30
0E00
0E00
1E00
1C00
1C00
1C00
3C00
3800
3800
3800
7800
7000
7000
7000
7000
7000
78C0
7FC0
3FC0
ENDCHAR
STARTCHAR 013F
ENCODING 319
SWIDTH 488 0
DWIDTH 19 0
BBX 16 24 2 0
BITMAP
0380
0780
0700
0700
0700
0700
0F00
0E00
0E00
0E06
1E0F
1C0F
1C0E
1C00
3C00
3800
3800
3800
7800
7000
7000
7FFC
FFFC
FFFC
ENDCHAR
STARTCHAR 0140
ENCODING 320
SWIDTH 488 0
DWIDTH 19 0
BBX 15 27 7 0
BITMAP
7F80
FF80
FF00
0700
0700
0700
0F00
0E00
0E00
0E00
1E00
1C00
1C06
1C0E
3C1E
380E
3800
3800
7800
7000
7000
7000
7000
7000
78C0
7FC0
3FC0
ENDCHAR
STARTCHAR 0141
ENCODING 321
SWIDTH 488 0
DWIDTH 19 0
BBX 14 24 2 0
BITMAP
0380
0380
0380
0780
0700
0700
0700
0F00
0E30
0EF0
0FE0
1F80
7E00
FC00
DC00
1C00
3C00
3800
3800
3800
7800
7FFC
7FFC
7FFC
ENDCHAR
STARTCHAR 0142
ENCODING 322
SWIDTH 488 0
DWIDTH 19 0
BBX 11 27 6 0
BITMAP
3FC0
7FC0
7F80
0380
0380
0380
0780
0700
0700
0700
0FC0
0FE0
1F80
7E00
FE00
7C00
1C00
1C00
3C00
3800
3800
3800
3800
3800
3C60
3FE0
1FE0
ENDCHAR
STARTCHAR 0143
ENCODING 323
SWIDTH 488 0
DWIDTH 19 0
BBX 20 32 2 0
BITMAP
000080
0001C0
0003C0
000780
000F00
000C00
000800
000000
078070
078070
078070
0FC070
0FC0E0
0FC0E0
0EC0E0
0CE0E0
1CE0C0
1CE1C0
1C61C0
1871C0
3871C0
383380
383380
303B80
703B80
703F00
701F00
701F00
E01F00
E01E00
E01E00
E01E00
ENDCHAR
STARTCHAR 0144
ENCODING 324
SWIDTH 488 0
DWIDTH 19 0
BBX 16 27 3 0
BITMAP
0002
0006
000F
001E
003C
0070
0020
0000
0000
0FFC
1FFE
1F3F
1C0F
1C07
3C07
3807
3807
3807
780E
700E
700E
700E
701E
E01C
E01C
E01C
E03C
ENDCHAR
STARTCHAR 0145
ENCODING 325
SWIDTH 488 0
DWIDTH 19 0
BBX 20 31 2 -7
BITMAP
078070
078070
078070
0FC070
0FC0E0
0FC0E0
0EC0E0
0CE0E0
1CE0C0
1CE1C0
1C61C0
1871C0
3871C0
383380
383380
303B80
703B80
703F00
701F00
701F00
E01F00
E01E00
E01E00
E01E00
000000
000000
070000
070000
1F0000
3E0000
180000
ENDCHAR
STARTCHAR 0146
ENCODING 326
SWIDTH 488 0
DWIDTH 19 0
BBX 16 25 3 -7
BITMAP
0FFC
1FFE
1F3F
1C0F
1C07
3C07
3807
3807
3807
780E
700E
700E
700E
701E
E01C
E01C
E01C
E03C
0000
0000
0E00
0E00
3E00
7C00
3000
ENDCHAR
STARTCHAR 0147
ENCODING 327
SWIDTH 488 0
DWIDTH 19 0
BBX 20 32 2 0
BITMAP
003040
0038E0
001FC0
001F80
000E00
000400
000000
000000
078070
078070
078070
0FC070
0FC0E0
0FC0E0
0EC0E0
0CE0E0
1CE0C0
1CE1C0
1C61C0
1871C0
3871C0
383380
383380
303B80
703B80
703F00
701F00
701F00
E01F00
E01E00
E01E00
E01E00
ENDCHAR
STARTCHAR 0148
ENCODING 328
SWIDTH 488 0
DWIDTH 19 0
BBX 16 27 3 0
BITMAP
0081
01C3
00EF
007E
0078
0030
0000
0000
0000
0FFC
1FFE
1F3F
1C0F
1C07
3C07
3807
3807
3807
780E
700E
700E
700E
701E
E01C
E01C
E01C
E03C
ENDCHAR
STARTCHAR 0149
ENCODING 329
SWIDTH 488 0
DWIDTH 19 0
BBX 16 27 3 0
BITMAP
0F00
0E00
0E00
1E00
1C00
3800
3800
0000
0000
0FFC
1FFE
1F3F
1C0F
1C07
3C07
3807
3807
3807
780E
700E
700E
700E
701E
E01C
E01C
E01C
E03C
ENDCHAR
STARTCHAR 014A
ENCODING 330
SWIDTH 488 0
DWIDTH 19 0
BBX 20 31 2 -7
BITMAP
078070
078070
078070
0FC070
0FC0E0
0FC0E0
0EE0E0
0CE0E0
1CE0C0
1C61C0
1C71C0
1871C0
3871C0
383380
383B80
303B80
703B80
701F00
701F00
701F00
E01F00
E00E00
E00E00
E00E00
000E00
001C00
001C00
003C00
01F800
01F000
008000
ENDCHAR
STARTCHAR 014B
ENCODING 331
SWIDTH 488 0
DWIDTH 19 0
BBX 16 25 3 -7
BITMAP
0FFC
1FFE
1F3F
1C0F
1C07
3C07
3807
3807
3807
780E
700E
700E
700E
701E
E01C
E01C
E01C
E03C
0038
0038
0078
00F0
07F0
07E0
0100
ENDCHAR
STARTCHAR 014C
ENCODING 332
SWIDTH 488 0
DWIDTH 19 0
BBX 18 31 3 -1
BITMAP
00FFC0
00FFC0
000000
000000
000000
001000
00FE00
03FF80
07C780
0F03C0
0E03C0
1C01C0
3C01C0
3801C0
3801C0
7801C0
7001C0
7003C0
700380
F00380
E00380
E00700
E00700
E00F00
E00E00
F01E00
703C00
7CF800
3FF000
1FC000
020000
ENDCHAR
STARTCHAR 014D
ENCODING 333
SWIDTH 488 0
DWIDTH 19 0
BBX 17 25 3 0
BITMAP
01FF80
01FF80
01FF80
000000
000000
000000
000000
03FC00
07FE00
0F9F00
1E0700
3C0780
380780
780780
700780
700700
F00700
E00700
E00F00
E00E00
F01E00
F03C00
7DF800
7FF000
1FC000
ENDCHAR
STARTCHAR 014E
ENCODING 334
SWIDTH 488 0
DWIDTH 19 0
BBX 18 32 3 -1
BITMAP
0060C0
0071C0
007F80
003F00
000000
000000
001000
00FE00
03FF80
07C780
0F03C0
0E03C0
1C01C0
3C01C0
3801C0
3801C0
7801C0
7001C0
7003C0
700380
F00380
E00380
E00700
E00700
E00F00
E00E00
F01E00
703C00
7CF800
3FF000
1FC000
020000
ENDCHAR
STARTCHAR 014F
ENCODING 335
SWIDTH 488 0
DWIDTH 19 0
BBX 17 26 3 0
BITMAP
00C180
00C380
00FF00
007F00
003C00
000000
000000
000000
03FC00
07FE00
0F9F00
1E0700
3C0780
380780
780780
700780
700700
F00700
E00700
E00F00
E00E00
F01E00
F03C00
7DF800
7FF000
1FC000
ENDCHAR
STARTCHAR 0150
ENCODING 336
SWIDTH 488 0
DWIDTH 19 0
BBX 20 33 3 -1
BITMAP
000820
001C70
003CF0
0079C0
00E380
00C300
000000
001000
00FE00
03FF80
07C780
0F03C0
0E03C0
1C01C0
3C01C0
3801C0
3801C0
7801C0
7001C0
7003C0
700380
F00380
E00380
E00700
E00700
E00F00
E00E00
F01E00
703C00
7CF800
3FF000
1FC000
020000
ENDCHAR
STARTCHAR 0151
ENCODING 337
SWIDTH 488 0
DWIDTH 19 0
BBX 18 27 3 0
BITMAP
000080
0031C0
0071C0
00E380
01C700
038E00
010400
000000
000000
03FC00
07FE00
0F9F00
1E0700
3C0780
380780
780780
700780
700700
F00700
E00700
E00F00
E00E00
F01E00
F03C00
7DF800
7FF000
1FC000
ENDCHAR
STARTCHAR 0152
ENCODING 338
SWIDTH 488 0
DWIDTH 19 0
BBX 21 24 2 0
BITMAP
00FFF8
03FFF8
07FFF8
0F0F00
0E0E00
1C0E00
1C0E00
380E00
381C00
781C00
701FC0
701FC0
703F80
703800
F03800
F03800
F07000
F07000
F07000
707000
78E000
7FFF80
3FFF00
1FFF00
ENDCHAR
STARTCHAR 0153
ENCODING 339
SWIDTH 488 0
DWIDTH 19 0
BBX 20 18 2 0
BITMAP
07C7E0
0FEFE0
1EFEE0
3C7CF0
3878E0
7870E0
7070E0
7071C0
F07F80
F0FF00
E0FC00
E0E000
E0E000
E1E000
F3F000
77FB00
7F7F00
3E3F00
ENDCHAR
STARTCHAR 0154
ENCODING 340
SWIDTH 488 0
DWIDTH 19 0
BBX 19 32 2 0
BITMAP
000180
000380
000780
000F00
001E00
001C00
000000
000000
07FF00
07FF80
078FC0
0703C0
0F01C0
0E01E0
0E01C0
0E01C0
1E01C0
1C03C0
1C0780
1C1F00
3FFE00
3FF800
3FF000
383800
383800
703C00
701C00
701C00
701E00
F00E00
E00E00
E00E00
ENDCHAR
STARTCHAR 0155
ENCODING 341
SWIDTH 488 0
DWIDTH 19 0
BBX 16 26 4 1
BITMAP
0006
000F
001E
0038
0070
0020
0000
0000
07FF
1FFF
1F86
1C00
1C00
3C00
3800
3800
3800
7800
7000
7000
7000
7000
F000
E000
E000
E000
ENDCHAR
STARTCHAR 0156
ENCODING 342
SWIDTH 488 0
DWIDTH 19 0
BBX 19 31 2 -7
BITMAP
07FF00
07FF80
078FC0
0703C0
0F01C0
0E01E0
0E01C0
0E01C0
1E01C0
1C03C0
1C0780
1C1F00
3FFE00
3FF800
3FF000
383800
383800
703C00
701C00
701C00
701E00
F00E00
E00E00
E00E00
000000
000000
070000
070000
1F0000
3E0000
180000
ENDCHAR
STARTCHAR 0157
ENCODING 343
SWIDTH 488 0
DWIDTH 19 0
BBX 21 25 -1 -7
BITMAP
003FF8
00FFF8
00FC30
00E000
00E000
01E000
01C000
01C000
01C000
03C000
038000
038000
038000
038000
078000
070000
070000
070000
000000
000000
0E0000
1E0000
7C0000
F80000
600000
ENDCHAR
STARTCHAR 0158
ENCODING 344
SWIDTH 488 0
DWIDTH 19 0
BBX 19 32 2 0
BITMAP
004080
00E380
007700
003E00
001C00
001800
000000
000000
07FF00
07FF80
078FC0
0703C0
0F01C0
0E01E0
0E01C0
0E01C0
1E01C0
1C03C0
1C0780
1C1F00
3FFE00
3FF800
3FF000
383800
383800
703C00
701C00
701C00
701E00
F00E00
E00E00
E00E00
ENDCHAR
STARTCHAR 0159
ENCODING 345
SWIDTH 488 0
DWIDTH 19 0
BBX 16 27 4 0
BITMAP
0001
01C3
00E7
007E
003C
0038
0000
0000
0000
07FF
1FFF
1F86
1C00
1C00
3C00
3800
3800
3800
7800
7000
7000
7000
7000
F000
E000
E000
E000
ENDCHAR
STARTCHAR 015A
ENCODING 346
SWIDTH 488 0
DWIDTH 19 0
BBX 19 33 2 -1
BITMAP
000180
000380
000780
000F00
001E00
001C00
000000
001E00
00FFC0
01FFE0
03E1C0
078000
070000
070000
0F0000
070000
070000
07C000
03E000
01F800
007E00
003E00
000F00
000700
000700
000700
000700
000F00
401E00
787E00
FFFC00
7FF000
030000
ENDCHAR
STARTCHAR 015B
ENCODING 347
SWIDTH 488 0
DWIDTH 19 0
BBX 16 27 3 0
BITMAP
0002
0006
000F
001E
003C
0070
0020
0000
0000
03FF
07FF
0F87
0E00
0E00
0E00
0F00
0F80
07F0
01F8
007C
003C
001C
001C
403C
70F8
FFF8
7FE0
ENDCHAR
STARTCHAR 015C
ENCODING 348
SWIDTH 488 0
DWIDTH 19 0
BBX 19 33 2 -1
BITMAP
000200
000700
001F00
003F80
0071C0
0060C0
000000
001E00
00FFC0
01FFE0
03E1C0
078000
070000
070000
0F0000
070000
070000
07C000
03E000
01F800
007E00
003E00
000F00
000700
000700
000700
000700
000F00
401E00
787E00
FFFC00
7FF000
030000
ENDCHAR
STARTCHAR 015D
ENCODING 349
SWIDTH 488 0
DWIDTH 19 0
BBX 16 26 3 1
BITMAP
001C
003C
007E
00E7
01C3
0080
0000
0000
03FF
07FF
0F87
0E00
0E00
0E00
0F00
0F80
07F0
01F8
007C
003C
001C
001C
403C
70F8
FFF8
7FE0
ENDCHAR
STARTCHAR 015E
ENCODING 350
SWIDTH 488 0
DWIDTH 19 0
BBX 19 32 2 -7
BITMAP
001E00
00FFC0
01FFE0
03E1C0
078000
070000
070000
0F0000
070000
070000
07C000
03E000
01F800
007E00
003E00
000F00
000700
000700
000700
000700
000F00
401E00
787E00
FFFC00
7FF000
030000
070000
078000
038000
178000
3F0000
080000
ENDCHAR
STARTCHAR 015F
ENCODING 351
SWIDTH 488 0
DWIDTH 19 0
BBX 16 25 3 -7
BITMAP
03FF
07FF
0F87
0E00
0E00
0E00
0F00
0F80
07F0
01F8
007C
003C
001C
001C
403C
70F8
FFF8
7FE0
0600
0E00
0F00
0700
3F00
7E00
1800
ENDCHAR
STARTCHAR 0160
ENCODING 352
SWIDTH 488 0
DWIDTH 19 0
BBX 19 33 2 -1
BITMAP
001060
0038E0
001FC0
000F80
000F00
000600
000000
001E00
00FFC0
01FFE0
03E1C0
078000
070000
070000
0F0000
070000
070000
07C000
03E000
01F800
007E00
003E00
000F00
000700
000700
000700
000700
000F00
401E00
787E00
FFFC00
7FF000
030000
ENDCHAR
STARTCHAR 0161
ENCODING 353
SWIDTH 488 0
DWIDTH 19 0
BBX 17 27 3 0
BITMAP
004080
00E180
007780
003F00
003E00
001800
000000
000000
000000
03FF00
07FF00
0F8700
0E0000
0E0000
0E0000
0F0000
0F8000
07F000
01F800
007C00
003C00
001C00
001C00
403C00
70F800
FFF800
7FE000
ENDCHAR
STARTCHAR 0162
ENCODING 354
SWIDTH 488 0
DWIDTH 19 0
BBX 19 31 4 -7
BITMAP
3FFFE0
3FFFE0
3FFFC0
00E000
00E000
00E000
00E000
01E000
01C000
01C000
01C000
03C000
038000
038000
038000
078000
070000
070000
070000
0F0000
0E0000
0E0000
0E0000
1E0000
180000
180000
3C0000
1C0000
FC0000
F80000
600000
ENDCHAR
STARTCHAR 0163
ENCODING 355
SWIDTH 488 0
DWIDTH 19 0
BBX 14 31 5 -7
BITMAP
0080
0780
0700
0700
0700
0F00
FFFC
FFFC
FFFC
1E00
1C00
1C00
1C00
3C00
3800
3800
3800
3800
7800
7800
7800
3EF0
3FF0
1FF0
0600
0C00
0E00
0700
7E00
7E00
1000
ENDCHAR
STARTCHAR 0164
ENCODING 356
SWIDTH 488 0
DWIDTH 19 0
BBX 17 32 6 0
BITMAP
030400
038E00
01FC00
01F800
00E000
004000
000000
000000
FFFF80
FFFF80
FFFF00
038000
038000
038000
038000
078000
070000
070000
070000
0F0000
0E0000
0E0000
0E0000
1E0000
1C0000
1C0000
1C0000
3C0000
380000
380000
380000
780000
ENDCHAR
STARTCHAR 0165
ENCODING 357
SWIDTH 488 0
DWIDTH 19 0
BBX 16 27 5 0
BITMAP
0007
000E
000E
000E
038C
039C
079C
0700
0700
7FFE
7FFE
FFFC
0E00
0E00
1E00
1C00
1C00
1C00
3C00
3C00
3800
3800
3800
3800
3E70
1FF0
1FF0
ENDCHAR
STARTCHAR 0166
ENCODING 358
SWIDTH 488 0
DWIDTH 19 0
BBX 17 24 6 0
BITMAP
FFFF80
FFFF80
FFFF00
038000
038000
038000
038000
078000
070000
070000
7FF000
7FE000
FFE000
0E0000
0E0000
1E0000
1C0000
1C0000
1C0000
3C0000
380000
380000
380000
780000
ENDCHAR
STARTCHAR 0167
ENCODING 359
SWIDTH 488 0
DWIDTH 19 0
BBX 16 24 4 0
BITMAP
0040
01C0
01C0
03C0
0380
0380
3FFF
3FFF
7FFE
0700
0700
0F00
0E00
FFFC
FFFC
FFFC
1C00
1C00
1C00
1C00
1C00
1F38
1FF8
0FF8
ENDCHAR
STARTCHAR 0168
ENCODING 360
SWIDTH 488 0
DWIDTH 19 0
BBX 19 32 3 -1
BITMAP
007040
00FCC0
01FFC0
018780
000000
000000
000000
0E00E0
0E00E0
0E00E0
1E01E0
1C01C0
1C01C0
1C01C0
3C03C0
380380
380380
380380
780780
700700
700700
700700
F00F00
E00E00
E00E00
E01E00
F01C00
703C00
787800
3FF000
1FE000
020000
ENDCHAR
STARTCHAR 0169
ENCODING 361
SWIDTH 488 0
DWIDTH 19 0
BBX 17 26 3 0
BITMAP
000100
01F180
03FF80
073F00
020000
000000
000000
000000
1C0380
1C0780
3C0700
380700
380700
380F00
780E00
700E00
700E00
700E00
F01E00
F01C00
E01C00
F01C00
F03C00
78FC00
7FFC00
3F9C00
ENDCHAR
STARTCHAR 016A
ENCODING 362
SWIDTH 488 0
DWIDTH 19 0
BBX 19 31 3 -1
BITMAP
00FFC0
00FF80
000000
000000
000000
000000
0E00E0
0E00E0
0E00E0
1E01E0
1C01C0
1C01C0
1C01C0
3C03C0
380380
380380
380380
780780
700700
700700
700700
F00F00
E00E00
E00E00
E01E00
F01C00
703C00
787800
3FF000
1FE000
020000
ENDCHAR
STARTCHAR 016B
ENCODING 363
SWIDTH 488 0
DWIDTH 19 0
BBX 17 25 3 0
BITMAP
01FF00
03FF00
03FF00
000000
000000
000000
000000
1C0380
1C0780
3C0700
380700
380700
380F00
780E00
700E00
700E00
700E00
F01E00
F01C00
E01C00
F01C00
F03C00
78FC00
7FFC00
3F9C00
ENDCHAR
STARTCHAR 016C
ENCODING 364
SWIDTH 488 0
DWIDTH 19 0
BBX 19 32 3 -1
BITMAP
0061C0
006180
007F80
003F00
000000
000000
000000
0E00E0
0E00E0
0E00E0
1E01E0
1C01C0
1C01C0
1C01C0
3C03C0
380380
380380
380380
780780
700700
700700
700700
F00F00
E00E00
E00E00
E01E00
F01C00
703C00
787800
3FF000
1FE000
020000
ENDCHAR
STARTCHAR 016D
ENCODING 365
SWIDTH 488 0
DWIDTH 19 0
BBX 17 26 3 0
BITMAP
018380
01C300
01EF00
00FE00
007800
000000
000000
000000
1C0380
1C0780
3C0700
380700
380700
380F00
780E00
700E00
700E00
700E00
F01E00
F01C00
E01C00
F01C00
F03C00
78FC00
7FFC00
3F9C00
ENDCHAR
STARTCHAR 016E
ENCODING 366
SWIDTH 488 0
DWIDTH 19 0
BBX 19 33 3 -1
BITMAP
003E00
007300
006300
006300
006300
003E00
000800
000000
0E00E0
0E00E0
0E00E0
1E01E0
1C01C0
1C01C0
1C01C0
3C03C0
380380
380380
380380
780780
700700
700700
700700
F00F00
E00E00
E00E00
E01E00
F01C00
703C00
787800
3FF000
1FE000
020000
ENDCHAR
STARTCHAR 016F
ENCODING 367
SWIDTH 488 0
DWIDTH 19 0
BBX 17 27 3 0
BITMAP
007800
00FC00
00C600
008600
00C600
00FC00
007800
000000
000000
1C0380
1C0780
3C0700
380700
380700
380F00
780E00
700E00
700E00
700E00
F01E00
F01C00
E01C00
F01C00
F03C00
78FC00
7FFC00
3F9C00
ENDCHAR
STARTCHAR 0170
ENCODING 368
SWIDTH 488 0
DWIDTH 19 0
BBX 19 33 3 -1
BITMAP
001840
0038E0
0079E0
00F3C0
01E780
00C600
000000
000000
0E00E0
0E00E0
0E00E0
1E01E0
1C01C0
1C01C0
1C01C0
3C03C0
380380
380380
380380
780780
700700
700700
700700
F00F00
E00E00
E00E00
E01E00
F01C00
703C00
787800
3FF000
1FE000
020000
ENDCHAR
STARTCHAR 0171
ENCODING 369
SWIDTH 488 0
DWIDTH 19 0
BBX 18 26 3 1
BITMAP
006180
00F3C0
01E780
038E00
071C00
020800
000000
000000
1C0380
1C0780
3C0700
380700
380700
380F00
780E00
700E00
700E00
700E00
F01E00
F01C00
E01C00
F01C00
F03C00
78FC00
7FFC00
3F9C00
ENDCHAR
STARTCHAR 0172
ENCODING 370
SWIDTH 488 0
DWIDTH 19 0
BBX 19 31 3 -7
BITMAP
0E00E0
0E00E0
0E00E0
1E01E0
1C01C0
1C01C0
1C01C0
3C03C0
380380
380380
380380
780780
700700
700700
700700
F00F00
E00E00
E00E00
E01E00
F01C00
703C00
787800
3FF000
1FE000
01C000
070000
060000
0E0000
0FC000
0F8000
010000
ENDCHAR
STARTCHAR 0173
ENCODING 371
SWIDTH 488 0
DWIDTH 19 0
BBX 17 25 3 -7
BITMAP
1C0380
1C0780
3C0700
380700
380700
380F00
780E00
700E00
700E00
700E00
F01E00
F01C00
E01C00
F01C00
F03C00
78FC00
7FFC00
3F9C00
003C00
007000
00E000
00E000
00F800
00F800
002000
ENDCHAR
STARTCHAR 0174
ENCODING 372
SWIDTH 488 0
DWIDTH 19 0
BBX 21 32 2 0
BITMAP
000200
000700
001F00
003F80
0071C0
0060C0
000000
000000
0E0038
0E0038
0E0038
0E0070
1C0070
1C0070
1C0060
1C00E0
1C00E0
3870E0
38F1C0
38F1C0
39F1C0
31B180
33B380
733380
763300
7E3B00
6C3F00
7C3E00
781E00
781E00
F01C00
F01C00
ENDCHAR
STARTCHAR 0175
ENCODING 373
SWIDTH 488 0
DWIDTH 19 0
BBX 19 26 3 1
BITMAP
001C00
003C00
007E00
00E700
01C300
008000
000000
000000
7000E0
7000E0
7000E0
7001C0
70E1C0
70E1C0
71E380
61E380
63E300
E36700
E66700
EE6E00
EC6E00
FC6C00
F87C00
F07800
F07800
E03800
ENDCHAR
STARTCHAR 0176
ENCODING 374
SWIDTH 488 0
DWIDTH 19 0
BBX 18 32 6 0
BITMAP
002000
007000
00F800
01F800
079C00
020C00
000000
000000
E003C0
E00380
E00780
E00F00
700E00
701C00
703C00
703800
387000
38E000
39E000
1DC000
1F8000
1F0000
0E0000
0E0000
1E0000
1C0000
1C0000
1C0000
3C0000
380000
380000
380000
ENDCHAR
STARTCHAR 0177
ENCODING 375
SWIDTH 488 0
DWIDTH 19 0
BBX 22 34 -1 -7
BITMAP
000100
000380
000780
000FC0
001CE0
003860
001000
000000
000000
03C03C
03C038
03C038
01C078
01C070
01C070
01C0E0
01C0E0
01E1E0
00E1C0
00E3C0
00E380
00E780
00F700
007F00
007E00
007C00
003C00
003800
007000
00E000
43C000
7F8000
FF0000
300000
ENDCHAR
STARTCHAR 0178
ENCODING 376
SWIDTH 488 0
DWIDTH 19 0
BBX 18 31 6 0
BITMAP
070C00
071E00
0F1E00
071C00
000000
000000
000000
E003C0
E00380
E00780
E00F00
700E00
701C00
703C00
703800
387000
38E000
39E000
1DC000
1F8000
1F0000
0E0000
0E0000
1E0000
1C0000
1C0000
1C0000
3C0000
380000
380000
380000
ENDCHAR
STARTCHAR 0179
ENCODING 377
SWIDTH 488 0
DWIDTH 19 0
BBX 20 32 2 0
BITMAP
000080
0001C0
0003C0
000780
000F00
000C00
000800
000000
07FFF0
07FFF0
07FFF0
0001E0
0003C0
000780
000F00
001E00
001C00
003800
007000
00F000
01E000
03C000
078000
070000
0E0000
1E0000
3C0000
780000
700000
FFFE00
FFFE00
FFFE00
ENDCHAR
STARTCHAR 017A
ENCODING 378
SWIDTH 488 0
DWIDTH 19 0
BBX 18 27 2 0
BITMAP
000100
000300
000780
000F00
001E00
003800
001000
000000
000000
07FFC0
07FF80
0FFF80
000F00
001E00
003C00
007800
00F000
01E000
03C000
078000
0F0000
1E0000
1C0000
380000
7FFC00
7FFC00
FFFC00
ENDCHAR
STARTCHAR 017B
ENCODING 379
SWIDTH 488 0
DWIDTH 19 0
BBX 20 31 2 0
BITMAP
000E00
000F00
000F00
000E00
000000
000000
000000
07FFF0
07FFF0
07FFF0
0001E0
0003C0
000780
000F00
001E00
001C00
003800
007000
00F000
01E000
03C000
078000
070000
0E0000
1E0000
3C0000
780000
700000
FFFE00
FFFE00
FFFE00
ENDCHAR
STARTCHAR 017C
ENCODING 380
SWIDTH 488 0
DWIDTH 19 0
BBX 18 25 2 1
BITMAP
001E00
001E00
001E00
000C00
000000
000000
000000
07FFC0
07FF80
0FFF80
000F00
001E00
003C00
007800
00F000
01E000
03C000
078000
0F0000
1E0000
1C0000
380000
7FFC00
7FFC00
FFFC00
ENDCHAR
STARTCHAR 017D
ENCODING 381
SWIDTH 488 0
DWIDTH 19 0
BBX 20 32 2 0
BITMAP
003040
0038E0
001FC0
001F80
000E00
000400
000000
000000
07FFF0
07FFF0
07FFF0
0001E0
0003C0
000780
000F00
001E00
001C00
003800
007000
00F000
01E000
03C000
078000
070000
0E0000
1E0000
3C0000
780000
700000
FFFE00
FFFE00
FFFE00
ENDCHAR
STARTCHAR 017E
ENCODING 382
SWIDTH 488 0
DWIDTH 19 0
BBX 18 27 2 0
BITMAP
004080
00E180
007780
003F00
003C00
001800
000000
000000
000000
07FFC0
07FF80
0FFF80
000F00
001E00
003C00
007800
00F000
01E000
03C000
078000
0F0000
1E0000
1C0000
380000
7FFC00
7FFC00
FFFC00
ENDCHAR
STARTCHAR 017F
ENCODING 383
SWIDTH 488 0
DWIDTH 19 0
BBX 23 33 0 -7
BITMAP
0000FC
0003FE
0007FC
000F00
000E00
000E00
001E00
001C00
001C00
001C00
003C00
003800
003800
003800
003800
007800
007000
007000
007000
00F000
00E000
00E000
00E000
00E000
01E000
01C000
01C000
01C000
03C000
038000
4F8000
7F0000
FE0000
ENDCHAR
STARTCHAR 0180
ENCODING 384
SWIDTH 488 0
DWIDTH 19 0
BBX 17 27 3 0
BITMAP
038000
038000
078000
1FFC00
3FFC00
3FFC00
0F0000
0F0000
0E0000
0FFE00
0FFF00
1F8F00
1C0780
1C0380
1C0380
3C0380
380380
380380
380780
780700
700F00
700E00
701E00
F07C00
F3F800
FFF000
FFC000
ENDCHAR
STARTCHAR 0181
ENCODING 385
SWIDTH 488 0
DWIDTH 19 0
BBX 17 24 4 0
BITMAP
0FFC00
3FFE00
7F9F00
F38700
E38780
E78780
E70780
070700
070700
070E00
0FFC00
0FF800
0FFC00
0E1E00
1C0E00
1C0E00
1C0E00
1C0E00
3C0E00
381E00
383C00
3DF800
7FF000
7FC000
ENDCHAR
STARTCHAR 0182
ENCODING 386
SWIDTH 488 0
DWIDTH 19 0
BBX 18 24 2 0
BITMAP
03FFC0
07FFC0
07FFC0
070000
070000
0F0000
0E0000
0E0000
0E0000
1FF800
1FFE00
1FFF00
1C0F00
3C0780
380380
380380
380380
380780
700700
700F00
701E00
7DFE00
FFF800
FFE000
ENDCHAR
STARTCHAR 0183
ENCODING 387
SWIDTH 488 0
DWIDTH 19 0
BBX 18 27 3 0
BITMAP
03FFC0
07FFC0
07FFC0
070000
070000
0F0000
0E0000
0E0000
0E0000
1FFC00
1FFE00
1F9F00
1C0700
3C0780
380780
380780
380780
380700
700700
700F00
700F00
701E00
F03C00
E07C00
F3F800
FFE000
FF8000
ENDCHAR
STARTCHAR 0184
ENCODING 388
SWIDTH 488 0
DWIDTH 19 0
BBX 17 27 3 0
BITMAP
008000
078000
1F8000
0F0000
070000
070000
070000
0F0000
0E0000
0FFE00
0FFF00
1F8F00
1C0780
1C0380
1C0380
3C0380
380380
380380
380780
780700
700F00
700E00
701E00
F07C00
F3F800
FFF000
FFC000
ENDCHAR
STARTCHAR 0185
ENCODING 389
SWIDTH 488 0
DWIDTH 19 0
BBX 17 24 3 0
BITMAP
030000
0F0000
1F0000
1F0000
0F0000
0E0000
0E0000
0E0000
1E0000
1FFC00
1FFE00
1C1F00
3C0F00
380700
380780
380780
780700
700700
700700
700E00
F03E00
FBFC00
FFF800
FFE000
ENDCHAR
STARTCHAR 0186
ENCODING 390
SWIDTH 488 0
DWIDTH 19 0
BBX 19 26 2 -1
BITMAP
003000
03FE00
07FF80
070F80
0403C0
0001C0
0001C0
0001E0
0001E0
0001E0
0001E0
0001E0
0001C0
0001C0
0001C0
0003C0
000380
000780
000780
000F00
001E00
403E00
79FC00
FFF000
7FC000
040000
ENDCHAR
STARTCHAR 0187
ENCODING 391
SWIDTH 488 0
DWIDTH 19 0
BBX 22 28 3 -1
BITMAP
00007C
0000F8
000CE0
007FC0
01FF80
03E180
078000
0F0000
1E0000
1C0000
3C0000
380000
780000
700000
700000
700000
700000
700000
F00000
F00000
700000
700000
780000
780000
3E3800
1FF800
0FF000
010000
ENDCHAR
STARTCHAR 0188
ENCODING 392
SWIDTH 488 0
DWIDTH 19 0
BBX 20 22 3 0
BITMAP
0000F0
0003F0
0007E0
000700
03FE00
07FE00
0F8400
1E0000
3C0000
780000
700000
700000
F00000
E00000
E00000
E00000
E00000
F00000
700000
7C7000
3FF000
1FF000
ENDCHAR
STARTCHAR 0189
ENCODING 393
SWIDTH 488 0
DWIDTH 19 0
BBX 17 24 3 0
BITMAP
07F800
07FE00
07BF00
070F00
0E0780
0E0380
0E0380
0E0380
1E0380
1C0380
FF8380
FF8380
FF8380
380780
380700
380700
780F00
700E00
701E00
703C00
F07800
FFF000
FFE000
FF8000
ENDCHAR
STARTCHAR 018A
ENCODING 394
SWIDTH 488 0
DWIDTH 19 0
BBX 17 24 4 0
BITMAP
0FF800
3FFE00
7FBE00
F38F00
E38700
E78780
E70380
070380
070380
070380
0F0380
0E0780
0E0780
0E0700
1E0700
1C0F00
1C0E00
1C1E00
3C1E00
383C00
387800
3FF000
7FE000
7F8000
ENDCHAR
STARTCHAR 018B
ENCODING 395
SWIDTH 488 0
DWIDTH 19 0
BBX 19 24 3 0
BITMAP
07FFE0
07FFE0
07FFE0
0001C0
0001C0
0001C0
0003C0
000380
000380
01FF80
0FFF80
1FFF00
3C0700
780700
700700
F00E00
E00E00
E00E00
E00E00
F01E00
F01C00
7F7C00
3FFC00
0FFC00
ENDCHAR
STARTCHAR 018C
ENCODING 396
SWIDTH 488 0
DWIDTH 19 0
BBX 19 27 3 0
BITMAP
01FFE0
01FFE0
01FFE0
0000E0
0001E0
0001C0
0001C0
0001C0
0003C0
00FF80
03FF80
0FC380
1F0780
3C0700
380700
780700
700F00
700E00
F00E00
E00E00
E01E00
E01C00
F01C00
F03C00
78FC00
7FFC00
1FCE00
ENDCHAR
STARTCHAR 018D
ENCODING 397
SWIDTH 488 0
DWIDTH 19 0
BBX 18 24 2 -7
BITMAP
01FE00
07FF00
0FCF80
0F0380
1E0380
1C03C0
3C03C0
3803C0
380380
380380
380780
380700
1C1E00
1E3C00
0FF800
07E000
03E000
00F000
007000
007000
007000
C0F000
FFE000
FFC000
ENDCHAR
STARTCHAR 018E
ENCODING 398
SWIDTH 488 0
DWIDTH 19 0
BBX 20 24 1 0
BITMAP
01FFF0
01FFF0
03FFF0
0000F0
0000E0
0000E0
0000E0
0001E0
0001C0
0001C0
03FFC0
07FFC0
07FF80
000380
000380
000780
000700
000700
000700
000F00
000E00
7FFE00
7FFE00
FFFE00
ENDCHAR
STARTCHAR 018F
ENCODING 399
SWIDTH 488 0
DWIDTH 19 0
BBX 18 26 3 -1
BITMAP
007000
07FC00
0FFF00
0E0F00
000780
000380
0003C0
0003C0
0001C0
0001C0
0001C0
0001C0
7FFFC0
7FFF80
FFFF80
E00380
E00780
E00700
E00700
E00E00
E01E00
F03C00
78F800
3FF000
1FE000
020000
ENDCHAR
STARTCHAR 0190
ENCODING 400
SWIDTH 488 0
DWIDTH 19 0
BBX 19 25 3 0
BITMAP
000400
00FFC0
03FFE0
07C1C0
070000
0F0000
0E0000
0E0000
0E0000
0E0000
078000
03FC00
07FC00
1FFC00
3E0000
780000
700000
F00000
E00000
E00000
F00000
F00200
7C1E00
3FFE00
1FFC00
ENDCHAR
STARTCHAR 0191
ENCODING 401
SWIDTH 488 0
DWIDTH 19 0
BBX 24 31 -2 -7
BITMAP
003FFF
003FFF
003FFF
003800
007800
007000
007000
007000
007000
00E000
00FFF0
00FFF0
00FFF0
01C000
01C000
01C000
01C000
03C000
038000
038000
038000
078000
070000
070000
070000
0F0000
0E0000
1E0000
FC0000
F80000
400000
ENDCHAR
STARTCHAR 0192
ENCODING 402
SWIDTH 488 0
DWIDTH 19 0
BBX 23 33 0 -7
BITMAP
0000FC
0003FE
0007FC
000F00
000E00
000E00
001E00
001C00
001C00
01FFF8
01FFF8
03FFF8
003800
003800
003800
007800
007000
007000
007000
00F000
00E000
00E000
00E000
00E000
01E000
01C000
01C000
01C000
03C000
038000
4F8000
7F0000
FE0000
ENDCHAR
STARTCHAR 0193
ENCODING 403
SWIDTH 488 0
DWIDTH 19 0
BBX 22 28 3 -1
BITMAP
00007C
0000F8
001CC8
00FFC0
03FF80
07C380
0F0000
1E0000
1C0000
380000
380000
780000
700000
700000
F00000
F00700
E00700
E00700
E00F00
E00E00
F00E00
F00E00
701E00
781C00
3E3C00
3FFC00
0FFC00
010000
ENDCHAR
STARTCHAR 0194
ENCODING 404
SWIDTH 488 0
DWIDTH 19 0
BBX 20 30 4 -6
BITMAP
3800F0
3800E0
3801C0
3803C0
380380
3C0780
1C0700
1C0E00
1C1E00
1C1C00
1C3800
0E7800
0E7000
0EE000
0FE000
07C000
078000
078000
078000
0F8000
1F8000
3F8000
39C000
71C000
71C000
E1C000
E1C000
F38000
7F8000
7F0000
ENDCHAR
STARTCHAR 0195
ENCODING 405
SWIDTH 488 0
DWIDTH 19 0
BBX 20 27 1 0
BITMAP
018000
038000
038000
038000
070000
070000
070000
070000
0F0000
0FF070
0FF870
0F7870
1E3870
1C38F0
1C38E0
1C70E0
1C70E0
3871E0
3861C0
38E1C0
38E1C0
70E3C0
70E380
70E380
70FF80
E0FF00
E07E00
ENDCHAR
STARTCHAR 0196
ENCODING 406
SWIDTH 488 0
DWIDTH 19 0
BBX 13 25 7 -1
BITMAP
7FF8
7FF8
FFF8
0F00
0E00
0E00
0E00
0E00
1E00
1C00
1C00
1C00
3C00
3800
3800
3800
7800
7000
7000
7000
7000
7840
7FC0
3FC0
0400
ENDCHAR
STARTCHAR 0197
ENCODING 407
SWIDTH 488 0
DWIDTH 19 0
BBX 18 24 3 0
BITMAP
07FFC0
07FFC0
07FF80
007800
007000
007000
007000
00F000
00E000
00E000
0FFC00
0FFC00
0FFC00
01C000
01C000
03C000
038000
038000
038000
038000
070000
FFF800
FFF800
FFF000
ENDCHAR
STARTCHAR 0198
ENCODING 408
SWIDTH 488 0
DWIDTH 19 0
BBX 22 24 2 1
BITMAP
0780FC
0701FC
0703C8
070780
0F0F00
0E1E00
0E3C00
0E7800
1EF000
1DE000
1FC000
1F8000
3FC000
39E000
38E000
38F000
387800
783800
703C00
701C00
701E00
F00E00
E00F00
E00F00
ENDCHAR
STARTCHAR 0199
ENCODING 409
SWIDTH 488 0
DWIDTH 19 0
BBX 18 27 3 0
BITMAP
00F800
03F800
03F000
078000
070000
070000
0F0000
0E0000
0E0000
0E03C0
1E0780
1C1E00
1C3C00
1C7800
3CF000
3BC000
3F8000
3F8000
7FC000
73C000
71E000
70F000
707000
E07800
E03C00
E01C00
E01E00
ENDCHAR
STARTCHAR 019A
ENCODING 410
SWIDTH 488 0
DWIDTH 19 0
BBX 14 27 4 0
BITMAP
0FF0
1FF0
1FE0
00E0
00E0
00E0
01E0
01C0
01C0
01C0
03C0
0380
7FFC
FFFC
0780
0700
0700
0700
0F00
0E00
0E00
0E00
0E00
0E00
0F18
0FF8
07F8
ENDCHAR
STARTCHAR 019B
ENCODING 411
SWIDTH 488 0
DWIDTH 19 0
BBX 18 27 1 0
BITMAP
03E000
03F000
03F840
003BC0
001FC0
00FE00
01FC00
019C00
000E00
001E00
003E00
007E00
007E00
00EE00
01CE00
03C700
038700
070700
070700
0E0700
1E0700
1C0700
3C0700
380700
780700
700700
F00700
ENDCHAR
STARTCHAR 019C
ENCODING 412
SWIDTH 488 0
DWIDTH 19 0
BBX 20 25 2 -1
BITMAP
070070
0E0070
0E0070
0E0070
0E0060
1C00E0
1C00E0
1C00E0
1C00E0
1871C0
3871C0
38E1C0
38E1C0
38E380
70E380
70C380
71C380
71C700
E1C700
E1C700
E38700
F3CE00
FFFE00
7FFE00
002000
ENDCHAR
STARTCHAR 019D
ENCODING 413
SWIDTH 488 0
DWIDTH 19 0
BBX 26 31 -4 -7
BITMAP
001E01C0
001E01C0
001E01C0
003F01C0
003F0380
003F0380
003B8380
00338380
00738300
00718700
0071C700
0061C700
00E1C700
00E0CE00
00E0EE00
00E0EE00
01C0EE00
01C07C00
01C07C00
01C07C00
03807C00
03807800
03803800
03803800
07000000
07000000
07000000
0E000000
7E000000
FC000000
20000000
ENDCHAR
STARTCHAR 019E
ENCODING 414
SWIDTH 488 0
DWIDTH 19 0
BBX 16 24 3 -6
BITMAP
0FFC
1FFE
1F3F
1C0F
1C07
3C07
3807
3807
3807
780E
700E
700E
700E
701E
E01C
E01C
E01C
E03C
0038
0038
0038
0078
0070
0070
ENDCHAR
STARTCHAR 019F
ENCODING 415
SWIDTH 488 0
DWIDTH 19 0
BBX 18 26 3 -1
BITMAP
003000
01FE00
03FF00
078780
0F0380
1E03C0
1C01C0
3C01C0
3801C0
7801C0
7003C0
7003C0
7FFF80
FFFF80
E00380
E00780
E00700
E00700
E00E00
E00E00
F01C00
F03C00
78F800
3FF000
1FC000
020000
ENDCHAR
STARTCHAR 01A0
ENCODING 416
SWIDTH 488 0
DWIDTH 19 0
BBX 21 29 3 -1
BITMAP
000038
000038
000078
003070
01FEF0
03FFE0
078FC0
0F0780
1E0380
1C0380
3C0380
380380
780380
700380
700380
700380
F00780
E00700
E00700
E00700
E00E00
E00E00
E01C00
F03C00
F03800
78F000
3FE000
1FC000
060000
ENDCHAR
STARTCHAR 01A1
ENCODING 417
SWIDTH 488 0
DWIDTH 19 0
BBX 20 22 3 0
BITMAP
000070
0000F0
0000E0
0000E0
03FDC0
0FFFC0
1FBF80
1E0F00
3C0700
780700
780700
700700
700F00
F00F00
E00E00
E00E00
E01E00
F03C00
F07800
7DF800
7FE000
3FC000
ENDCHAR
STARTCHAR 01A2
ENCODING 418
SWIDTH 488 0
DWIDTH 19 0
BBX 20 25 2 0
BITMAP
00C080
03F7E0
07FFE0
0F3CF0
0E3870
1C3870
1C3CE0
3838E0
3838E0
3838E0
7839E0
7039C0
7039C0
7039C0
707BC0
F07380
E07380
E0F380
E0E380
E0E700
E1C700
E1C700
778700
7F0E00
3E0E00
ENDCHAR
STARTCHAR 01A3
ENCODING 419
SWIDTH 488 0
DWIDTH 19 0
BBX 18 24 2 -6
BITMAP
07DF80
1FFFC0
1CF3C0
38E1C0
3871C0
7071C0
7071C0
70E380
70E380
E0E380
E0E380
E0E700
E1C700
E1C700
E3C700
F78F00
7F0E00
3E0E00
000E00
001E00
001C00
001C00
001C00
001C00
ENDCHAR
STARTCHAR 01A4
ENCODING 420
SWIDTH 488 0
DWIDTH 19 0
BBX 17 24 4 0
BITMAP
0FFC00
3FFF00
7FCF80
F38380
E38380
E78380
E70380
070380
070380
070380
0E0700
0E0F00
0FFE00
0FFC00
1FE000
1C0000
1C0000
1C0000
3C0000
380000
380000
380000
780000
700000
ENDCHAR
STARTCHAR 01A5
ENCODING 421
SWIDTH 488 0
DWIDTH 19 0
BBX 19 33 1 -6
BITMAP
003E00
00FC00
01FC00
01C000
01C000
03C000
038000
038000
038000
07FF00
07FF80
0787C0
0701C0
0F01E0
0E01E0
0E01E0
0E01E0
1E01C0
1C01C0
1C01C0
1C03C0
1C0780
3C0F00
381F00
3DFE00
3FF800
7FE000
700000
700000
700000
F00000
E00000
E00000
ENDCHAR
STARTCHAR 01A6
ENCODING 422
SWIDTH 488 0
DWIDTH 19 0
BBX 19 31 2 -4
BITMAP
038000
038000
038000
07FF00
07FF80
078FC0
0703C0
0F01C0
0E01E0
0E01C0
0E01C0
1E01C0
1C03C0
1C0780
1C1F00
3FFE00
3FF800
3FF000
383800
383800
703C00
701C00
701C00
700E00
F00E00
E00E00
E00F00
000700
000700
000700
000780
ENDCHAR
STARTCHAR 01A7
ENCODING 423
SWIDTH 488 0
DWIDTH 19 0
BBX 18 26 3 -1
BITMAP
003000
03FF00
07FF80
070780
0403C0
0001C0
0001C0
0003C0
000380
000780
001F00
00FE00
03F800
0FE000
3F0000
7C0000
780000
F00000
E00000
E00000
E00000
F00400
7C3C00
7FFC00
3FF800
030000
ENDCHAR
STARTCHAR 01A8
ENCODING 424
SWIDTH 488 0
DWIDTH 19 0
BBX 16 19 3 0
BITMAP
0040
0FFC
0FFE
0E1E
000F
0007
000E
001E
00FC
07F8
1FE0
7E00
7800
F000
E000
E000
FC38
7FF8
3FF8
ENDCHAR
STARTCHAR 01A9
ENCODING 425
SWIDTH 488 0
DWIDTH 19 0
BBX 21 24 1 0
BITMAP
03FFF8
03FFF8
03FFF8
038000
01C000
01C000
00E000
00E000
007000
007800
003800
003C00
007800
00F000
01E000
03C000
078000
0F0000
1E0000
3C0000
780000
FFFF00
FFFF00
FFFF00
ENDCHAR
STARTCHAR 01AA
ENCODING 426
SWIDTH 488 0
DWIDTH 19 0
BBX 11 33 6 -6
BITMAP
0F80
3FC0
7FE0
70E0
60E0
E0E0
E1E0
77E0
7FC0
3DC0
01C0
01C0
03C0
0380
0380
0380
0780
0700
0700
0700
0F00
0E00
0E00
0E00
1E00
1C00
1C00
1C00
1C00
1C00
1F00
1FC0
0FC0
ENDCHAR
STARTCHAR 01AB
ENCODING 427
SWIDTH 488 0
DWIDTH 19 0
BBX 16 31 4 -7
BITMAP
0040
03C0
0380
0380
0380
0780
7FFF
FFFF
FFFF
0F00
0E00
0E00
0E00
1E00
1C00
1C00
1C00
1C00
3C00
3C00
3C00
1E08
1FF8
0FF8
0038
0038
0038
0070
07F0
07E0
0100
ENDCHAR
STARTCHAR 01AC
ENCODING 428
SWIDTH 488 0
DWIDTH 19 0
BBX 18 24 5 0
BITMAP
1FFFC0
3FFFC0
7FFFC0
E0E000
E0E000
C1E000
C1C000
01C000
01C000
03C000
038000
038000
038000
038000
078000
070000
070000
070000
0F0000
0E0000
0E0000
0E0000
1E0000
1C0000
ENDCHAR
STARTCHAR 01AD
ENCODING 429
SWIDTH 488 0
DWIDTH 19 0
BBX 17 27 5 0
BITMAP
003F80
00FF80
01FF80
03C000
038000
078000
070000
070000
0F0000
FFFC00
FFFC00
FFFC00
1E0000
1C0000
1C0000
1C0000
3C0000
380000
380000
380000
380000
780000
780000
780000
3EF000
3FF000
1FF000
ENDCHAR
STARTCHAR 01AE
ENCODING 430
SWIDTH 488 0
DWIDTH 19 0
BBX 17 31 6 -7
BITMAP
FFFF80
FFFF80
FFFF00
038000
038000
038000
038000
078000
070000
070000
070000
0F0000
0E0000
0E0000
0E0000
1E0000
1C0000
1C0000
1C0000
3C0000
380000
380000
380000
780000
700000
700000
700000
780000
7E0000
3E0000
080000
ENDCHAR
STARTCHAR 01AF
ENCODING 431
SWIDTH 488 0
DWIDTH 19 0
BBX 24 29 2 -1
BITMAP
000007
00000F
00000E
00001E
0F00FC
0E01F8
0E01C0
0E01C0
1E01C0
1C03C0
1C0380
1C0380
3C0380
380780
380700
380700
780700
700F00
700E00
700E00
700E00
F01E00
F01C00
701C00
703800
78F800
3FF000
1FE000
060000
ENDCHAR
STARTCHAR 01B0
ENCODING 432
SWIDTH 488 0
DWIDTH 19 0
BBX 20 22 3 0
BITMAP
000070
000070
000070
0000F0
1C07E0
3C0FC0
380E00
380E00
380E00
781E00
701C00
701C00
701C00
F01C00
E03800
E03800
E03800
E03800
F07800
F9F800
7FF800
3F3800
ENDCHAR
STARTCHAR 01B1
ENCODING 433
SWIDTH 488 0
DWIDTH 19 0
BBX 21 25 3 -1
BITMAP
1FC7F8
3FC7F0
3F87F0
070780
0E0380
0E0380
1C0380
3C0380
380380
7803C0
7003C0
700380
F00380
E00380
E00380
E00780
E00700
E00700
E00F00
F01E00
F03C00
FEF800
7FF000
3FE000
020000
ENDCHAR
STARTCHAR 01B2
ENCODING 434
SWIDTH 488 0
DWIDTH 19 0
BBX 18 25 3 -1
BITMAP
0E3E00
1E3F00
1C0F80
1C0380
1C0380
3C01C0
3801C0
3801C0
3803C0
780380
700380
700380
700380
700380
F00700
E00700
E00F00
E00E00
E01E00
E03C00
E07800
F1F000
7FE000
3FC000
040000
ENDCHAR
STARTCHAR 01B3
ENCODING 435
SWIDTH 488 0
DWIDTH 19 0
BBX 19 24 5 0
BITMAP
E003E0
E007E0
E00F60
E01E00
701C00
703800
707800
707000
38E000
39E000
39C000
1B8000
1F8000
1F0000
0E0000
0E0000
1E0000
1C0000
1C0000
1C0000
3C0000
380000
380000
380000
ENDCHAR
STARTCHAR 01B4
ENCODING 436
SWIDTH 488 0
DWIDTH 19 0
BBX 23 25 -1 -7
BITMAP
000008
03803E
03807E
0380F0
0380E0
0381E0
0381C0
0381C0
03C380
01C380
01C780
01C700
01CF00
01CE00
01DE00
00FC00
00F800
00F800
00F000
00F000
01E000
03C000
478000
FF0000
FE0000
ENDCHAR
STARTCHAR 01B5
ENCODING 437
SWIDTH 488 0
DWIDTH 19 0
BBX 20 24 2 0
BITMAP
07FFF0
07FFF0
07FFF0
0001E0
0003C0
000780
000F00
001E00
001C00
003800
0FFF80
0FFF80
1FFF80
03C000
078000
070000
0E0000
1E0000
3C0000
780000
700000
FFFE00
FFFE00
FFFE00
ENDCHAR
STARTCHAR 01B6
ENCODING 438
SWIDTH 488 0
DWIDTH 19 0
BBX 18 18 2 0
BITMAP
07FFC0
07FF80
0FFF80
000F00
001E00
003C00
007800
0FFF00
0FFF00
1FFE00
078000
0F0000
1E0000
1C0000
380000
7FFC00
7FFC00
FFFC00
ENDCHAR
STARTCHAR 01B7
ENCODING 439
SWIDTH 488 0
DWIDTH 19 0
BBX 20 25 2 -1
BITMAP
03FFF0
07FFF0
07FFE0
0001C0
000380
000700
000E00
003C00
007800
00F000
01F000
01FE00
003F00
000F00
000780
000780
000380
000780
000700
000700
001E00
F07E00
FFF800
7FF000
060000
ENDCHAR
STARTCHAR 01B8
ENCODING 440
SWIDTH 488 0
DWIDTH 19 0
BBX 19 25 3 -1
BITMAP
07FFE0
07FFE0
07FFE0
038000
038000
01C000
01C000
00E000
00F000
007000
00F800
07F800
1FE000
3E0000
780000
700000
700000
F00000
F00000
700000
780000
7E1E00
3FFE00
0FFC00
018000
ENDCHAR
STARTCHAR 01B9
ENCODING 441
SWIDTH 488 0
DWIDTH 19 0
BBX 18 24 3 -6
BITMAP
07FFC0
0FFF80
07FF80
070000
038000
038000
01C000
01C000
00E000
00F000
03F000
0FF000
3FE000
7C0000
700000
F00000
E00000
E00000
E00000
E00000
F00000
7C3800
7FF800
1FF000
ENDCHAR
STARTCHAR 01BA
ENCODING 442
SWIDTH 488 0
DWIDTH 19 0
BBX 19 24 1 -7
BITMAP
03FFE0
07FFC0
07FFC0
000380
000F00
001E00
003800
007000
00F000
01FC00
001E00
000F00
000700
000700
000700
000F00
003E00
03FC00
1FF000
7F8000
780000
E00000
E00000
E00000
ENDCHAR
STARTCHAR 01BB
ENCODING 443
SWIDTH 488 0
DWIDTH 19 0
BBX 18 25 2 0
BITMAP
001800
01FF00
07FF80
0787C0
0201C0
0001C0
0001C0
0001C0
0003C0
000380
000780
000F00
0FFFC0
0FFF80
0FFF80
01E000
07C000
0F0000
1E0000
1C0000
3C0000
780000
7FFE00
7FFE00
FFFE00
ENDCHAR
STARTCHAR 01BC
ENCODING 444
SWIDTH 488 0
DWIDTH 19 0
BBX 19 25 3 -1
BITMAP
0FFFE0
0FFFC0
1FFFC0
038000
038000
038000
070000
070000
070000
0FC000
0FF800
0FFC00
003E00
001E00
000F00
000F00
000F00
000F00
000E00
001E00
003C00
E0FC00
FFF800
FFE000
040000
ENDCHAR
STARTCHAR 01BD
ENCODING 445
SWIDTH 488 0
DWIDTH 19 0
BBX 17 18 3 0
BITMAP
1FFF80
1FFF00
1FFF00
070000
070000
060000
0E0000
0FF000
0FF800
007C00
001C00
001E00
001E00
001E00
001C00
70FC00
7FF800
FFE000
ENDCHAR
STARTCHAR 01BE
ENCODING 446
SWIDTH 488 0
DWIDTH 19 0
BBX 15 24 4 0
BITMAP
0040
03C0
0380
0380
0380
0780
7FFE
7FFE
7FFE
0F00
0F00
0F00
0F00
07C0
03F0
00F8
007C
001C
001C
001C
003C
F0F8
FFF0
FFE0
ENDCHAR
STARTCHAR 01BF
ENCODING 447
SWIDTH 488 0
DWIDTH 19 0
BBX 19 24 1 -6
BITMAP
01FF00
07FF80
07CFC0
0703C0
0F01C0
0E01E0
0E01E0
0E01C0
1E01C0
1C01C0
1C03C0
1C0380
3C0780
380F00
383E00
38FC00
7BF000
7FE000
7F0000
780000
700000
F00000
E00000
E00000
ENDCHAR
STARTCHAR 01C0
ENCODING 448
SWIDTH 488 0
DWIDTH 19 0
BBX 11 33 6 -6
BITMAP
00E0
00E0
01C0
01C0
01C0
01C0
0380
0380
0380
0380
0780
0700
0700
0700
0F00
0E00
0E00
0E00
0E00
1C00
1C00
1C00
1C00
3800
3800
3800
3800
7000
7000
7000
7000
E000
E000
ENDCHAR
STARTCHAR 01C1
ENCODING 449
SWIDTH 488 0
DWIDTH 19 0
BBX 17 33 3 -6
BITMAP
01C380
01C380
01C380
01C380
038700
038700
038700
038700
070E00
070E00
070E00
070E00
0F1C00
0E1C00
0E1C00
0E1C00
1E3800
1C3800
1C3800
1C3800
1C7800
387000
387000
387000
387000
70E000
70E000
70E000
70E000
E1C000
E1C000
E1C000
E1C000
ENDCHAR
STARTCHAR 01C2
ENCODING 450
SWIDTH 488 0
DWIDTH 19 0
BBX 19 33 2 -6
BITMAP
000E00
000E00
001C00
001C00
001C00
001C00
003800
003800
003800
003800
007000
007000
3FFFE0
3FFFE0
00E000
00E000
00E000
00E000
01C000
FFFF80
FFFF80
01C000
01C000
038000
038000
038000
038000
070000
070000
070000
070000
0E0000
0E0000
ENDCHAR
STARTCHAR 01C3
ENCODING 451
SWIDTH 488 0
DWIDTH 19 0
BBX 9 24 7 0
BITMAP
0780
0780
0700
0700
0700
0F00
0F00
0E00
0E00
1E00
1C00
1C00
1C00
1800
1800
1800
0000
0000
0000
7000
F800
F800
F800
F000
ENDCHAR
STARTCHAR 01C4
ENCODING 452
SWIDTH 488 0
DWIDTH 19 0
BBX 25 31 1 1
BITMAP
00006180
00007300
00003E00
00001C00
00001800
00000000
00000000
07E0FE00
07F0FE00
0778FC00
06381C00
0E381800
0E383800
0E383000
0E387000
1C386000
1C38E000
1C38C000
1C71C000
18718000
38738000
38730000
38E70000
30E60000
71CE0000
71CE0000
739C0000
639C0000
FF3FC000
FE3FC000
FC3F8000
ENDCHAR
STARTCHAR 01C5
ENCODING 453
SWIDTH 488 0
DWIDTH 19 0
BBX 23 25 1 0
BITMAP
000042
07E0EE
07F07C
077030
063800
0E3800
0E3800
0E39FC
0C39FC
1C39F8
1C3838
1C3070
187070
3870E0
3870C0
38E1C0
30E180
70E380
71C700
71C700
738E00
E78E00
FF1FE0
FE1FC0
F81FC0
ENDCHAR
STARTCHAR 01C6
ENCODING 454
SWIDTH 488 0
DWIDTH 19 0
BBX 24 27 1 0
BITMAP
000E00
000E00
001C63
001C77
001C3C
001C18
001810
003800
003800
07F9FC
0FF1FC
1C71F8
3C7038
387070
706070
70E0E0
70E0C0
E0E1C0
E0E180
E1C380
E1C700
E1C700
E1CE00
E38E00
E39FC0
7F9FC0
7F9FC0
ENDCHAR
STARTCHAR 01C7
ENCODING 455
SWIDTH 488 0
DWIDTH 19 0
BBX 22 24 1 0
BITMAP
07001C
07001C
07003C
0F0038
0E0038
0E0038
0E0078
1E0070
1C0070
1C0070
1C00F0
3C00E0
3800E0
3800E0
3800E0
3801E0
7001C0
7001C0
7001C0
700380
F00780
FF3F00
FF3F00
FF3C00
ENDCHAR
STARTCHAR 01C8
ENCODING 456
SWIDTH 488 0
DWIDTH 19 0
BBX 22 33 1 -7
BITMAP
000038
00007C
07807C
070078
070038
070000
0F0000
0E0000
0E00F0
0E00E0
0E00E0
1C00E0
1C01E0
1C01C0
1C01C0
3C01C0
3801C0
380380
380380
780380
700380
700780
700700
FFC700
FFC700
FF8F00
000E00
000E00
001E00
023C00
03F800
03F000
010000
ENDCHAR
STARTCHAR 01C9
ENCODING 457
SWIDTH 488 0
DWIDTH 19 0
BBX 17 34 3 -7
BITMAP
030000
070300
070780
0F0F80
0E0F80
0E0700
0E0000
0E0000
1E0000
1C0E00
1C1E00
1C1C00
3C1C00
381C00
381C00
383800
783800
703800
703800
707800
F07000
F07000
F07000
F0F000
78E000
78E000
38E000
01E000
01C000
03C000
078000
7F8000
7F0000
180000
ENDCHAR
STARTCHAR 01CA
ENCODING 458
SWIDTH 488 0
DWIDTH 19 0
BBX 22 24 1 0
BITMAP
070C1C
070C1C
071C1C
0F1C18
0F1838
0F1838
0F1838
1F3830
1B3070
1B3070
1B3070
3B7060
3B70E0
3360E0
3360E0
3360E0
73E1C0
63C1C0
63C1C0
63C180
E3C380
E39F00
C39E00
C3BC00
ENDCHAR
STARTCHAR 01CB
ENCODING 459
SWIDTH 488 0
DWIDTH 19 0
BBX 22 32 1 -7
BITMAP
000018
00003C
070E3C
070E3C
070C18
070C00
0F1C00
0F1C00
0F1830
0F1870
0F3870
1F3870
1BB060
1BB0E0
1BB0E0
3BF0E0
3BE0E0
33E1C0
33E1C0
73E1C0
73C1C0
63C380
63C380
E3C380
E38380
C38700
000700
000700
000E00
011E00
01FC00
01F800
ENDCHAR
STARTCHAR 01CC
ENCODING 460
SWIDTH 488 0
DWIDTH 19 0
BBX 22 32 1 -7
BITMAP
000018
00003C
00003C
00003C
000018
000000
000000
000000
0FF030
0FF870
0E7870
1C3870
1C3860
1C38E0
1C38E0
3870E0
3870E0
3871C0
3871C0
3061C0
70E1C0
70E380
70E380
60C380
E1C380
E1C700
000700
000700
000E00
011E00
01FC00
01F800
ENDCHAR
STARTCHAR 01CD
ENCODING 461
SWIDTH 488 0
DWIDTH 19 0
BBX 20 32 0 0
BITMAP
000830
001C70
000EE0
0007C0
000380
000300
000000
000000
000F80
000F80
001F80
001B80
003B80
007380
007380
00E380
00E380
01C1C0
0181C0
0381C0
0701C0
0701C0
0E01C0
0FFFC0
1FFFC0
1FFFC0
3801C0
3801C0
7001C0
7001C0
E001C0
E001C0
ENDCHAR
STARTCHAR 01CE
ENCODING 462
SWIDTH 488 0
DWIDTH 19 0
BBX 17 27 3 0
BITMAP
004000
00E180
007780
007E00
003C00
001800
000000
000000
000000
01FF80
07FF80
0FC700
1E0700
3C0700
780700
700E00
F00E00
F00E00
E00E00
E01E00
E01C00
E01C00
E01C00
F03C00
F8FC00
7FFC00
3F9C00
ENDCHAR
STARTCHAR 01CF
ENCODING 463
SWIDTH 488 0
DWIDTH 19 0
BBX 18 32 3 0
BITMAP
006080
0063C0
007700
003E00
001C00
001800
000000
000000
07FFC0
07FFC0
07FF80
007800
007000
007000
007000
00F000
00E000
00E000
00E000
01E000
01C000
01C000
01C000
03C000
038000
038000
038000
078000
070000
FFF800
FFF800
FFF000
ENDCHAR
STARTCHAR 01D0
ENCODING 464
SWIDTH 488 0
DWIDTH 19 0
BBX 13 27 5 0
BITMAP
0400
0E38
0770
07E0
03C0
0180
0100
0000
0000
7F80
FF80
FF80
0700
0700
0700
0F00
0E00
0E00
0E00
0E00
1E00
1C00
1C00
1E00
0FF0
0FE0
07E0
ENDCHAR
STARTCHAR 01D1
ENCODING 465
SWIDTH 488 0
DWIDTH 19 0
BBX 18 33 3 -1
BITMAP
006080
0071C0
003F80
003F00
001C00
000800
000000
001000
00FE00
03FF80
07C780
0F03C0
0E03C0
1C01C0
3C01C0
3801C0
3801C0
7801C0
7001C0
7003C0
700380
F00380
E00380
E00700
E00700
E00F00
E00E00
F01E00
703C00
7CF800
3FF000
1FC000
020000
ENDCHAR
STARTCHAR 01D2
ENCODING 466
SWIDTH 488 0
DWIDTH 19 0
BBX 17 27 3 0
BITMAP
008100
01C300
00EF00
007E00
007800
003000
000000
000000
000000
03FC00
07FE00
0F9F00
1E0700
3C0780
380780
780780
700780
700700
F00700
E00700
E00F00
E00E00
F01E00
F03C00
7DF800
7FF000
1FC000
ENDCHAR
STARTCHAR 01D3
ENCODING 467
SWIDTH 488 0
DWIDTH 19 0
BBX 19 33 3 -1
BITMAP
006080
0063C0
007700
003E00
001C00
001800
000000
000000
0E00E0
0E00E0
0E00E0
1E01E0
1C01C0
1C01C0
1C01C0
3C03C0
380380
380380
380380
780780
700700
700700
700700
F00F00
E00E00
E00E00
E01E00
F01C00
703C00
787800
3FF000
1FE000
020000
ENDCHAR
STARTCHAR 01D4
ENCODING 468
SWIDTH 488 0
DWIDTH 19 0
BBX 17 27 3 0
BITMAP
008000
01C700
00EE00
00FC00
007800
003000
002000
000000
000000
1C0380
1C0780
3C0700
380700
380700
380F00
780E00
700E00
700E00
700E00
F01E00
F01C00
E01C00
F01C00
F03C00
78FC00
7FFC00
3F9C00
ENDCHAR
STARTCHAR 01D5
ENCODING 469
SWIDTH 488 0
DWIDTH 19 0
BBX 19 33 3 -1
BITMAP
007FC0
007FC0
000000
00C180
01E3C0
01C380
008180
000000
000000
0E00E0
0E00E0
1E01E0
1C01C0
1C01C0
1C01C0
3C03C0
380380
380380
380380
780780
700700
700700
700700
F00F00
E00E00
E00E00
E01E00
F01C00
703C00
787800
3FF000
1FE000
020000
ENDCHAR
STARTCHAR 01D6
ENCODING 470
SWIDTH 488 0
DWIDTH 19 0
BBX 17 28 3 0
BITMAP
00FF00
01FF00
000000
000000
038700
078F00
078F00
010200
000000
000000
1C0380
1C0780
3C0700
380700
380700
380F00
780E00
700E00
700E00
700E00
F01E00
F01C00
E01C00
F01C00
F03C00
78FC00
7FFC00
3F9C00
ENDCHAR
STARTCHAR 01D7
ENCODING 471
SWIDTH 488 0
DWIDTH 19 0
BBX 19 33 3 -1
BITMAP
000400
000F00
000E00
039CE0
0399E0
0381E0
000000
000000
0E00E0
0E00E0
0E00E0
1E01E0
1C01C0
1C01C0
1C01C0
3C03C0
380380
380380
380380
780780
700700
700700
700700
F00F00
E00E00
E00E00
E01E00
F01C00
703C00
787800
3FF000
1FE000
020000
ENDCHAR
STARTCHAR 01D8
ENCODING 472
SWIDTH 488 0
DWIDTH 19 0
BBX 17 29 3 1
BITMAP
000E00
000E00
001C00
003800
003000
038700
078700
078700
010200
000000
000000
1C0380
1C0780
3C0700
380700
380700
380F00
780E00
700E00
700E00
700E00
F01E00
F01C00
E01C00
F01C00
F03C00
78FC00
7FFC00
3F9C00
ENDCHAR
STARTCHAR 01D9
ENCODING 473
SWIDTH 488 0
DWIDTH 19 0
BBX 19 33 3 -1
BITMAP
003200
003F00
001C00
0388E0
0381E0
0381E0
000000
000000
0E00E0
0E00E0
0E00E0
1E01E0
1C01C0
1C01C0
1C01C0
3C03C0
380380
380380
380380
780780
700700
700700
700700
F00F00
E00E00
E00E00
E01E00
F01C00
703C00
787800
3FF000
1FE000
020000
ENDCHAR
STARTCHAR 01DA
ENCODING 474
SWIDTH 488 0
DWIDTH 19 0
BBX 17 29 3 0
BITMAP
008200
00C700
00FE00
007800
003000
038700
078700
078700
010200
000000
000000
1C0380
1C0780
3C0700
380700
380700
380F00
780E00
700E00
700E00
700E00
F01E00
F01C00
E01C00
F01C00
F03C00
78FC00
7FFC00
3F9C00
ENDCHAR
STARTCHAR 01DB
ENCODING 475
SWIDTH 488 0
DWIDTH 19 0
BBX 19 33 3 -1
BITMAP
001000
003800
001800
039DE0
0389E0
0381E0
000000
000000
0E00E0
0E00E0
0E00E0
1E01E0
1C01C0
1C01C0
1C01C0
3C03C0
380380
380380
380380
780780
700700
700700
700700
F00F00
E00E00
E00E00
E01E00
F01C00
703C00
787800
3FF000
1FE000
020000
ENDCHAR
STARTCHAR 01DC
ENCODING 476
SWIDTH 488 0
DWIDTH 19 0
BBX 17 29 3 1
BITMAP
00E000
00E000
006000
007000
003000
038700
078700
078700
010200
000000
000000
1C0380
1C0780
3C0700
380700
380700
380F00
780E00
700E00
700E00
700E00
F01E00
F01C00
E01C00
F01C00
F03C00
78FC00
7FFC00
3F9C00
ENDCHAR
STARTCHAR 01DD
ENCODING 477
SWIDTH 488 0
DWIDTH 19 0
BBX 17 18 3 0
BITMAP
1FFC00
1FFE00
1C3F00
000700
000780
000380
000380
01FF80
0FFF80
3FF780
7C0700
700700
F00E00
E01E00
E03C00
F8F800
7FF000
3FC000
ENDCHAR
STARTCHAR 01DE
ENCODING 478
SWIDTH 488 0
DWIDTH 19 0
BBX 21 32 0 0
BITMAP
000FF8
001FF0
000000
003870
003870
003870
003060
000000
000000
000F00
001F80
001F80
003B80
003B80
007380
00E380
00E380
01C380
01C180
0381C0
0301C0
0701C0
0E01C0
0FFFC0
1FFFC0
1FFFC0
3801C0
3801C0
7001C0
7001C0
E001C0
E001C0
ENDCHAR
STARTCHAR 01DF
ENCODING 479
SWIDTH 488 0
DWIDTH 19 0
BBX 17 28 3 0
BITMAP
007F80
00FF80
000000
000000
01C380
03C780
03C380
008100
000000
000000
01FF80
07FF80
0FC700
1E0700
3C0700
780700
700E00
F00E00
F00E00
E00E00
E01E00
E01C00
E01C00
E01C00
F03C00
F8FC00
7FFC00
3F9C00
ENDCHAR
STARTCHAR 01E0
ENCODING 480
SWIDTH 488 0
DWIDTH 19 0
BBX 21 32 0 0
BITMAP
000FF8
000FF0
000000
000380
000780
000780
000300
000000
000000
000F00
001F80
001F80
003B80
003B80
007380
00E380
00E380
01C380
01C180
0381C0
0301C0
0701C0
0E01C0
0FFFC0
1FFFC0
1FFFC0
3801C0
3801C0
7001C0
7001C0
E001C0
E001C0
ENDCHAR
STARTCHAR 01E1
ENCODING 481
SWIDTH 488 0
DWIDTH 19 0
BBX 18 28 3 0
BITMAP
007FC0
00FF80
000000
000000
001C00
003C00
003C00
001000
000000
000000
01FF80
07FF80
0FC700
1E0700
3C0700
780700
700E00
F00E00
F00E00
E00E00
E01E00
E01C00
E01C00
E01C00
F03C00
F8FC00
7FFC00
3F9C00
ENDCHAR
STARTCHAR 01E2
ENCODING 482
SWIDTH 488 0
DWIDTH 19 0
BBX 23 30 1 0
BITMAP
0007FE
0007FE
000000
000000
000000
000000
000FFC
000FFC
001FFC
003F80
003700
007700
006700
00E700
01CE00
01CE00
038FE0
038FE0
071FC0
071C00
0E1C00
0FFC00
1FF800
1FF800
383800
383800
707000
707FC0
E07F80
E07F80
ENDCHAR
STARTCHAR 01E3
ENCODING 483
SWIDTH 488 0
DWIDTH 19 0
BBX 19 25 2 0
BITMAP
00FFC0
00FFC0
00FF80
000000
000000
000000
000000
1F87C0
1FCFE0
19FDE0
00F8E0
00F0E0
00F0E0
00E1E0
07E3C0
1FFF80
3FFF00
78FC00
F1E000
E1E000
E1E000
E3E000
E7FB00
FE7F00
7C3F00
ENDCHAR
STARTCHAR 01E4
ENCODING 484
SWIDTH 488 0
DWIDTH 19 0
BBX 18 25 3 0
BITMAP
000C00
00FF80
01FFC0
07C380
0F0080
0E0000
1C0000
3C0000
380000
780000
700000
700000
700700
F00F00
E00E00
E00E00
E07F80
E07F00
E01C00
F01C00
F01C00
781C00
7E7800
3FF800
1FF800
ENDCHAR
STARTCHAR 01E5
ENCODING 485
SWIDTH 488 0
DWIDTH 19 0
BBX 20 24 1 -7
BITMAP
007FE0
00FFE0
03F1C0
07C1C0
0F01C0
0E03C0
1E0380
1C3FF0
1C3FE0
1C3FE0
3C0700
3C0700
3C0700
3C0F00
1F7E00
1FFE00
0FEE00
000E00
001C00
001C00
003C00
70F800
FFF000
FFC000
ENDCHAR
STARTCHAR 01E6
ENCODING 486
SWIDTH 488 0
DWIDTH 19 0
BBX 19 33 3 -1
BITMAP
003040
0038E0
001FC0
001F80
000E00
000400
000000
001E00
00FFC0
01FFE0
07E1C0
0F8000
0E0000
1E0000
3C0000
380000
380000
700000
700000
700000
F00700
E00700
E00700
E00F00
E00E00
E00E00
F00E00
701E00
781C00
7E3C00
3FFC00
0FFC00
010000
ENDCHAR
STARTCHAR 01E7
ENCODING 487
SWIDTH 488 0
DWIDTH 19 0
BBX 20 34 1 -7
BITMAP
000800
001C70
000EF0
000FC0
000780
000300
000000
000000
000000
003FF0
00FFE0
03F0E0
07C0E0
0781E0
0F01C0
1E01C0
1C01C0
1C03C0
1C0380
3C0380
3C0380
3C0380
1C0700
1F3F00
1FFF00
07F700
000E00
000E00
001E00
003C00
707800
FFF800
FFE000
060000
ENDCHAR
STARTCHAR 01E8
ENCODING 488
SWIDTH 488 0
DWIDTH 19 0
BBX 20 32 2 0
BITMAP
0020C0
0071C0
003B80
001F00
001E00
000C00
000000
000000
0780F0
0701E0
0703C0
070380
0F0700
0E0E00
0E3C00
0E7800
1EF000
1DE000
1FC000
1F8000
3FC000
39E000
38E000
38F000
387800
783800
703C00
701C00
701E00
F00E00
E00F00
E00F00
ENDCHAR
STARTCHAR 01E9
ENCODING 489
SWIDTH 488 0
DWIDTH 19 0
BBX 18 32 3 0
BITMAP
010C00
03BC00
01F800
00E000
004000
000000
018000
078000
070000
070000
070000
0F0000
0E0000
0E0000
0E03C0
1E0780
1C1E00
1C3C00
1C7800
3CF000
3BC000
3F8000
3F8000
7FC000
73C000
71E000
70F000
707000
E07800
E03C00
E01C00
E01E00
ENDCHAR
STARTCHAR 01EA
ENCODING 490
SWIDTH 488 0
DWIDTH 19 0
BBX 18 32 3 -7
BITMAP
003000
01FE00
03FF00
078780
0F0380
1E03C0
1C01C0
3C01C0
3801C0
7801C0
7001C0
7003C0
700380
F00380
E00380
E00780
E00700
E00700
E00F00
E00E00
F01C00
F03C00
78F800
3FF000
1FC000
070000
0E0000
1C0000
1C0000
1F0000
1F0000
040000
ENDCHAR
STARTCHAR 01EB
ENCODING 491
SWIDTH 488 0
DWIDTH 19 0
BBX 17 26 3 -7
BITMAP
002000
03FC00
07FE00
0F9F00
1E0700
3C0780
380780
780780
700780
700700
F00700
E00700
E00F00
E00E00
F01E00
F03C00
7DF800
7FF000
1FC000
038000
070000
0E0000
1C0000
1F8000
1F8000
020000
ENDCHAR
STARTCHAR 01EC
ENCODING 492
SWIDTH 488 0
DWIDTH 19 0
BBX 18 37 3 -7
BITMAP
00FFC0
00FF80
000000
000000
000000
003000
01FE00
03FF00
078780
0F0380
1E03C0
1C01C0
3C01C0
3801C0
7801C0
7001C0
7003C0
700380
F00380
E00380
E00780
E00700
E00700
E00F00
E00E00
F01C00
F03C00
78F800
3FF000
1FC000
070000
0E0000
1C0000
1C0000
1F0000
1F0000
040000
ENDCHAR
STARTCHAR 01ED
ENCODING 493
SWIDTH 488 0
DWIDTH 19 0
BBX 17 32 3 -7
BITMAP
01FF80
01FF80
01FF80
000000
000000
000000
002000
03FC00
07FE00
0F9F00
1E0700
3C0780
380780
780780
700780
700700
F00700
E00700
E00F00
E00E00
F01E00
F03C00
7DF800
7FF000
1FC000
038000
070000
0E0000
1C0000
1F8000
1F8000
020000
ENDCHAR
STARTCHAR 01EE
ENCODING 494
SWIDTH 488 0
DWIDTH 19 0
BBX 20 33 2 -1
BITMAP
003040
0031E0
003B80
001F00
000E00
000C00
000000
000000
03FFF0
07FFF0
07FFE0
0001C0
000380
000700
000E00
003C00
007800
00F000
01F000
01FE00
003F00
000F00
000780
000780
000380
000780
000700
000700
001E00
F07E00
FFF800
7FF000
060000
ENDCHAR
STARTCHAR 01EF
ENCODING 495
SWIDTH 488 0
DWIDTH 19 0
BBX 18 33 2 -6
BITMAP
004080
00E180
007780
003F00
003C00
001800
000000
000000
000000
07FFC0
0FFF80
0FFF80
000700
000E00
001C00
003800
007000
01E000
03C000
03C000
07F000
00FC00
003C00
001C00
001E00
001E00
001C00
001C00
003C00
007800
F3F800
FFF000
FFC000
ENDCHAR
STARTCHAR 01F0
ENCODING 496
SWIDTH 488 0
DWIDTH 19 0
BBX 20 33 1 -7
BITMAP
000820
001870
001CE0
000FC0
000780
000700
000200
000000
000000
01FF80
01FF80
03FF80
000380
000700
000700
000700
000700
000F00
000E00
000E00
000E00
001E00
001C00
001C00
001C00
003C00
003800
003800
007800
007000
61F000
FFE000
FF8000
ENDCHAR
STARTCHAR 01F1
ENCODING 497
SWIDTH 488 0
DWIDTH 19 0
BBX 23 24 1 0
BITMAP
07E0FE
07F0FE
0778FC
06381C
0E3818
0E3838
0E3830
0E3870
1C3860
1C38E0
1C38C0
1C71C0
187180
387380
387300
38E700
30E600
71CE00
71CE00
739C00
639C00
FF3FC0
FE3FC0
FC3F80
ENDCHAR
STARTCHAR 01F2
ENCODING 498
SWIDTH 488 0
DWIDTH 19 0
BBX 22 24 1 0
BITMAP
07E000
07F000
077000
063800
0E3800
0E3800
0E39FC
0C39FC
1C39F8
1C3838
1C3070
187070
3870E0
3870C0
38E1C0
30E180
70E380
71C700
71C700
738E00
E78E00
FF1FE0
FE1FC0
F81FC0
ENDCHAR
STARTCHAR 01F3
ENCODING 499
SWIDTH 488 0
DWIDTH 19 0
BBX 22 27 1 0
BITMAP
000E00
000E00
001C00
001C00
001C00
001C00
001800
003800
003800
07F9FC
0FF1FC
1C71F8
3C7038
387070
706070
70E0E0
70E0C0
E0E1C0
E0E180
E1C380
E1C700
E1C700
E1CE00
E38E00
E39FC0
7F9FC0
7F9FC0
ENDCHAR
STARTCHAR 01F4
ENCODING 500
SWIDTH 488 0
DWIDTH 19 0
BBX 19 33 3 -1
BITMAP
000300
000700
000F00
001E00
003C00
003800
000000
001E00
00FFC0
01FFE0
07E1C0
0F8000
0E0000
1E0000
3C0000
380000
380000
700000
700000
700000
F00700
E00700
E00700
E00F00
E00E00
E00E00
F00E00
701E00
781C00
7E3C00
3FFC00
0FFC00
010000
ENDCHAR
STARTCHAR 01F5
ENCODING 501
SWIDTH 488 0
DWIDTH 19 0
BBX 20 33 1 -6
BITMAP
0000C0
0001E0
0003C0
000F00
000E00
000C00
000000
000000
003FF0
00FFE0
03F0E0
07C0E0
0781E0
0F01C0
1E01C0
1C01C0
1C03C0
1C0380
3C0380
3C0380
3C0380
1C0700
1F3F00
1FFF00
07F700
000E00
000E00
001E00
003C00
707800
FFF800
FFE000
060000
ENDCHAR
STARTCHAR 01F6
ENCODING 502
SWIDTH 488 0
DWIDTH 19 0
BBX 21 25 1 -1
BITMAP
070E00
070E00
070E00
070E00
0E1C00
0E1C00
0E1C38
0E1C70
1C3870
1C3870
1FF870
1FF8E0
3FF8E0
3870E0
3870E0
3871C0
78F1C0
70E1C0
70E1C0
70E380
70E380
E0E780
E0FF00
E07E00
001000
ENDCHAR
STARTCHAR 01F7
ENCODING 503
SWIDTH 488 0
DWIDTH 19 0
BBX 20 30 1 -6
BITMAP
007F80
01FFE0
03F7E0
0380F0
038070
038070
078070
070070
070070
070070
0F00F0
0E00E0
0E01E0
0E01C0
1E03C0
1C0780
1C0F80
1C1F00
1C3E00
38F800
3BF000
3FC000
3F0000
7C0000
700000
700000
700000
F00000
E00000
E00000
ENDCHAR
STARTCHAR 01F8
ENCODING 504
SWIDTH 488 0
DWIDTH 19 0
BBX 20 32 2 0
BITMAP
003000
007800
003800
001C00
000E00
000600
000000
000000
078070
078070
078070
0FC070
0FC0E0
0FC0E0
0EC0E0
0CE0E0
1CE0C0
1CE1C0
1C61C0
1871C0
3871C0
383380
383380
303B80
703B80
703F00
701F00
701F00
E01F00
E01E00
E01E00
E01E00
ENDCHAR
STARTCHAR 01F9
ENCODING 505
SWIDTH 488 0
DWIDTH 19 0
BBX 16 27 3 0
BITMAP
0040
00E0
00E0
0070
0038
003C
0018
0000
0000
0FFC
1FFE
1F3F
1C0F
1C07
3C07
3807
3807
3807
780E
700E
700E
700E
701E
E01C
E01C
E01C
E03C
ENDCHAR
STARTCHAR 01FA
ENCODING 506
SWIDTH 488 0
DWIDTH 19 0
BBX 19 32 0 0
BITMAP
0000C0
0003E0
0007C0
000600
000000
000F80
000CC0
0008C0
0008C0
000DC0
000F80
001F80
001B80
003B80
007380
007380
00E180
00C180
01C180
0381C0
0381C0
0701C0
0701C0
0FFFC0
0FFFC0
1FFFC0
1C01C0
3801C0
7801C0
7001C0
F001C0
E001C0
ENDCHAR
STARTCHAR 01FB
ENCODING 507
SWIDTH 488 0
DWIDTH 19 0
BBX 17 31 3 1
BITMAP
000300
000F80
001E00
001000
000000
003E00
007600
006300
006300
003600
001C00
000000
000000
01FF80
07FF80
0FC700
1E0700
3C0700
780700
700E00
F00E00
F00E00
E00E00
E01E00
E01C00
E01C00
E01C00
F03C00
F8FC00
7FFC00
3F9C00
ENDCHAR
STARTCHAR 01FC
ENCODING 508
SWIDTH 488 0
DWIDTH 19 0
BBX 22 32 1 0
BITMAP
000018
000038
000078
0000F0
0001E0
000180
000000
000000
000FFC
000FFC
001FFC
003F80
003700
007700
006700
00E700
01CE00
01CE00
038FE0
038FE0
071FC0
071C00
0E1C00
0FFC00
1FF800
1FF800
383800
383800
707000
707FC0
E07F80
E07F80
ENDCHAR
STARTCHAR 01FD
ENCODING 509
SWIDTH 488 0
DWIDTH 19 0
BBX 19 27 2 0
BITMAP
000100
000300
000780
000F00
001E00
003800
001000
000000
000000
1F87C0
1FCFE0
19FDE0
00F8E0
00F0E0
00F0E0
00E1E0
07E3C0
1FFF80
3FFF00
78FC00
F1E000
E1E000
E1E000
E3E000
E7FB00
FE7F00
7C3F00
ENDCHAR
STARTCHAR 01FE
ENCODING 510
SWIDTH 488 0
DWIDTH 19 0
BBX 20 33 2 -1
BITMAP
000600
000F00
001F00
003C00
007800
007000
000000
001860
00FFF0
01FFE0
03C3C0
0783C0
0F03C0
0E07E0
1C0EE0
1C1CE0
381CE0
3839E0
3871C0
7871C0
70E1C0
71C1C0
738380
738380
770380
7E0700
7C0F00
7C0E00
781C00
7C7C00
7FF800
FFE000
C10000
ENDCHAR
STARTCHAR 01FF
ENCODING 511
SWIDTH 488 0
DWIDTH 19 0
BBX 20 28 1 -1
BITMAP
000100
000300
000780
000F00
001E00
003800
001000
000000
000030
00FF70
01FFE0
03E7C0
0783C0
0F07E0
0E0EE0
1C1CE0
1C39E0
1C71C0
38E1C0
39C1C0
3B83C0
3F0380
3E0780
3C0F00
3F7E00
7FFC00
E7F000
600000
ENDCHAR
STARTCHAR 0200
ENCODING 512
SWIDTH 488 0
DWIDTH 19 0
BBX 20 32 0 0
BITMAP
002080
00F3C0
0079C0
0038E0
001C60
000C30
000020
000000
000F80
000F80
001F80
001B80
003B80
007380
007380
00E380
00E380
01C1C0
0181C0
0381C0
0701C0
0701C0
0E01C0
0FFFC0
1FFFC0
1FFFC0
3801C0
3801C0
7001C0
7001C0
E001C0
E001C0
ENDCHAR
STARTCHAR 0201
ENCODING 513
SWIDTH 488 0
DWIDTH 19 0
BBX 17 26 3 1
BITMAP
031C00
079C00
038E00
01C600
00C700
00C300
000000
000000
01FF80
07FF80
0FC700
1E0700
3C0700
780700
700E00
F00E00
F00E00
E00E00
E01E00
E01C00
E01C00
E01C00
F03C00
F8FC00
7FFC00
3F9C00
ENDCHAR
STARTCHAR 0202
ENCODING 514
SWIDTH 488 0
DWIDTH 19 0
BBX 20 32 0 0
BITMAP
000100
000FE0
001FE0
001870
001830
000000
000000
000000
000F80
000F80
001F80
001B80
003B80
007380
007380
00E380
00E380
01C1C0
0181C0
0381C0
0701C0
0701C0
0E01C0
0FFFC0
1FFFC0
1FFFC0
3801C0
3801C0
7001C0
7001C0
E001C0
E001C0
ENDCHAR
STARTCHAR 0203
ENCODING 515
SWIDTH 488 0
DWIDTH 19 0
BBX 17 26 3 0
BITMAP
003C00
00FF00
00E700
01C300
018300
000000
000000
000000
01FF80
07FF80
0FC700
1E0700
3C0700
780700
700E00
F00E00
F00E00
E00E00
E01E00
E01C00
E01C00
E01C00
F03C00
F8FC00
7FFC00
3F9C00
ENDCHAR
STARTCHAR 0204
ENCODING 516
SWIDTH 488 0
DWIDTH 19 0
BBX 19 32 3 0
BITMAP
008600
03CE00
01C700
00E380
006380
0071C0
002000
000000
07FFE0
07FFE0
07FFC0
070000
0F0000
0E0000
0E0000
0E0000
0E0000
1C0000
1FFE00
1FFE00
1FFE00
3C0000
380000
380000
380000
780000
700000
700000
700000
FFFE00
FFFC00
FFFC00
ENDCHAR
STARTCHAR 0205
ENCODING 517
SWIDTH 488 0
DWIDTH 19 0
BBX 17 26 3 1
BITMAP
031C00
079C00
038E00
01C600
00C700
00C300
000000
000000
03FE00
07FF00
1F8F00
3E0780
3C0780
780700
700700
F01F00
EFFE00
FFF800
FF8000
E00000
E00000
E00000
F00000
7E3C00
3FFC00
1FF800
ENDCHAR
STARTCHAR 0206
ENCODING 518
SWIDTH 488 0
DWIDTH 19 0
BBX 19 32 3 0
BITMAP
000400
003F80
007F80
0061C0
00E0C0
000000
000000
000000
07FFE0
07FFE0
07FFC0
070000
0F0000
0E0000
0E0000
0E0000
0E0000
1C0000
1FFE00
1FFE00
1FFE00
3C0000
380000
380000
380000
780000
700000
700000
700000
FFFE00
FFFC00
FFFC00
ENDCHAR
STARTCHAR 0207
ENCODING 519
SWIDTH 488 0
DWIDTH 19 0
BBX 17 26 3 0
BITMAP
007C00
00FE00
01C700
018300
018300
000000
000000
000000
03FE00
07FF00
1F8F00
3E0780
3C0780
780700
700700
F01F00
EFFE00
FFF800
FF8000
E00000
E00000
E00000
F00000
7E3C00
3FFC00
1FF800
ENDCHAR
STARTCHAR 0208
ENCODING 520
SWIDTH 488 0
DWIDTH 19 0
BBX 18 32 3 0
BITMAP
010400
079E00
03CE00
01C700
00E300
006180
000100
000000
07FFC0
07FFC0
07FF80
007800
007000
007000
007000
00F000
00E000
00E000
00E000
01E000
01C000
01C000
01C000
03C000
038000
038000
038000
078000
070000
FFF800
FFF800
FFF000
ENDCHAR
STARTCHAR 0209
ENCODING 521
SWIDTH 488 0
DWIDTH 19 0
BBX 13 27 5 0
BITMAP
0040
38C0
38E0
1CE0
1C70
0E38
0610
0000
0000
7F80
FF80
FF80
0700
0700
0700
0F00
0E00
0E00
0E00
0E00
1E00
1C00
1C00
1E00
0FF0
0FE0
07E0
ENDCHAR
STARTCHAR 020A
ENCODING 522
SWIDTH 488 0
DWIDTH 19 0
BBX 18 32 3 0
BITMAP
000800
003F00
007F80
00E380
00C180
000000
000000
000000
07FFC0
07FFC0
07FF80
007800
007000
007000
007000
00F000
00E000
00E000
00E000
01E000
01C000
01C000
01C000
03C000
038000
038000
038000
078000
070000
FFF800
FFF800
FFF000
ENDCHAR
STARTCHAR 020B
ENCODING 523
SWIDTH 488 0
DWIDTH 19 0
BBX 13 26 5 0
BITMAP
03E0
07F0
0E70
1C38
1830
0000
0000
0000
7F80
FF80
FF80
0700
0700
0700
0F00
0E00
0E00
0E00
0E00
1E00
1C00
1C00
1E00
0FF0
0FE0
07E0
ENDCHAR
STARTCHAR 020C
ENCODING 524
SWIDTH 488 0
DWIDTH 19 0
BBX 18 33 3 -1
BITMAP
018400
038E00
01CF00
01E700
00E380
007180
000000
001000
00FE00
03FF80
07C780
0F03C0
0E03C0
1C01C0
3C01C0
3801C0
3801C0
7801C0
7001C0
7003C0
700380
F00380
E00380
E00700
E00700
E00F00
E00E00
F01E00
703C00
7CF800
3FF000
1FC000
020000
ENDCHAR
STARTCHAR 020D
ENCODING 525
SWIDTH 488 0
DWIDTH 19 0
BBX 17 27 3 0
BITMAP
000800
071800
071C00
039C00
038E00
01C700
00C300
000000
000000
03FC00
07FE00
0F9F00
1E0700
3C0780
380780
780780
700780
700700
F00700
E00700
E00F00
E00E00
F01E00
F03C00
7DF800
7FF000
1FC000
ENDCHAR
STARTCHAR 020E
ENCODING 526
SWIDTH 488 0
DWIDTH 19 0
BBX 18 33 3 -1
BITMAP
000C00
003F00
007F80
00E180
00C180
000000
000000
001000
00FE00
03FF80
07C780
0F03C0
0E03C0
1C01C0
3C01C0
3801C0
3801C0
7801C0
7001C0
7003C0
700380
F00380
E00380
E00700
E00700
E00F00
E00E00
F01E00
703C00
7CF800
3FF000
1FC000
020000
ENDCHAR
STARTCHAR 020F
ENCODING 527
SWIDTH 488 0
DWIDTH 19 0
BBX 17 26 3 0
BITMAP
007C00
00FE00
01C700
018300
018300
000000
000000
000000
03FC00
07FE00
0F9F00
1E0700
3C0780
380780
780780
700780
700700
F00700
E00700
E00F00
E00E00
F01E00
F03C00
7DF800
7FF000
1FC000
ENDCHAR
STARTCHAR 0210
ENCODING 528
SWIDTH 488 0
DWIDTH 19 0
BBX 19 32 2 0
BITMAP
018400
038E00
01CF00
01C700
00E380
007180
000000
000000
07FF00
07FF80
078FC0
0703C0
0F01C0
0E01E0
0E01C0
0E01C0
1E01C0
1C03C0
1C0780
1C1F00
3FFE00
3FF800
3FF000
383800
383800
703C00
701C00
701C00
701E00
F00E00
E00E00
E00E00
ENDCHAR
STARTCHAR 0211
ENCODING 529
SWIDTH 488 0
DWIDTH 19 0
BBX 16 26 4 1
BITMAP
0638
0F38
071C
038C
018E
0186
0000
0000
07FF
1FFF
1F86
1C00
1C00
3C00
3800
3800
3800
7800
7000
7000
7000
7000
F000
E000
E000
E000
ENDCHAR
STARTCHAR 0212
ENCODING 530
SWIDTH 488 0
DWIDTH 19 0
BBX 19 32 2 0
BITMAP
000400
001F80
003FC0
0071C0
0060C0
000000
000000
000000
07FF00
07FF80
078FC0
0703C0
0F01C0
0E01E0
0E01C0
0E01C0
1E01C0
1C03C0
1C0780
1C1F00
3FFE00
3FF800
3FF000
383800
383800
703C00
701C00
701C00
701E00
F00E00
E00E00
E00E00
ENDCHAR
STARTCHAR 0213
ENCODING 531
SWIDTH 488 0
DWIDTH 19 0
BBX 16 26 4 0
BITMAP
0078
01FE
01CE
0386
0306
0000
0000
0000
07FF
1FFF
1F86
1C00
1C00
3C00
3800
3800
3800
7800
7000
7000
7000
7000
F000
E000
E000
E000
ENDCHAR
STARTCHAR 0214
ENCODING 532
SWIDTH 488 0
DWIDTH 19 0
BBX 19 33 3 -1
BITMAP
010400
079E00
03CE00
01C700
00E300
006180
000100
000000
0E00E0
0E00E0
0E00E0
1E01E0
1C01C0
1C01C0
1C01C0
3C03C0
380380
380380
380380
780780
700700
700700
700700
F00F00
E00E00
E00E00
E01E00
F01C00
703C00
787800
3FF000
1FE000
020000
ENDCHAR
STARTCHAR 0215
ENCODING 533
SWIDTH 488 0
DWIDTH 19 0
BBX 17 27 3 0
BITMAP
000800
071800
071C00
039C00
038E00
01C700
00C300
000000
000000
1C0380
1C0780
3C0700
380700
380700
380F00
780E00
700E00
700E00
700E00
F01E00
F01C00
E01C00
F01C00
F03C00
78FC00
7FFC00
3F9C00
ENDCHAR
STARTCHAR 0216
ENCODING 534
SWIDTH 488 0
DWIDTH 19 0
BBX 19 33 3 -1
BITMAP
000800
003F00
007F80
00E380
00C180
000000
000000
000000
0E00E0
0E00E0
0E00E0
1E01E0
1C01C0
1C01C0
1C01C0
3C03C0
380380
380380
380380
780780
700700
700700
700700
F00F00
E00E00
E00E00
E01E00
F01C00
703C00
787800
3FF000
1FE000
020000
ENDCHAR
STARTCHAR 0217
ENCODING 535
SWIDTH 488 0
DWIDTH 19 0
BBX 17 26 3 0
BITMAP
007C00
00FE00
01C700
018300
018300
000000
000000
000000
1C0380
1C0780
3C0700
380700
380700
380F00
780E00
700E00
700E00
700E00
F01E00
F01C00
E01C00
F01C00
F03C00
78FC00
7FFC00
3F9C00
ENDCHAR
STARTCHAR 0218
ENCODING 536
SWIDTH 488 0
DWIDTH 19 0
BBX 19 32 2 -7
BITMAP
001E00
00FFC0
01FFE0
03E1C0
078000
070000
070000
0F0000
070000
070000
07C000
03E000
01F800
007E00
003E00
000F00
000700
000700
000700
000700
000F00
401E00
787E00
FFFC00
7FF000
030000
000000
070000
0E0000
3E0000
7C0000
600000
ENDCHAR
STARTCHAR 0219
ENCODING 537
SWIDTH 488 0
DWIDTH 19 0
BBX 16 25 3 -7
BITMAP
03FF
07FF
0F87
0E00
0E00
0E00
0F00
0F80
07F0
01F8
007C
003C
001C
001C
403C
70F8
FFF8
7FE0
0000
0000
0E00
0E00
3E00
7C00
3000
ENDCHAR
STARTCHAR 021A
ENCODING 538
SWIDTH 488 0
DWIDTH 19 0
BBX 20 31 3 -7
BITMAP
1FFFF0
1FFFF0
1FFFE0
007000
007000
007000
007000
00F000
00E000
00E000
00E000
01E000
01C000
01C000
01C000
03C000
038000
038000
038000
078000
070000
070000
070000
0F0000
000000
000000
0E0000
1E0000
7C0000
F80000
600000
ENDCHAR
STARTCHAR 021B
ENCODING 539
SWIDTH 488 0
DWIDTH 19 0
BBX 15 30 5 -6
BITMAP
0380
0380
0780
0700
0700
7FFE
7FFE
FFFC
0E00
0E00
1E00
1C00
1C00
1C00
3C00
3C00
3800
3800
3800
3800
3E70
1FF0
1FF0
0000
0000
0F00
0E00
3E00
7C00
2000
ENDCHAR
STARTCHAR 021C
ENCODING 540
SWIDTH 488 0
DWIDTH 19 0
BBX 21 31 -1 -6
BITMAP
000400
00FFE0
01FFF0
01C0F8
000078
000038
000038
000038
000038
000078
000070
0001F0
0007E0
00FF80
01FE00
01FF80
000FC0
0003C0
0001E0
0000E0
0000E0
0000E0
0000E0
0001E0
0001C0
0003C0
000780
003F00
07FE00
7FF800
FFC000
ENDCHAR
STARTCHAR 021D
ENCODING 541
SWIDTH 488 0
DWIDTH 19 0
BBX 18 25 1 -6
BITMAP
003000
07FF00
07FF80
070F80
0003C0
0003C0
0003C0
000380
000780
000F00
00FE00
03FC00
03FC00
007E00
000F00
000700
000700
000700
000F00
000E00
001E00
007C00
0FF800
FFE000
FF0000
ENDCHAR
STARTCHAR 021E
ENCODING 542
SWIDTH 488 0
DWIDTH 19 0
BBX 20 32 2 0
BITMAP
003040
0031E0
003B80
001F00
000E00
000C00
000000
000000
070070
070070
070070
0F00F0
0E00E0
0E00E0
0E00E0
1E01E0
1C01C0
1C01C0
1FFFC0
3FFFC0
3FFF80
380380
380380
780780
700700
700700
700700
F00700
E00E00
E00E00
E00E00
E00E00
ENDCHAR
STARTCHAR 021F
ENCODING 543
SWIDTH 488 0
DWIDTH 19 0
BBX 17 32 2 0
BITMAP
010C00
01DC00
00F800
00F000
004000
000000
018000
038000
078000
070000
070000
070000
0F0000
0E0000
0FFC00
0FFE00
1F1F00
1C0700
1C0700
1C0780
3C0700
380700
380700
380700
380F00
780E00
700E00
700E00
701E00
F01C00
E01C00
E01C00
ENDCHAR
STARTCHAR 0220
ENCODING 544
SWIDTH 488 0
DWIDTH 19 0
BBX 19 31 2 -6
BITMAP
001800
07FF80
07FFC0
0703E0
0F01E0
0E00E0
0E00E0
0E00E0
1E00E0
1C01E0
1C01C0
1C01C0
3C01C0
3803C0
380380
380380
780380
700780
700700
700700
F00700
E00F00
E00E00
E00E00
E00E00
001E00
001C00
001C00
001C00
001C00
003C00
ENDCHAR
STARTCHAR 0221
ENCODING 545
SWIDTH 488 0
DWIDTH 19 0
BBX 17 33 2 -7
BITMAP
000700
000700
000F00
000E00
000E00
000E00
001E00
001C00
001C00
03FC00
0FFC00
1E3C00
3C3800
383800
703800
707800
F07000
E07000
E07000
E0F000
E0E000
E0E000
E0E000
F1E000
FBFF00
7FFF80
3FE380
01C180
038380
078380
1FC700
3DFF00
18FE00
ENDCHAR
STARTCHAR 0222
ENCODING 546
SWIDTH 488 0
DWIDTH 19 0
BBX 19 24 2 0
BITMAP
01C0E0
0380E0
0380E0
0781E0
0701E0
0701C0
0701C0
0703C0
070780
07DF00
03FE00
0FFF00
1F9F80
3C0780
780380
700380
700380
F00380
F00780
F00700
780F00
7FFE00
3FFC00
0FF000
ENDCHAR
STARTCHAR 0223
ENCODING 547
SWIDTH 488 0
DWIDTH 19 0
BBX 19 27 3 0
BITMAP
0380E0
0380E0
0701E0
0701C0
0F01C0
0E01C0
0E01C0
0E03C0
0E0380
0F0700
07FF00
03FC00
0FFE00
1E1E00
380F00
780700
700700
F00700
E00700
E00700
E00F00
E00E00
E01E00
F03C00
7CFC00
7FF000
1FE000
ENDCHAR
STARTCHAR 0224
ENCODING 548
SWIDTH 488 0
DWIDTH 19 0
BBX 20 31 2 -7
BITMAP
07FFF0
07FFF0
07FFF0
0001E0
0003C0
000780
000F00
001E00
001C00
003800
007000
00F000
01E000
03C000
078000
070000
0E0000
1E0000
3C0000
780000
700000
FFFE00
FFFE00
FFFE00
000E00
001E00
001C00
003C00
01F800
03F000
008000
ENDCHAR
STARTCHAR 0225
ENCODING 549
SWIDTH 488 0
DWIDTH 19 0
BBX 18 25 2 -7
BITMAP
07FFC0
07FF80
0FFF80
000F00
001E00
003C00
007800
00F000
01E000
03C000
078000
0F0000
1E0000
1C0000
380000
7FFC00
7FFC00
FFFC00
001C00
003800
003800
007800
03F000
07E000
010000
ENDCHAR
STARTCHAR 0226
ENCODING 550
SWIDTH 488 0
DWIDTH 19 0
BBX 18 31 0 0
BITMAP
000380
000780
000780
000380
000000
000000
000000
000F80
000F80
001F80
001B80
003B80
007380
007380
00E380
00E380
01C1C0
0181C0
0381C0
0701C0
0701C0
0E01C0
0FFFC0
1FFFC0
1FFFC0
3801C0
3801C0
7001C0
7001C0
E001C0
E001C0
ENDCHAR
STARTCHAR 0227
ENCODING 551
SWIDTH 488 0
DWIDTH 19 0
BBX 17 26 3 0
BITMAP
000800
003C00
003C00
003C00
000800
000000
000000
000000
01FF80
07FF80
0FC700
1E0700
3C0700
780700
700E00
F00E00
F00E00
E00E00
E01E00
E01C00
E01C00
E01C00
F03C00
F8FC00
7FFC00
3F9C00
ENDCHAR
STARTCHAR 0228
ENCODING 552
SWIDTH 488 0
DWIDTH 19 0
BBX 19 31 2 -7
BITMAP
03FFE0
07FFE0
07FFE0
070000
070000
070000
0F0000
0E0000
0E0000
0E0000
1FFF00
1FFE00
1FFE00
1C0000
3C0000
380000
380000
380000
780000
700000
700000
7FFE00
FFFE00
FFFE00
018000
038000
03C000
01C000
0FC000
0F8000
060000
ENDCHAR
STARTCHAR 0229
ENCODING 553
SWIDTH 488 0
DWIDTH 19 0
BBX 17 25 3 -7
BITMAP
03FE00
07FF00
1F8F00
3E0780
3C0780
780700
700700
F01F00
EFFE00
FFF800
FF8000
E00000
E00000
E00000
F00000
7E3C00
3FFC00
1FF800
030000
070000
078000
038000
1F8000
1F0000
0C0000
ENDCHAR
STARTCHAR 022A
ENCODING 554
SWIDTH 488 0
DWIDTH 19 0
BBX 18 33 3 -1
BITMAP
007FC0
007FC0
000000
00C180
01E3C0
01C380
008180
000000
007C00
01FF00
03FF80
078780
0F03C0
1E01C0
1C01C0
3C01C0
3801C0
7801C0
7001C0
7003C0
700380
F00380
F00380
E00780
E00700
E00F00
E00E00
F01E00
703C00
7CF800
3FF000
1FE000
020000
ENDCHAR
STARTCHAR 022B
ENCODING 555
SWIDTH 488 0
DWIDTH 19 0
BBX 18 28 3 0
BITMAP
007FC0
00FF80
000000
000000
01C380
03C380
01C380
008100
000000
000000
03FC00
07FE00
0F9F00
1E0700
3C0780
380780
780780
700780
700700
F00700
E00700
E00F00
E00E00
F01E00
F03C00
7DF800
7FF000
1FC000
ENDCHAR
STARTCHAR 022C
ENCODING 556
SWIDTH 488 0
DWIDTH 19 0
BBX 18 33 3 -1
BITMAP
007FC0
007FC0
000000
007080
00FF80
01DF80
008600
000000
007C00
01FF00
03FF80
078780
0F03C0
1E01C0
1C01C0
3C01C0
3801C0
7801C0
7001C0
7003C0
700380
F00380
F00380
E00780
E00700
E00F00
E00E00
F01E00
703C00
7CF800
3FF000
1FE000
020000
ENDCHAR
STARTCHAR 022D
ENCODING 557
SWIDTH 488 0
DWIDTH 19 0
BBX 18 28 3 0
BITMAP
007FC0
00FF80
000000
000000
00F180
01FF80
019F00
000000
000000
000000
03FC00
07FE00
0F9F00
1E0700
3C0780
380780
780780
700780
700700
F00700
E00700
E00F00
E00E00
F01E00
F03C00
7DF800
7FF000
1FC000
ENDCHAR
STARTCHAR 022E
ENCODING 558
SWIDTH 488 0
DWIDTH 19 0
BBX 18 32 3 -1
BITMAP
000E00
001E00
001E00
001E00
000000
000000
001000
00FE00
03FF80
07C780
0F03C0
0E03C0
1C01C0
3C01C0
3801C0
3801C0
7801C0
7001C0
7003C0
700380
F00380
E00380
E00700
E00700
E00F00
E00E00
F01E00
703C00
7CF800
3FF000
1FC000
020000
ENDCHAR
STARTCHAR 022F
ENCODING 559
SWIDTH 488 0
DWIDTH 19 0
BBX 17 25 3 1
BITMAP
003C00
003C00
003C00
001800
000000
000000
000000
03FC00
07FE00
0F9F00
1E0700
3C0780
380780
780780
700780
700700
F00700
E00700
E00F00
E00E00
F01E00
F03C00
7DF800
7FF000
1FC000
ENDCHAR
STARTCHAR 0230
ENCODING 560
SWIDTH 488 0
DWIDTH 19 0
BBX 18 33 3 -1
BITMAP
007FC0
007FC0
000000
000C00
001E00
001E00
000C00
000000
007C00
01FF00
03FF80
078780
0F03C0
1E01C0
1C01C0
3C01C0
3801C0
7801C0
7001C0
7003C0
700380
F00380
F00380
E00780
E00700
E00F00
E00E00
F01E00
703C00
7CF800
3FF000
1FE000
020000
ENDCHAR
STARTCHAR 0231
ENCODING 561
SWIDTH 488 0
DWIDTH 19 0
BBX 17 28 3 0
BITMAP
00FF80
00FF80
000000
000000
003800
003C00
003800
001000
000000
000000
03FC00
07FE00
0F9F00
1E0700
3C0780
380780
780780
700780
700700
F00700
E00700
E00F00
E00E00
F01E00
F03C00
7DF800
7FF000
1FC000
ENDCHAR
STARTCHAR 0232
ENCODING 562
SWIDTH 488 0
DWIDTH 19 0
BBX 18 30 6 0
BITMAP
07FE00
07FE00
000000
000000
000000
000000
E003C0
E00380
E00780
E00F00
700E00
701C00
703C00
703800
387000
38E000
39E000
1DC000
1F8000
1F0000
0E0000
0E0000
1E0000
1C0000
1C0000
1C0000
3C0000
380000
380000
380000
ENDCHAR
STARTCHAR 0233
ENCODING 563
SWIDTH 488 0
DWIDTH 19 0
BBX 22 32 -1 -7
BITMAP
001FF0
003FF0
003FF0
000000
000000
000000
000000
03C03C
03C038
03C038
01C078
01C070
01C070
01C0E0
01C0E0
01E1E0
00E1C0
00E3C0
00E380
00E780
00F700
007F00
007E00
007C00
003C00
003800
007000
00E000
43C000
7F8000
FF0000
300000
ENDCHAR
STARTCHAR 0234
ENCODING 564
SWIDTH 488 0
DWIDTH 19 0
BBX 15 33 2 -7
BITMAP
03FC
07FC
07FC
0038
0038
0038
0078
0070
0070
0070
00F0
00E0
00E0
00E0
01E0
01C0
01C0
01C0
03C0
0380
0380
0380
0780
0700
07FC
07FE
078E
0E0E
1E0E
3E0E
771C
E7F8
C3F0
ENDCHAR
STARTCHAR 0235
ENCODING 565
SWIDTH 488 0
DWIDTH 19 0
BBX 18 25 1 -7
BITMAP
0FF000
0FF800
1E7C00
1C3C00
1C1C00
1C1C00
3C3C00
383800
383800
383800
787800
787000
707000
707000
70F000
F0FF80
E0FFC0
E0F1C0
00E0C0
01E0C0
03C1C0
07E380
1EFF80
0C7F00
080000
ENDCHAR
STARTCHAR 0236
ENCODING 566
SWIDTH 488 0
DWIDTH 19 0
BBX 18 31 2 -7
BITMAP
000800
007000
007000
007000
00F000
00E000
0FFFC0
0FFFC0
0FFFC0
01C000
01C000
01C000
03C000
038000
038000
038000
078000
070000
070000
070000
070000
0FF800
0FFC00
0F1C00
0E0C00
1E0C00
3E1C00
7E3800
EFF800
C7F000
800000
ENDCHAR
STARTCHAR 0237
ENCODING 567
SWIDTH 488 0
DWIDTH 19 0
BBX 17 24 1 -7
BITMAP
01FF80
01FF80
03FF80
000380
000700
000700
000700
000700
000F00
000E00
000E00
000E00
001E00
001C00
001C00
001C00
003C00
003800
003800
007800
007000
61F000
FFE000
FF8000
ENDCHAR
STARTCHAR 0238
ENCODING 568
SWIDTH 488 0
DWIDTH 19 0
BBX 19 27 2 0
BITMAP
000E00
000E00
000C00
001C00
001C00
001C00
001800
003800
003800
07FF80
0FFFC0
1E79C0
3C71C0
3870E0
7870E0
70E1E0
70E1C0
E0E1C0
E0E1C0
E1C1C0
E1C3C0
E1C380
E1C780
E18700
F38E00
7FFE00
7FF800
ENDCHAR
STARTCHAR 0239
ENCODING 569
SWIDTH 488 0
DWIDTH 19 0
BBX 19 24 2 -6
BITMAP
07FF80
0FFFC0
1E71C0
3C71C0
3870E0
7870E0
70E0E0
70E1E0
E0E1C0
E0E1C0
E1C1C0
E1C3C0
E1C380
E1C780
E38700
E38F00
7FFE00
7FF800
170000
070000
070000
070000
060000
0E0000
ENDCHAR
STARTCHAR 023A
ENCODING 570
SWIDTH 488 0
DWIDTH 19 0
BBX 21 30 0 -4
BITMAP
000018
000018
000038
0007B0
000FF0
001FE0
001FE0
003BC0
0039C0
007180
00E3C0
00E3C0
01C7C0
01C7C0
038FC0
038DC0
071DC0
0719C0
0FFFC0
0FFFC0
1FFFC0
3C61C0
38E1C0
78C1C0
71C1C0
F181C0
E381C0
030000
070000
060000
ENDCHAR
STARTCHAR 023B
ENCODING 571
SWIDTH 488 0
DWIDTH 19 0
BBX 20 30 3 -4
BITMAP
0000C0
0000E0
0007C0
007FE0
01FFF0
03F3E0
078720
0F0600
1E0E00
1C0C00
3C1C00
381800
383800
703000
707000
70E000
70E000
71C000
F1C000
F38000
738000
770000
7F0000
7E0000
3E3C00
1FFC00
1FF800
390000
380000
700000
ENDCHAR
STARTCHAR 023C
ENCODING 572
SWIDTH 488 0
DWIDTH 19 0
BBX 17 24 3 -3
BITMAP
000300
000300
001E00
01FF80
07FF80
0FCF00
1E1800
3C1800
383000
783000
706000
F06000
F0C000
E0C000
E18000
E18000
F30000
7B0000
7E1C00
3FFC00
0FFC00
1C0000
180000
180000
ENDCHAR
STARTCHAR 023D
ENCODING 573
SWIDTH 488 0
DWIDTH 19 0
BBX 13 24 4 0
BITMAP
0700
0700
0700
0700
0F00
0E00
0E00
0E00
1E00
1C00
FFF0
FFE0
FFE0
3800
3800
3800
7800
7000
7000
7000
F000
FFF8
FFF8
FFF8
ENDCHAR
STARTCHAR 023E
ENCODING 574
SWIDTH 488 0
DWIDTH 19 0
BBX 24 27 1 -1
BITMAP
000003
000007
07FFFE
07FFFC
07FFF8
001C38
001C70
001CE0
001DC0
003F80
003F00
003E00
003C00
007800
007800
007000
00F000
01F000
03E000
07E000
0EE000
0FE000
1DC000
39C000
71C000
E3C000
C00000
ENDCHAR
STARTCHAR 023F
ENCODING 575
SWIDTH 488 0
DWIDTH 19 0
BBX 16 24 3 -5
BITMAP
03FF
07FF
0F87
0E00
1E00
1E00
0E00
0F80
07E0
01F8
007C
003C
001C
001C
403C
7DF8
FFF8
7FE0
3800
3800
1C00
0F00
0FE0
07E0
ENDCHAR
STARTCHAR 0240
ENCODING 576
SWIDTH 488 0
DWIDTH 19 0
BBX 18 24 2 -6
BITMAP
07FFC0
07FF80
0FFF80
000F00
001E00
003C00
007800
00F000
01E000
03C000
078000
0F0000
1E0000
1C0000
380000
700000
7C0000
FE0000
0F0000
078000
03C000
01F400
01FC00
00FC00
ENDCHAR
STARTCHAR 0241
ENCODING 577
SWIDTH 488 0
DWIDTH 19 0
BBX 16 25 5 0
BITMAP
01C0
1FF8
3FFE
381E
200E
000F
000F
000E
001E
003C
00F8
01F0
07C0
0F80
1E00
1C00
3C00
3800
3800
7800
7000
7000
7000
7000
F000
ENDCHAR
STARTCHAR 0242
ENCODING 578
SWIDTH 488 0
DWIDTH 19 0
BBX 13 19 6 0
BITMAP
0100
7FE0
7FF0
7078
0038
0038
0038
0078
01F0
07E0
1F80
3E00
3800
7800
7000
7000
7000
F000
E000
ENDCHAR
STARTCHAR 0243
ENCODING 579
SWIDTH 488 0
DWIDTH 19 0
BBX 19 24 2 0
BITMAP
03FF00
03FFC0
03C7C0
0381E0
0781E0
0700E0
0700E0
0701C0
0703C0
0E0780
0FFF00
0FFE00
0FFF00
1E0780
1C0380
1C0380
7FC380
FFC380
380380
380780
380F00
7DFE00
7FFC00
7FF000
ENDCHAR
STARTCHAR 0244
ENCODING 580
SWIDTH 488 0
DWIDTH 19 0
BBX 19 25 3 -1
BITMAP
0701E0
0701C0
0F01C0
0E01C0
0E03C0
0E0380
1E0380
1C0380
1C0780
1C0700
FFFFC0
FFFFC0
380700
380F00
780E00
700E00
700E00
701E00
701C00
701C00
703800
7C7800
3FF000
1FE000
020000
ENDCHAR
STARTCHAR 0245
ENCODING 581
SWIDTH 488 0
DWIDTH 19 0
BBX 18 24 0 0
BITMAP
000F80
000F80
001F80
001B80
003B80
007380
007380
00E380
00E380
01C3C0
0181C0
0381C0
0701C0
0701C0
0E01C0
0E01C0
1C01C0
1C01C0
3801C0
3801C0
7001C0
7001C0
E001C0
E001C0
ENDCHAR
STARTCHAR 0246
ENCODING 582
SWIDTH 488 0
DWIDTH 19 0
BBX 22 30 2 -4
BITMAP
00001C
000038
03FFF8
07FFF0
07FFE0
0700E0
0701C0
0701C0
0F0380
0E0700
0E0700
0E0E00
1FFF80
1FFF80
1FFF00
1C3800
3C7000
38E000
38E000
39C000
7B8000
738000
770000
7FFF00
FFFF00
FFFF00
1C0000
380000
700000
300000
ENDCHAR
STARTCHAR 0247
ENCODING 583
SWIDTH 488 0
DWIDTH 19 0
BBX 17 25 3 -3
BITMAP
000800
000C00
000C00
001C00
01FE00
07FF00
0FB780
1E7380
3C6380
386380
70E700
70CF00
71FE00
FFF800
FF8000
E30000
E70000
E60000
760000
7E1C00
3FFC00
1FFC00
180000
380000
300000
ENDCHAR
STARTCHAR 0248
ENCODING 584
SWIDTH 488 0
DWIDTH 19 0
BBX 19 25 2 -1
BITMAP
01FFE0
01FFC0
01FFC0
0001C0
0001C0
0003C0
000380
000380
000380
000780
00FFE0
00FFE0
00FFE0
000F00
000E00
000E00
000E00
001E00
001C00
003C00
403800
F8F800
FFF000
3FE000
060000
ENDCHAR
STARTCHAR 0249
ENCODING 585
SWIDTH 488 0
DWIDTH 19 0
BBX 19 33 0 -7
BITMAP
0001C0
0003E0
0003E0
0003C0
0003C0
000000
000000
000000
01FFC0
01FF80
01FF80
000380
000380
000700
000700
03FFE0
07FFE0
07FFE0
000E00
000E00
000E00
001E00
001C00
001C00
001C00
003C00
003800
003800
007800
70F000
FFE000
7FC000
040000
ENDCHAR
STARTCHAR 024A
ENCODING 586
SWIDTH 488 0
DWIDTH 19 0
BBX 17 32 3 -7
BITMAP
003000
01FE00
03FF00
078F00
0F0780
1E0380
1C0380
380380
380380
780380
700380
700380
700380
F00700
E00700
E00700
E00F00
E00F00
E00E00
E01E00
F03E00
F07E00
78FC00
7FFC00
1F9C00
043C00
003800
003800
003800
003E00
001E00
000400
ENDCHAR
STARTCHAR 024B
ENCODING 587
SWIDTH 488 0
DWIDTH 19 0
BBX 17 25 3 -7
BITMAP
00FF80
03FF80
0FC380
1F0780
3C0700
380700
780700
700F00
700E00
F00E00
E00E00
E01E00
E01C00
F01C00
F03C00
78FC00
7FFC00
3FF800
003800
003800
007800
007800
007E00
003E00
000800
ENDCHAR
STARTCHAR 024C
ENCODING 588
SWIDTH 488 0
DWIDTH 19 0
BBX 19 24 2 0
BITMAP
03FF00
03FF80
03CFC0
0783C0
0701C0
0701E0
0701C0
0F01C0
0E01C0
0E03C0
0E0780
1E1F00
7FFE00
FFFC00
FFB800
3C3800
383C00
381C00
381C00
381E00
700E00
700E00
700E00
700E00
ENDCHAR
STARTCHAR 024D
ENCODING 589
SWIDTH 488 0
DWIDTH 19 0
BBX 18 18 2 0
BITMAP
01FFC0
07FFC0
07E180
070000
070000
0F0000
0E0000
0E0000
7FF800
7FF800
FFF800
1C0000
1C0000
1C0000
3C0000
380000
380000
380000
ENDCHAR
STARTCHAR 024E
ENCODING 590
SWIDTH 488 0
DWIDTH 19 0
BBX 20 24 4 0
BITMAP
3800F0
3800E0
3801E0
3803C0
1C0380
FFFFF0
FFFFE0
FFFFE0
0E1C00
0E3800
0E7800
067000
07E000
07C000
038000
038000
078000
070000
070000
070000
0F0000
0E0000
0E0000
0E0000
ENDCHAR
STARTCHAR 024F
ENCODING 591
SWIDTH 488 0
DWIDTH 19 0
BBX 22 25 -1 -7
BITMAP
03C03C
03C038
03C038
01C078
01C070
01C070
01C0E0
07FFFC
0FFFF8
00E1C0
00E1C0
00E380
00E380
00F700
007F00
007E00
007C00
003C00
003800
007000
00E000
43C000
7F8000
FF0000
300000
ENDCHAR
STARTCHAR 0292
ENCODING 658
SWIDTH 488 0
DWIDTH 19 0
BBX 18 24 2 -6
BITMAP
07FFC0
0FFF80
0FFF80
000700
000E00
001C00
003800
007000
01E000
03C000
03C000
07F000
00FC00
003C00
001C00
001E00
001E00
001C00
001C00
003C00
007800
F3F800
FFF000
FFC000
ENDCHAR
STARTCHAR 02BC
ENCODING 700
SWIDTH 488 0
DWIDTH 19 0
BBX 5 7 11 20
BITMAP
38
38
38
70
70
E0
C0
ENDCHAR
STARTCHAR 02C6
ENCODING 710
SWIDTH 488 0
DWIDTH 19 0
BBX 9 6 10 21
BITMAP
0C00
3E00
7E00
F700
C380
8100
ENDCHAR
STARTCHAR 02C7
ENCODING 711
SWIDTH 488 0
DWIDTH 19 0
BBX 9 6 10 20
BITMAP
4080
E180
7780
3F00
3C00
1800
ENDCHAR
STARTCHAR 02C9
ENCODING 713
SWIDTH 488 0
DWIDTH 19 0
BBX 10 3 9 22
BITMAP
7FC0
FFC0
FFC0
ENDCHAR
STARTCHAR 02D8
ENCODING 728
SWIDTH 488 0
DWIDTH 19 0
BBX 10 5 10 21
BITMAP
C1C0
E180
F780
7F00
3C00
ENDCHAR
STARTCHAR 02D9
ENCODING 729
SWIDTH 488 0
DWIDTH 19 0
BBX 4 5 12 21
BITMAP
20
F0
F0
F0
60
ENDCHAR
STARTCHAR 02DA
ENCODING 730
SWIDTH 488 0
DWIDTH 19 0
BBX 7 7 11 20
BITMAP
78
FC
C6
86
C6
FC
78
ENDCHAR
STARTCHAR 02DB
ENCODING 731
SWIDTH 488 0
DWIDTH 19 0
BBX 6 7 5 -7
BITMAP
3C
70
E0
E0
F8
F8
10
ENDCHAR
STARTCHAR 02DC
ENCODING 732
SWIDTH 488 0
DWIDTH 19 0
BBX 12 5 8 21
BITMAP
0020
3E30
7FF0
E7E0
4000
ENDCHAR
STARTCHAR 02DD
ENCODING 733
SWIDTH 488 0
DWIDTH 19 0
BBX 12 7 8 20
BITMAP
0820
0C70
1C70
38E0
71C0
E380
4100
ENDCHAR
STARTCHAR 0311
ENCODING 785
SWIDTH 488 0
DWIDTH 19 0
BBX 10 5 9 21
BITMAP
1F00
3F80
7380
E1C0
C180
ENDCHAR
STARTCHAR 0384
ENCODING 900
SWIDTH 488 0
DWIDTH 19 0
BBX 7 7 11 20
BITMAP
0C
1E
1C
38
70
E0
40
ENDCHAR
STARTCHAR 0385
ENCODING 901
SWIDTH 488 0
DWIDTH 19 0
BBX 14 7 7 20
BITMAP
0080
01C0
739C
F3BC
771C
0E00
0400
ENDCHAR
STARTCHAR 0386
ENCODING 902
SWIDTH 488 0
DWIDTH 19 0
BBX 18 25 0 0
BITMAP
010000
01C780
03CF80
039F80
071F80
073B80
063B80
0671C0
00E1C0
00E1C0
01C1C0
01C1C0
0381C0
0381C0
0701C0
0701C0
0FFFC0
0FFFC0
1FFFC0
1C01C0
3801C0
3801C0
7001C0
7001C0
E001C0
ENDCHAR
STARTCHAR 0388
ENCODING 904
SWIDTH 488 0
DWIDTH 19 0
BBX 21 24 0 1
BITMAP
1DFFF8
39FFF8
39FFF0
71C000
73C000
E38000
438000
038000
078000
070000
07FF80
07FF80
07FF80
0E0000
0E0000
0E0000
0E0000
1E0000
1C0000
1C0000
1C0000
3FFF80
3FFF00
3FFF00
ENDCHAR
STARTCHAR 0389
ENCODING 905
SWIDTH 488 0
DWIDTH 19 0
BBX 22 25 0 0
BITMAP
200000
39C01C
39C01C
71C01C
73C03C
E38038
C38038
C38038
078078
070070
070070
07FFF0
0FFFF0
0FFFE0
0E00E0
0E00E0
1E01E0
1C01C0
1C01C0
1C01C0
3C01C0
380380
380380
380380
380380
ENDCHAR
STARTCHAR 038A
ENCODING 906
SWIDTH 488 0
DWIDTH 19 0
BBX 20 24 1 1
BITMAP
3DFFF0
39FFF0
79FFE0
701E00
601C00
E01C00
401C00
003C00
003800
003800
003800
007800
007000
007000
007000
00F000
00E000
00E000
00E000
01E000
01C000
3FFE00
3FFE00
3FFC00
ENDCHAR
STARTCHAR 038C
ENCODING 908
SWIDTH 488 0
DWIDTH 19 0
BBX 20 26 1 -1
BITMAP
000C00
3C7F80
38FFC0
39E1E0
73C0E0
7780F0
E700F0
4E00F0
0E00F0
1E00F0
1C00F0
1C00E0
3C00E0
3800E0
3800E0
3801C0
3801C0
3801C0
380380
380780
380700
3C0F00
1E3E00
1FFC00
07F000
018000
ENDCHAR
STARTCHAR 038E
ENCODING 910
SWIDTH 488 0
DWIDTH 19 0
BBX 24 25 -1 0
BITMAP
200000
3BC007
79C00F
71C00E
71C01E
E1C03C
C1C038
C0E070
00E0F0
00E0E0
00F1C0
007380
007700
007700
003E00
003C00
003800
003800
003800
003800
007800
007000
007000
007000
00F000
ENDCHAR
STARTCHAR 038F
ENCODING 911
SWIDTH 488 0
DWIDTH 19 0
BBX 21 25 0 0
BITMAP
000700
1E3FC0
1C7FE0
38F9F0
39E078
73C078
778078
270038
0F0038
0E0038
0E0078
1E0078
1E0070
1C0070
1C00F0
1C00E0
1C01E0
1C01C0
1C03C0
1E0380
0E0700
0E0E00
FF1FC0
FF1FC0
FF3FC0
ENDCHAR
STARTCHAR 0390
ENCODING 912
SWIDTH 488 0
DWIDTH 19 0
BBX 15 27 5 0
BITMAP
0040
00E0
39CE
79DE
7B9E
0700
0200
0000
0000
7F80
FF80
FF80
0700
0700
0700
0F00
0E00
0E00
0E00
0E00
1E00
1C00
1C00
1E00
0FF0
0FE0
07E0
ENDCHAR
STARTCHAR 0391
ENCODING 913
SWIDTH 488 0
DWIDTH 19 0
BBX 18 24 0 0
BITMAP
000F80
000F80
001F80
001B80
003B80
007380
007380
00E380
00E380
01C1C0
0181C0
0381C0
0701C0
0701C0
0E01C0
0FFFC0
1FFFC0
1FFFC0
3801C0
3801C0
7001C0
7001C0
E001C0
E001C0
ENDCHAR
STARTCHAR 0392
ENCODING 914
SWIDTH 488 0
DWIDTH 19 0
BBX 18 24 2 0
BITMAP
07FF00
07FF80
070FC0
0703C0
0E01C0
0E01C0
0E01C0
0E01C0
1E0380
1C0F00
1FFE00
1FFC00
3FFF00
380F00
380780
380380
780380
700380
700780
700F00
F01E00
FFFE00
FFF800
FFE000
ENDCHAR
STARTCHAR 0393
ENCODING 915
SWIDTH 488 0
DWIDTH 19 0
BBX 21 24 1 0
BITMAP
007FF8
007FF8
007FF8
00F000
00E000
00E000
00E000
01E000
01C000
01C000
01C000
03C000
038000
038000
038000
038000
070000
070000
070000
070000
0F0000
7FF000
FFF000
FFF000
ENDCHAR
STARTCHAR 0394
ENCODING 916
SWIDTH 488 0
DWIDTH 19 0
BBX 18 24 0 0
BITMAP
000F80
000F80
001F80
001B80
003B80
007380
007380
00E380
00E380
01C1C0
0181C0
0381C0
0701C0
0701C0
0E01C0
0E01C0
1C01C0
1C01C0
3801C0
3801C0
7001C0
7FFFC0
FFFFC0
FFFFC0
ENDCHAR
STARTCHAR 0395
ENCODING 917
SWIDTH 488 0
DWIDTH 19 0
BBX 19 24 3 0
BITMAP
07FFE0
07FFE0
07FFC0
070000
0F0000
0E0000
0E0000
0E0000
0E0000
1C0000
1FFE00
1FFE00
1FFE00
3C0000
380000
380000
380000
780000
700000
700000
700000
FFFE00
FFFC00
FFFC00
ENDCHAR
STARTCHAR 0396
ENCODING 918
SWIDTH 488 0
DWIDTH 19 0
BBX 20 24 2 0
BITMAP
07FFF0
07FFF0
07FFF0
0001E0
0003C0
000780
000F00
001E00
001C00
003800
007000
00F000
01E000
03C000
078000
070000
0E0000
1E0000
3C0000
780000
700000
FFFE00
FFFE00
FFFE00
ENDCHAR
STARTCHAR 0397
ENCODING 919
SWIDTH 488 0
DWIDTH 19 0
BBX 20 24 2 0
BITMAP
070070
070070
070070
0F00F0
0E00E0
0E00E0
0E00E0
1E01E0
1C01C0
1C01C0
1FFFC0
3FFFC0
3FFF80
380380
380380
780780
700700
700700
700700
F00700
E00E00
E00E00
E00E00
E00E00
ENDCHAR
STARTCHAR 0398
ENCODING 920
SWIDTH 488 0
DWIDTH 19 0
BBX 18 26 3 -1
BITMAP
001000
00FE00
03FF80
07C780
0F03C0
0E03C0
1C01C0
3C01C0
3801C0
3801C0
7801C0
7001C0
73F3C0
73F380
F00380
E00380
E00700
E00700
E00F00
E00E00
F01E00
703C00
7CF800
3FF000
1FC000
020000
ENDCHAR
STARTCHAR 0399
ENCODING 921
SWIDTH 488 0
DWIDTH 19 0
BBX 18 24 3 0
BITMAP
07FFC0
07FFC0
07FF80
007800
007000
007000
007000
00F000
00E000
00E000
00E000
01E000
01C000
01C000
01C000
03C000
038000
038000
038000
078000
070000
FFF800
FFF800
FFF000
ENDCHAR
STARTCHAR 039A
ENCODING 922
SWIDTH 488 0
DWIDTH 19 0
BBX 20 24 2 0
BITMAP
0780F0
0701E0
0703C0
070380
0F0700
0E0E00
0E3C00
0E7800
1EF000
1DE000
1FC000
1F8000
3FC000
39E000
38E000
38F000
387800
783800
703C00
701C00
701E00
F00E00
E00F00
E00F00
ENDCHAR
STARTCHAR 039B
ENCODING 923
SWIDTH 488 0
DWIDTH 19 0
BBX 18 24 0 0
BITMAP
000F80
000F80
001F80
001B80
003B80
007380
007380
00E380
00E380
01C3C0
0181C0
0381C0
0701C0
0701C0
0E01C0
0E01C0
1C01C0
1C01C0
3801C0
3801C0
7001C0
7001C0
E001C0
E001C0
ENDCHAR
STARTCHAR 039C
ENCODING 924
SWIDTH 488 0
DWIDTH 19 0
BBX 21 24 1 0
BITMAP
01C078
01C078
03C0F0
03C0F0
03E1F0
07E1B0
06E370
06E370
0EE670
0E6E60
0C6CE0
1C7CE0
1C78E0
1C78E0
3870C0
3801C0
3801C0
3001C0
7001C0
7003C0
700380
E00380
E00380
E00380
ENDCHAR
STARTCHAR 039D
ENCODING 925
SWIDTH 488 0
DWIDTH 19 0
BBX 20 24 2 0
BITMAP
078070
078070
078070
0FC070
0FC0E0
0FC0E0
0EC0E0
0CE0E0
1CE0C0
1CE1C0
1C61C0
1871C0
3871C0
383380
383380
303B80
703B80
703F00
701F00
701F00
E01F00
E01E00
E01E00
E01E00
ENDCHAR
STARTCHAR 039E
ENCODING 926
SWIDTH 488 0
DWIDTH 19 0
BBX 21 24 1 0
BITMAP
03FFF8
03FFF8
07FFF8
000000
000000
000000
000000
000000
000000
000000
07FF80
07FF80
0FFF80
000000
000000
000000
000000
000000
000000
000000
000000
7FFF80
FFFF00
FFFF00
ENDCHAR
STARTCHAR 039F
ENCODING 927
SWIDTH 488 0
DWIDTH 19 0
BBX 18 26 3 -1
BITMAP
001000
00FE00
03FF80
07C780
0F03C0
0E03C0
1C01C0
3C01C0
3801C0
3801C0
7801C0
7001C0
7003C0
700380
F00380
E00380
E00700
E00700
E00F00
E00E00
F01E00
703C00
7CF800
3FF000
1FC000
020000
ENDCHAR
STARTCHAR 03A0
ENCODING 928
SWIDTH 488 0
DWIDTH 19 0
BBX 20 24 2 0
BITMAP
07FFF0
07FFF0
07FFF0
0E00F0
0E00E0
0E00E0
0E00E0
1E01E0
1C01C0
1C01C0
1C01C0
3C03C0
380380
380380
380380
780780
700700
700700
700700
F00700
E00E00
E00E00
E00E00
E00E00
ENDCHAR
STARTCHAR 03A1
ENCODING 929
SWIDTH 488 0
DWIDTH 19 0
BBX 19 24 2 0
BITMAP
03FF00
07FF80
078FC0
0701E0
0700E0
0F00E0
0E00E0
0E00E0
0E01E0
0E01C0
1E03C0
1C0780
1FFF00
1FFE00
3FF000
380000
380000
380000
780000
700000
700000
700000
F00000
E00000
ENDCHAR
STARTCHAR 03A3
ENCODING 931
SWIDTH 488 0
DWIDTH 19 0
BBX 21 24 1 0
BITMAP
03FFF8
03FFF8
03FFF8
038000
01C000
01C000
00E000
00E000
007000
007800
003800
003C00
007800
00F000
01E000
03C000
078000
0F0000
1E0000
3C0000
780000
FFFF00
FFFF00
FFFF00
ENDCHAR
STARTCHAR 03A4
ENCODING 932
SWIDTH 488 0
DWIDTH 19 0
BBX 17 24 6 0
BITMAP
FFFF80
FFFF80
FFFF00
038000
038000
038000
038000
078000
070000
070000
070000
0F0000
0E0000
0E0000
0E0000
1E0000
1C0000
1C0000
1C0000
3C0000
380000
380000
380000
780000
ENDCHAR
STARTCHAR 03A5
ENCODING 933
SWIDTH 488 0
DWIDTH 19 0
BBX 18 24 6 0
BITMAP
E003C0
E00380
E00780
E00F00
700E00
701C00
703C00
703800
387000
38E000
39E000
1DC000
1F8000
1F0000
0E0000
0E0000
1E0000
1C0000
1C0000
1C0000
3C0000
380000
380000
380000
ENDCHAR
STARTCHAR 03A6
ENCODING 934
SWIDTH 488 0
DWIDTH 19 0
BBX 18 26 3 0
BITMAP
001C00
001800
003800
007C00
03FF00
07FF80
0F7780
1E7380
3C73C0
3861C0
78E1C0
70E1C0
70E1C0
70C3C0
F1C380
F1C380
F1C780
71C700
738F00
7B9E00
3FFC00
3FF800
0FE000
070000
070000
070000
ENDCHAR
STARTCHAR 03A7
ENCODING 935
SWIDTH 488 0
DWIDTH 19 0
BBX 22 24 1 0
BITMAP
03C01C
03C03C
01C078
01E0F0
01E0E0
00E1C0
00F3C0
007780
007700
007E00
003C00
003C00
007C00
00FC00
01FE00
03CE00
038E00
070F00
0F0700
1E0700
3C0780
780380
700380
F00380
ENDCHAR
STARTCHAR 03A8
ENCODING 936
SWIDTH 488 0
DWIDTH 19 0
BBX 19 24 4 0
BITMAP
3800E0
3801C0
3801C0
3801C0
3001C0
700380
70E380
71C380
61C380
E1C700
E1C700
E38700
E38E00
E38E00
F39C00
7FFC00
7FF000
1FC000
070000
0E0000
0E0000
0E0000
0E0000
1C0000
ENDCHAR
STARTCHAR 03A9
ENCODING 937
SWIDTH 488 0
DWIDTH 19 0
BBX 21 25 0 0
BITMAP
000700
003FC0
007FE0
00F9F0
01E078
03C078
078078
070038
0F0038
0E0038
0E0078
1E0078
1E0070
1C0070
1C00F0
1C00E0
1C01E0
1C01C0
1C03C0
1E0380
0E0700
0E0E00
FF1FC0
FF1FC0
FF3FC0
ENDCHAR
STARTCHAR 03AA
ENCODING 938
SWIDTH 488 0
DWIDTH 19 0
BBX 18 31 3 0
BITMAP
00E180
00E3C0
01E3C0
00E380
000000
000000
000000
07FFC0
07FFC0
07FF80
007800
007000
007000
007000
00F000
00E000
00E000
00E000
01E000
01C000
01C000
01C000
03C000
038000
038000
038000
078000
070000
FFF800
FFF800
FFF000
ENDCHAR
STARTCHAR 03AB
ENCODING 939
SWIDTH 488 0
DWIDTH 19 0
BBX 18 31 6 0
BITMAP
070C00
071E00
0F1E00
071C00
000000
000000
000000
E003C0
E00380
E00780
E00F00
700E00
701C00
703C00
703800
387000
38E000
39E000
1DC000
1F8000
1F0000
0E0000
0E0000
1E0000
1C0000
1C0000
1C0000
3C0000
380000
380000
380000
ENDCHAR
STARTCHAR 03AC
ENCODING 940
SWIDTH 488 0
DWIDTH 19 0
BBX 17 27 3 0
BITMAP
000200
000780
000F00
001E00
001C00
003800
001000
000000
000000
00FF80
03FF80
0FC780
1F0700
3C0700
380F00
780E00
700E00
700E00
F01E00
E01C00
E01C00
E01C00
F01C00
F01C00
78FE00
7FFF00
3FCE00
ENDCHAR
STARTCHAR 03AD
ENCODING 941
SWIDTH 488 0
DWIDTH 19 0
BBX 17 27 3 0
BITMAP
000300
000780
000700
000E00
001C00
003C00
001800
000000
001000
03FF80
07FF00
0F8300
1E0000
1C0000
1C0000
1C0000
0FF000
0FF000
3FF000
7C0000
700000
700000
F00000
700000
7C3C00
7FFC00
1FFC00
ENDCHAR
STARTCHAR 03AE
ENCODING 942
SWIDTH 488 0
DWIDTH 19 0
BBX 17 33 3 -6
BITMAP
000300
000780
000700
000E00
001C00
003C00
001800
000000
000000
0FFC00
1FFE00
1F3F00
1C0F00
1C0700
3C0700
380700
380700
380700
780E00
700E00
700E00
700E00
701E00
E01C00
E01C00
E01C00
E03C00
003800
003800
003800
007800
007000
007000
ENDCHAR
STARTCHAR 03AF
ENCODING 943
SWIDTH 488 0
DWIDTH 19 0
BBX 12 27 5 0
BITMAP
0020
0070
00F0
01E0
01C0
0380
0100
0000
0000
7F80
FF80
FF80
0700
0700
0700
0F00
0E00
0E00
0E00
0E00
1E00
1C00
1C00
1E00
0FF0
0FE0
07E0
ENDCHAR
STARTCHAR 03B0
ENCODING 944
SWIDTH 488 0
DWIDTH 19 0
BBX 18 27 3 0
BITMAP
000800
001C00
0739C0
0F3BC0
0771C0
00E000
004000
000000
000000
1C0380
1C0380
3C0780
380700
380700
380700
380F00
780E00
700E00
700E00
701E00
F01C00
F01C00
F03C00
703800
7DF800
7FF000
3FC000
ENDCHAR
STARTCHAR 03B1
ENCODING 945
SWIDTH 488 0
DWIDTH 19 0
BBX 17 18 3 0
BITMAP
00FF80
03FF80
0FC780
1F0700
3C0700
380F00
780E00
700E00
700E00
F01E00
E01C00
E01C00
E01C00
F01C00
F01C00
78FE00
7FFF00
3FCE00
ENDCHAR
STARTCHAR 03B2
ENCODING 946
SWIDTH 488 0
DWIDTH 19 0
BBX 19 33 1 -6
BITMAP
000F00
003FC0
007FE0
00F1E0
01E0E0
01C0E0
03C0E0
0380E0
0381C0
0781C0
070780
073F00
073E00
073F00
0F0780
0E03C0
0E01C0
0E01C0
1E01C0
1C01C0
1C03C0
1C0380
3C0780
380F00
3FFF00
3FFC00
7FF800
700000
700000
700000
F00000
E00000
E00000
ENDCHAR
STARTCHAR 03B3
ENCODING 947
SWIDTH 488 0
DWIDTH 19 0
BBX 16 24 5 -6
BITMAP
F00F
F00E
700E
701E
701C
703C
7038
7078
7070
70F0
70E0
71C0
73C0
7780
7F00
7E00
7C00
7800
7000
7000
7000
7000
7000
7000
ENDCHAR
STARTCHAR 03B4
ENCODING 948
SWIDTH 488 0
DWIDTH 19 0
BBX 18 27 3 0
BITMAP
003F00
00FFC0
01FFC0
03C080
038000
038000
038000
03C000
01E000
00F000
03F800
07FC00
0F1E00
1E0E00
3C0700
380700
700700
700700
700700
F00700
F00F00
F00E00
701E00
783C00
7CFC00
3FF800
1FE000
ENDCHAR
STARTCHAR 03B5
ENCODING 949
SWIDTH 488 0
DWIDTH 19 0
BBX 17 19 3 0
BITMAP
001000
03FF80
07FF00
0F8300
1E0000
1C0000
1C0000
1C0000
0FF000
0FF000
3FF000
7C0000
700000
700000
F00000
700000
7C3C00
7FFC00
1FFC00
ENDCHAR
STARTCHAR 03B6
ENCODING 950
SWIDTH 488 0
DWIDTH 19 0
BBX 18 33 4 -7
BITMAP
07FFC0
07FFC0
07FFC0
000780
000E00
003C00
007800
00F000
01C000
038000
070000
0E0000
1E0000
3C0000
780000
700000
F00000
E00000
E00000
E00000
E00000
E00000
F00000
FC0000
7F8000
1FE000
07F000
007000
007000
007000
007000
00E000
01C000
ENDCHAR
STARTCHAR 03B7
ENCODING 951
SWIDTH 488 0
DWIDTH 19 0
BBX 16 24 3 -6
BITMAP
0FFC
1FFE
1F3F
1C0F
1C07
3C07
3807
3807
3807
780E
700E
700E
700E
701E
E01C
E01C
E01C
E03C
0038
0038
0038
0078
0070
0070
ENDCHAR
STARTCHAR 03B8
ENCODING 952
SWIDTH 488 0
DWIDTH 19 0
BBX 17 28 4 -1
BITMAP
007C00
01FE00
03FF00
078F00
0F0700
1E0700
1C0780
3C0780
380780
780780
700700
700700
7FFF00
FFFF00
FFFF00
E00F00
E00E00
E00E00
E00E00
E01C00
E01C00
E03800
E07800
F0F000
79E000
7FC000
3F8000
040000
ENDCHAR
STARTCHAR 03B9
ENCODING 953
SWIDTH 488 0
DWIDTH 19 0
BBX 12 18 5 0
BITMAP
7F80
FF80
FF80
0700
0700
0700
0F00
0E00
0E00
0E00
0E00
1E00
1C00
1C00
1E00
0FF0
0FE0
07E0
ENDCHAR
STARTCHAR 03BA
ENCODING 954
SWIDTH 488 0
DWIDTH 19 0
BBX 18 18 3 0
BITMAP
0E03C0
1E0780
1C1E00
1C3C00
1C7800
3CF000
3BC000
3F8000
3F0000
7F8000
73C000
71E000
70F000
707800
E07800
E03C00
E03C00
E01E00
ENDCHAR
STARTCHAR 03BB
ENCODING 955
SWIDTH 488 0
DWIDTH 19 0
BBX 16 27 1 0
BITMAP
03E0
03F0
03F8
0038
001C
001C
001C
001C
000E
001E
003E
007E
007E
00EE
01CE
03C7
0387
0707
0707
0E07
1E07
1C07
3C07
3807
7807
7007
F007
ENDCHAR
STARTCHAR 03BC
ENCODING 956
SWIDTH 488 0
DWIDTH 19 0
BBX 20 24 0 -6
BITMAP
038070
0380F0
0780E0
0700E0
0700E0
0701E0
0F01C0
0E01C0
0E01C0
0E03C0
1E0380
1E0380
1C0380
1E0380
1E0780
3FBFC0
3FFFE0
3BF9C0
380000
700000
700000
700000
700000
F00000
ENDCHAR
STARTCHAR 03BD
ENCODING 957
SWIDTH 488 0
DWIDTH 19 0
BBX 16 18 5 0
BITMAP
E00F
F00E
F00E
F01C
F01C
F038
7038
7070
7070
70E0
71E0
71C0
7B80
3B80
3F00
3E00
3E00
3C00
ENDCHAR
STARTCHAR 03BE
ENCODING 958
SWIDTH 488 0
DWIDTH 19 0
BBX 18 34 4 -7
BITMAP
003F80
00FFC0
03FF80
07C000
070000
0F0000
0E0000
0E0000
0E0000
0E0000
0F0000
07FC00
03FC00
0FFC00
1F0000
3C0000
780000
F00000
E00000
E00000
E00000
E00000
F00000
F80000
7F8000
3FE000
07F000
007000
007000
007000
007000
00E000
01E000
004000
ENDCHAR
STARTCHAR 03BF
ENCODING 959
SWIDTH 488 0
DWIDTH 19 0
BBX 17 18 3 0
BITMAP
03FC00
07FE00
0F9F00
1E0700
3C0780
380780
780780
700780
700700
F00700
E00700
E00F00
E00E00
F01E00
F03C00
7DF800
7FF000
1FC000
ENDCHAR
STARTCHAR 03C0
ENCODING 960
SWIDTH 488 0
DWIDTH 19 0
BBX 18 18 2 0
BITMAP
0FFFC0
0FFFC0
0FFFC0
0E0380
1E0380
1C0380
1C0780
1C0700
3C0700
380700
380F00
380E00
780E00
700E00
700E00
701E00
F01C00
E01C00
ENDCHAR
STARTCHAR 03C1
ENCODING 961
SWIDTH 488 0
DWIDTH 19 0
BBX 19 24 1 -6
BITMAP
00FF00
01FF80
03FFC0
0781C0
0701C0
0F01E0
0E01E0
0E01E0
0E01E0
1E01C0
1C01C0
1C03C0
1C0380
3C0780
380F00
3F3E00
3FFC00
7FF800
700000
700000
700000
F00000
E00000
E00000
ENDCHAR
STARTCHAR 03C2
ENCODING 962
SWIDTH 488 0
DWIDTH 19 0
BBX 17 25 3 -7
BITMAP
000800
01FF80
07FF00
0FC300
1F0000
3C0000
3C0000
780000
700000
700000
700000
F00000
F00000
F00000
700000
7C0000
3FC000
1FF000
03F800
007800
003800
003800
007000
007000
00E000
ENDCHAR
STARTCHAR 03C3
ENCODING 963
SWIDTH 488 0
DWIDTH 19 0
BBX 19 18 3 0
BITMAP
01FFE0
07FFE0
0FFFC0
1E0F00
3C0700
780700
700700
F00700
E00700
E00F00
E00F00
E00E00
E01E00
E01C00
F03C00
F8F800
7FF000
3FC000
ENDCHAR
STARTCHAR 03C4
ENCODING 964
SWIDTH 488 0
DWIDTH 19 0
BBX 16 18 4 0
BITMAP
7FFF
FFFF
FFFF
0F00
0E00
0E00
0E00
1E00
1C00
1C00
1C00
1C00
3C00
3C00
3C00
1E38
1FF8
0FF8
ENDCHAR
STARTCHAR 03C5
ENCODING 965
SWIDTH 488 0
DWIDTH 19 0
BBX 17 18 3 0
BITMAP
1C0380
1C0380
3C0780
380700
380700
380700
380F00
780E00
700E00
700E00
701E00
F01C00
F01C00
F03C00
703800
7DF800
7FF000
3FC000
ENDCHAR
STARTCHAR 03C6
ENCODING 966
SWIDTH 488 0
DWIDTH 19 0
BBX 19 24 2 -6
BITMAP
01FE00
07FF80
0FFF80
1E73C0
3C71C0
7871C0
7071E0
70E1E0
70E1E0
F0E1C0
F0E1C0
F1C3C0
71C380
71C780
79CF00
3FFE00
3FFC00
0FF000
038000
030000
070000
070000
070000
060000
ENDCHAR
STARTCHAR 03C7
ENCODING 967
SWIDTH 488 0
DWIDTH 19 0
BBX 20 18 1 0
BITMAP
0700F0
0781E0
0383C0
03C380
01C700
01EE00
00FC00
00FC00
007800
00F800
01F800
03FC00
079C00
0F1E00
1E0E00
3C0F00
780700
F00700
ENDCHAR
STARTCHAR 03C8
ENCODING 968
SWIDTH 488 0
DWIDTH 19 0
BBX 19 24 2 -6
BITMAP
1C00E0
1C00E0
3C00E0
3800E0
3871E0
38E1C0
78E1C0
70E1C0
70E3C0
70C380
71C380
F1C780
F1C700
718700
738E00
7BBE00
3FFC00
1FF000
070000
070000
070000
070000
0E0000
0E0000
ENDCHAR
STARTCHAR 03C9
ENCODING 969
SWIDTH 488 0
DWIDTH 19 0
BBX 17 18 2 0
BITMAP
070700
0E0700
1E0380
1C0380
380380
780380
700380
70E380
E0C380
E1C380
E1C380
E1C380
E1C380
E3C700
E3C700
FFEF00
7EFE00
7C7C00
ENDCHAR
STARTCHAR 03CA
ENCODING 970
SWIDTH 488 0
DWIDTH 19 0
BBX 14 25 5 0
BITMAP
1E38
1E3C
1E38
0010
0000
0000
0000
7F80
FF80
FF80
0700
0700
0700
0F00
0E00
0E00
0E00
0E00
1E00
1C00
1C00
1E00
0FF0
0FE0
07E0
ENDCHAR
STARTCHAR 03CB
ENCODING 971
SWIDTH 488 0
DWIDTH 19 0
BBX 17 25 3 0
BITMAP
03C700
03CF00
038F00
010200
000000
000000
000000
1C0380
1C0380
3C0780
380700
380700
380700
380F00
780E00
700E00
700E00
701E00
F01C00
F01C00
F03C00
703800
7DF800
7FF000
3FC000
ENDCHAR
STARTCHAR 03CC
ENCODING 972
SWIDTH 488 0
DWIDTH 19 0
BBX 17 27 3 0
BITMAP
000300
000780
000700
000E00
001C00
003C00
001800
000000
000000
03FC00
07FE00
0F9F00
1E0700
3C0780
380780
780780
700780
700700
F00700
E00700
E00F00
E00E00
F01E00
F03C00
7DF800
7FF000
1FC000
ENDCHAR
STARTCHAR 03CD
ENCODING 973
SWIDTH 488 0
DWIDTH 19 0
BBX 17 27 3 0
BITMAP
000400
000F00
001E00
003C00
003800
007000
002000
000000
000000
1C0380
1C0380
3C0780
380700
380700
380700
380F00
780E00
700E00
700E00
701E00
F01C00
F01C00
F03C00
703800
7DF800
7FF000
3FC000
ENDCHAR
STARTCHAR 03CE
ENCODING 974
SWIDTH 488 0
DWIDTH 19 0
BBX 17 27 2 0
BITMAP
000200
000700
000F00
001E00
003C00
003800
001000
000000
000000
070700
0E0700
1E0380
1C0380
380380
780380
700380
70E380
E0C380
E1C380
E1C380
E1C380
E1C380
E3C700
E3C700
FFEF00
7EFE00
7C7C00
ENDCHAR
STARTCHAR 0400
ENCODING 1024
SWIDTH 488 0
DWIDTH 19 0
BBX 19 32 3 0
BITMAP
002000
007000
007800
003C00
001E00
000E00
000400
000000
07FFE0
07FFE0
07FFC0
070000
0F0000
0E0000
0E0000
0E0000
0E0000
1C0000
1FFE00
1FFE00
1FFE00
3C0000
380000
380000
380000
780000
700000
700000
700000
FFFE00
FFFC00
FFFC00
ENDCHAR
STARTCHAR 0401
ENCODING 1025
SWIDTH 488 0
DWIDTH 19 0
BBX 19 31 3 0
BITMAP
006180
00F3C0
00F3C0
00E1C0
000000
000000
000000
07FFE0
07FFE0
07FFC0
070000
0F0000
0E0000
0E0000
0E0000
0E0000
1C0000
1FFE00
1FFE00
1FFE00
3C0000
380000
380000
380000
780000
700000
700000
700000
FFFE00
FFFC00
FFFC00
ENDCHAR
STARTCHAR 0402
ENCODING 1026
SWIDTH 488 0
DWIDTH 19 0
BBX 16 24 4 0
BITMAP
7FFF
7FFE
7FFE
0F00
0E00
0E00
0E00
1E00
1C00
1FF0
1FFC
3FFC
381E
380E
380E
780E
700E
700E
701E
701C
F03C
E5F8
E7F0
E7C0
ENDCHAR
STARTCHAR 0403
ENCODING 1027
SWIDTH 488 0
DWIDTH 19 0
BBX 21 32 1 0
BITMAP
000030
000070
0000F8
0001E0
0003C0
000380
000000
000000
007FF8
007FF8
007FF8
00F000
00E000
00E000
00E000
01E000
01C000
01C000
01C000
03C000
038000
038000
038000
038000
070000
070000
070000
070000
0F0000
7FF000
FFF000
FFF000
ENDCHAR
STARTCHAR 0404
ENCODING 1028
SWIDTH 488 0
DWIDTH 19 0
BBX 19 26 3 -1
BITMAP
000C00
007FC0
01FFE0
03E1E0
078000
0F0000
1E0000
1C0000
3C0000
380000
780000
7FF800
7FF800
7FF800
700000
F00000
F00000
F00000
700000
700000
780000
780000
3E3C00
1FFC00
0FF800
010000
ENDCHAR
STARTCHAR 0405
ENCODING 1029
SWIDTH 488 0
DWIDTH 19 0
BBX 19 26 2 -1
BITMAP
001E00
00FFC0
01FFE0
03E1C0
078000
070000
070000
0F0000
070000
070000
07C000
03E000
01F800
007E00
003E00
000F00
000700
000700
000700
000700
000F00
401E00
787E00
FFFC00
7FF000
030000
ENDCHAR
STARTCHAR 0406
ENCODING 1030
SWIDTH 488 0
DWIDTH 19 0
BBX 18 24 3 0
BITMAP
07FFC0
07FFC0
07FF80
007800
007000
007000
007000
00F000
00E000
00E000
00E000
01E000
01C000
01C000
01C000
03C000
038000
038000
038000
078000
070000
FFF800
FFF800
FFF000
ENDCHAR
STARTCHAR 0407
ENCODING 1031
SWIDTH 488 0
DWIDTH 19 0
BBX 18 31 3 0
BITMAP
0061C0
00F1C0
00F3C0
00E1C0
000000
000000
000000
07FFC0
07FFC0
07FF80
007800
007000
007000
007000
00F000
00E000
00E000
00E000
01E000
01C000
01C000
01C000
03C000
038000
038000
038000
078000
070000
FFF800
FFF800
FFF000
ENDCHAR
STARTCHAR 0408
ENCODING 1032
SWIDTH 488 0
DWIDTH 19 0
BBX 18 25 3 -1
BITMAP
01FFC0
01FFC0
01FFC0
0003C0
000380
000380
000380
000380
000780
000700
000700
000700
000F00
000E00
000E00
000E00
001E00
001C00
001C00
003C00
407800
F1F800
FFF000
7FC000
040000
ENDCHAR
STARTCHAR 0409
ENCODING 1033
SWIDTH 488 0
DWIDTH 19 0
BBX 19 24 1 0
BITMAP
00FF00
00FF00
00FF00
01CE00
01CE00
01CE00
018E00
038C00
039C00
039FC0
031FE0
0719E0
0738E0
0738E0
0E38E0
0E30E0
0E70E0
1C70E0
1C70E0
3861C0
78E1C0
F0E780
E0FF00
C0FE00
ENDCHAR
STARTCHAR 040A
ENCODING 1034
SWIDTH 488 0
DWIDTH 19 0
BBX 19 24 1 0
BITMAP
030700
070700
070700
070E00
060E00
0E0E00
0E0E00
0E1C00
0E1C00
1FFF80
1FFFC0
1FFFE0
1C38E0
3838E0
3838E0
3830E0
3870E0
3070E0
7070E0
7061C0
70E1C0
60E780
E0FF00
E0FE00
ENDCHAR
STARTCHAR 040B
ENCODING 1035
SWIDTH 488 0
DWIDTH 19 0
BBX 15 24 4 0
BITMAP
3FFE
3FFE
7FFC
0F00
0E00
0E00
0E00
1E00
1C00
1FF8
1FFC
3FFE
381E
380E
380E
780E
781E
701C
701C
701C
F03C
E038
E038
E038
ENDCHAR
STARTCHAR 040C
ENCODING 1036
SWIDTH 488 0
DWIDTH 19 0
BBX 20 32 2 0
BITMAP
000080
0001C0
0003C0
000780
000E00
000C00
000800
000000
0780F0
0701E0
0703C0
070380
0F0700
0E0E00
0E3C00
0E7800
1EF000
1DE000
1FC000
1F8000
3FC000
39E000
38E000
38F000
387800
783800
703C00
701C00
701E00
F00E00
E00F00
E00F00
ENDCHAR
STARTCHAR 040D
ENCODING 1037
SWIDTH 488 0
DWIDTH 19 0
BBX 20 32 2 0
BITMAP
001000
003800
003C00
001E00
000F00
000700
000200
000000
070070
0700F0
0701F0
0E03F0
0E03E0
0E07E0
0E0EE0
0C1CE0
1C1CC0
1C39C0
1C71C0
18E1C0
38E1C0
39C380
3B8380
338380
770380
7E0700
7C0700
7C0700
F80700
F00E00
F00E00
E00E00
ENDCHAR
STARTCHAR 040E
ENCODING 1038
SWIDTH 488 0
DWIDTH 19 0
BBX 23 31 1 0
BITMAP
003830
003870
003FE0
001FC0
000200
000000
000000
07000E
07801E
07801C
03803C
038038
038070
03C070
01C0E0
01C1E0
01C1C0
01C3C0
00E380
00E700
00EF00
007E00
007C00
007C00
003800
007000
00F000
01E000
6FC000
7F8000
FE0000
ENDCHAR
STARTCHAR 040F
ENCODING 1039
SWIDTH 488 0
DWIDTH 19 0
BBX 20 30 2 -6
BITMAP
070070
070070
0F0070
0E00F0
0E00E0
0E00E0
0E00E0
1E01E0
1C01C0
1C01C0
1C01C0
3C03C0
380380
380380
380380
780780
700700
700700
700700
F00700
E00F00
FFFE00
FFFE00
FFFE00
070000
070000
070000
070000
0E0000
0E0000
ENDCHAR
STARTCHAR 0410
ENCODING 1040
SWIDTH 488 0
DWIDTH 19 0
BBX 18 24 0 0
BITMAP
000F80
000F80
001F80
001B80
003B80
007380
007380
00E380
00E380
01C1C0
0181C0
0381C0
0701C0
0701C0
0E01C0
0FFFC0
1FFFC0
1FFFC0
3801C0
3801C0
7001C0
7001C0
E001C0
E001C0
ENDCHAR
STARTCHAR 0411
ENCODING 1041
SWIDTH 488 0
DWIDTH 19 0
BBX 19 24 2 0
BITMAP
07FFE0
07FFC0
07FFC0
0F0000
0E0000
0E0000
0E0000
0E0000
1E0000
1FF800
1FFE00
1FFF00
3C0780
380780
380380
380380
780380
700780
700780
700F00
F01E00
FBFC00
FFF800
FFE000
ENDCHAR
STARTCHAR 0412
ENCODING 1042
SWIDTH 488 0
DWIDTH 19 0
BBX 18 24 2 0
BITMAP
07FF00
07FF80
070FC0
0703C0
0E01C0
0E01C0
0E01C0
0E01C0
1E0380
1C0F00
1FFE00
1FFC00
3FFF00
380F00
380780
380380
780380
700380
700780
700F00
F01E00
FFFE00
FFF800
FFE000
ENDCHAR
STARTCHAR 0413
ENCODING 1043
SWIDTH 488 0
DWIDTH 19 0
BBX 21 24 1 0
BITMAP
007FF8
007FF8
007FF8
00F000
00E000
00E000
00E000
01E000
01C000
01C000
01C000
03C000
038000
038000
038000
038000
070000
070000
070000
070000
0F0000
7FF000
FFF000
FFF000
ENDCHAR
STARTCHAR 0414
ENCODING 1044
SWIDTH 488 0
DWIDTH 19 0
BBX 23 30 -1 -6
BITMAP
000FFE
000FFE
001FFC
001C1C
001C1C
001C3C
003C38
003838
003838
003878
007070
007070
007070
00E0F0
00E0E0
01E0E0
01C0E0
03C1E0
0381C0
0781C0
0F01C0
3FFFE0
3FFFE0
3FFFE0
3801E0
7001C0
7001C0
7001C0
7001C0
E00380
ENDCHAR
STARTCHAR 0415
ENCODING 1045
SWIDTH 488 0
DWIDTH 19 0
BBX 19 24 3 0
BITMAP
07FFE0
07FFE0
07FFC0
070000
0F0000
0E0000
0E0000
0E0000
0E0000
1C0000
1FFE00
1FFE00
1FFE00
3C0000
380000
380000
380000
780000
700000
700000
700000
FFFE00
FFFC00
FFFC00
ENDCHAR
STARTCHAR 0416
ENCODING 1046
SWIDTH 488 0
DWIDTH 19 0
BBX 24 24 0 0
BITMAP
038707
03870E
03871C
01C71C
01CE38
01CE70
01CE70
00CEE0
00FDC0
00FF80
007F80
00FF00
01DB00
03BB80
03BB80
073980
0E31C0
0E71C0
1C71C0
3871C0
3861C0
70E1C0
F0E0E0
E0E0E0
ENDCHAR
STARTCHAR 0417
ENCODING 1047
SWIDTH 488 0
DWIDTH 19 0
BBX 19 24 1 1
BITMAP
01FF80
03FFC0
03C3E0
0000E0
0000E0
0000E0
0000E0
0001E0
0003C0
000F80
03FF00
03FE00
03FF00
000780
000380
0003C0
0003C0
0003C0
000380
000780
400F00
783F00
FFFE00
3FF800
ENDCHAR
STARTCHAR 0418
ENCODING 1048
SWIDTH 488 0
DWIDTH 19 0
BBX 20 24 2 0
BITMAP
070070
0700F0
0701F0
0E03F0
0E03E0
0E07E0
0E0EE0
0C1CE0
1C1CC0
1C39C0
1C71C0
18E1C0
38E1C0
39C380
3B8380
338380
770380
7E0700
7C0700
7C0700
F80700
F00E00
F00E00
E00E00
ENDCHAR
STARTCHAR 0419
ENCODING 1049
SWIDTH 488 0
DWIDTH 19 0
BBX 20 31 2 0
BITMAP
007070
0070E0
003FE0
003FC0
000600
000000
000000
070070
0700F0
0701F0
0E03F0
0E03E0
0E07E0
0E0EE0
0C1CE0
1C1CC0
1C39C0
1C71C0
18E1C0
38E1C0
39C380
3B8380
338380
770380
7E0700
7C0700
7C0700
F80700
F00E00
F00E00
E00E00
ENDCHAR
STARTCHAR 041A
ENCODING 1050
SWIDTH 488 0
DWIDTH 19 0
BBX 20 24 2 0
BITMAP
0780F0
0701E0
0703C0
070380
0F0700
0E0E00
0E3C00
0E7800
1EF000
1DE000
1FC000
1F8000
3FC000
39E000
38E000
38F000
387800
783800
703C00
701C00
701E00
F00E00
E00F00
E00F00
ENDCHAR
STARTCHAR 041B
ENCODING 1051
SWIDTH 488 0
DWIDTH 19 0
BBX 21 24 1 0
BITMAP
003FF8
003FF8
007FF8
007078
007070
007070
00F070
00E0F0
00E0E0
00E0E0
01C0E0
01C1E0
01C1C0
0381C0
0381C0
0783C0
070380
0F0380
0E0380
1E0380
3C0780
F80700
F00700
E00700
ENDCHAR
STARTCHAR 041C
ENCODING 1052
SWIDTH 488 0
DWIDTH 19 0
BBX 21 24 1 0
BITMAP
01C078
01C078
03C0F0
03C0F0
03E1F0
07E1B0
06E370
06E370
0EE670
0E6E60
0C6CE0
1C7CE0
1C78E0
1C78E0
3870C0
3801C0
3801C0
3001C0
7001C0
7003C0
700380
E00380
E00380
E00380
ENDCHAR
STARTCHAR 041D
ENCODING 1053
SWIDTH 488 0
DWIDTH 19 0
BBX 20 24 2 0
BITMAP
070070
070070
070070
0F00F0
0E00E0
0E00E0
0E00E0
1E01E0
1C01C0
1C01C0
1FFFC0
3FFFC0
3FFF80
380380
380380
780780
700700
700700
700700
F00700
E00E00
E00E00
E00E00
E00E00
ENDCHAR
STARTCHAR 041E
ENCODING 1054
SWIDTH 488 0
DWIDTH 19 0
BBX 18 26 3 -1
BITMAP
001000
00FE00
03FF80
07C780
0F03C0
0E03C0
1C01C0
3C01C0
3801C0
3801C0
7801C0
7001C0
7003C0
700380
F00380
E00380
E00700
E00700
E00F00
E00E00
F01E00
703C00
7CF800
3FF000
1FC000
020000
ENDCHAR
STARTCHAR 041F
ENCODING 1055
SWIDTH 488 0
DWIDTH 19 0
BBX 20 24 2 0
BITMAP
07FFF0
07FFF0
07FFF0
0E00F0
0E00E0
0E00E0
0E00E0
1E01E0
1C01C0
1C01C0
1C01C0
3C03C0
380380
380380
380380
780780
700700
700700
700700
F00700
E00E00
E00E00
E00E00
E00E00
ENDCHAR
STARTCHAR 0420
ENCODING 1056
SWIDTH 488 0
DWIDTH 19 0
BBX 19 24 2 0
BITMAP
03FF00
07FF80
078FC0
0701E0
0700E0
0F00E0
0E00E0
0E00E0
0E01E0
0E01C0
1E03C0
1C0780
1FFF00
1FFE00
3FF000
380000
380000
380000
780000
700000
700000
700000
F00000
E00000
ENDCHAR
STARTCHAR 0421
ENCODING 1057
SWIDTH 488 0
DWIDTH 19 0
BBX 19 26 3 -1
BITMAP
000600
007FC0
01FFE0
03E1E0
078040
0F0000
1E0000
1C0000
3C0000
380000
380000
700000
700000
700000
700000
700000
F00000
F00000
700000
700000
780000
780000
3F3C00
1FFC00
0FF800
010000
ENDCHAR
STARTCHAR 0422
ENCODING 1058
SWIDTH 488 0
DWIDTH 19 0
BBX 17 24 6 0
BITMAP
FFFF80
FFFF80
FFFF00
038000
038000
038000
038000
078000
070000
070000
070000
0F0000
0E0000
0E0000
0E0000
1E0000
1C0000
1C0000
1C0000
3C0000
380000
380000
380000
780000
ENDCHAR
STARTCHAR 0423
ENCODING 1059
SWIDTH 488 0
DWIDTH 19 0
BBX 23 24 1 0
BITMAP
07000E
07801E
07801C
03803C
038038
038070
03C070
01C0E0
01C1E0
01C1C0
01C3C0
00E380
00E700
00EF00
007E00
007C00
007C00
003800
007000
00F000
01E000
6FC000
7F8000
FE0000
ENDCHAR
STARTCHAR 0424
ENCODING 1060
SWIDTH 488 0
DWIDTH 19 0
BBX 18 26 3 0
BITMAP
001C00
001800
003800
007C00
03FF00
07FF80
0F7780
1E7380
3C73C0
3861C0
78E1C0
70E1C0
70E1C0
70C3C0
F1C380
F1C380
F1C780
71C700
738F00
7B9E00
3FFC00
3FF800
0FE000
070000
070000
070000
ENDCHAR
STARTCHAR 0425
ENCODING 1061
SWIDTH 488 0
DWIDTH 19 0
BBX 22 24 1 0
BITMAP
03C01C
03C03C
01C078
01E0F0
01E0E0
00E1C0
00F3C0
007780
007700
007E00
003C00
003C00
007C00
00FC00
01FE00
03CE00
038E00
070F00
0F0700
1E0700
3C0780
780380
700380
F00380
ENDCHAR
STARTCHAR 0426
ENCODING 1062
SWIDTH 488 0
DWIDTH 19 0
BBX 20 30 2 -6
BITMAP
070070
0700F0
0F00E0
0E00E0
0E00E0
0E01E0
0E01C0
1E01C0
1C01C0
1C03C0
1C0380
3C0380
380380
380780
380700
780700
700700
700F00
700E00
F00E00
E00E00
FFFF00
FFFF00
FFFF00
000F00
000E00
000E00
000E00
000E00
001C00
ENDCHAR
STARTCHAR 0427
ENCODING 1063
SWIDTH 488 0
DWIDTH 19 0
BBX 17 24 5 0
BITMAP
380380
380380
380380
700780
700700
700700
700700
F00F00
E00E00
E00E00
E00E00
F01E00
F83C00
7FFC00
3FFC00
001C00
003800
003800
003800
003800
007000
007000
007000
007000
ENDCHAR
STARTCHAR 0428
ENCODING 1064
SWIDTH 488 0
DWIDTH 19 0
BBX 20 24 2 0
BITMAP
070070
070070
0E0070
0E0070
0E00E0
0E00E0
0C00E0
1C00E0
1C01C0
1C71C0
1C71C0
3861C0
38E380
38E380
38E380
70C380
71C700
71C700
71C700
E1C700
E38600
FFFE00
FFFE00
FFFE00
ENDCHAR
STARTCHAR 0429
ENCODING 1065
SWIDTH 488 0
DWIDTH 19 0
BBX 20 30 2 -6
BITMAP
070070
070070
0E00E0
0E00E0
0E00E0
0E00E0
0C01C0
1C01C0
1C01C0
1C71C0
1C6380
38E380
38E380
38E380
38E700
71C700
71C700
71C700
71CE00
E38E00
E38E00
FFFF00
FFFF00
FFFF00
000F00
000E00
000E00
000E00
000E00
001C00
ENDCHAR
STARTCHAR 042A
ENCODING 1066
SWIDTH 488 0
DWIDTH 19 0
BBX 15 24 4 0
BITMAP
3F80
7F00
7F00
0700
0F00
0E00
0E00
0E00
1E00
1FF8
1FFC
1C3E
3C1E
380E
380E
380E
380E
700E
701E
701C
703C
F3F8
FFF0
FFC0
ENDCHAR
STARTCHAR 042B
ENCODING 1067
SWIDTH 488 0
DWIDTH 19 0
BBX 22 24 1 0
BITMAP
07001C
07001C
070038
0F0038
0E0038
0E0038
0E0070
0E0070
1C0070
1FE070
1FF0E0
1CF0E0
3878E0
3838E0
3839E0
3839C0
7039C0
7039C0
7073C0
707380
E0E380
FFE380
FFC380
FF0700
ENDCHAR
STARTCHAR 042C
ENCODING 1068
SWIDTH 488 0
DWIDTH 19 0
BBX 18 24 2 0
BITMAP
070000
070000
070000
070000
0F0000
0E0000
0E0000
0E0000
1E0000
1FFC00
1FFF00
1C7F80
3C0780
3803C0
3803C0
3803C0
7803C0
700380
700380
700780
F01F00
F9FE00
FFFC00
FFE000
ENDCHAR
STARTCHAR 042D
ENCODING 1069
SWIDTH 488 0
DWIDTH 19 0
BBX 19 26 2 -1
BITMAP
003000
03FE00
07FF80
070780
0003C0
0001C0
0001C0
0001E0
0000E0
0000E0
0000E0
01FFE0
03FFE0
03FFC0
0001C0
0001C0
0003C0
000380
000780
000F00
000E00
403E00
78FC00
FFF000
7FE000
040000
ENDCHAR
STARTCHAR 042E
ENCODING 1070
SWIDTH 488 0
DWIDTH 19 0
BBX 21 25 1 0
BITMAP
000080
0383E0
070FF0
070E70
071C38
073C38
0E3838
0E3838
0E7038
0E7038
1E7070
1FE070
1FE070
1FE070
1CE070
38E0E0
38E0E0
39E0E0
39C1E0
71C1C0
71C3C0
70E380
70E700
E0FF00
E07C00
ENDCHAR
STARTCHAR 042F
ENCODING 1071
SWIDTH 488 0
DWIDTH 19 0
BBX 21 24 1 0
BITMAP
001FF8
007FF8
00FC78
01E078
038070
078070
070070
0700F0
0700E0
0700E0
0780E0
07C0E0
03FFE0
00FFC0
01FFC0
03C1C0
0783C0
070380
0E0380
1E0380
3C0780
380700
780700
F00700
ENDCHAR
STARTCHAR 0430
ENCODING 1072
SWIDTH 488 0
DWIDTH 19 0
BBX 17 18 3 0
BITMAP
01FF80
07FF80
0FC700
1E0700
3C0700
780700
700E00
F00E00
F00E00
E00E00
E01E00
E01C00
E01C00
E01C00
F03C00
F8FC00
7FFC00
3F9C00
ENDCHAR
STARTCHAR 0431
ENCODING 1073
SWIDTH 488 0
DWIDTH 19 0
BBX 18 27 4 0
BITMAP
0000C0
003FC0
00FFC0
03FE00
07C000
0F8000
0E0000
1E0000
3C0000
38E000
3FF800
7FFC00
7C1E00
700E00
F00E00
E00E00
E00E00
E00E00
E00E00
E00E00
E01E00
E01C00
E03C00
E07800
F9F000
7FE000
3FC000
ENDCHAR
STARTCHAR 0432
ENCODING 1074
SWIDTH 488 0
DWIDTH 19 0
BBX 17 18 2 1
BITMAP
01FE00
07FF00
0F8700
0E0780
1E0380
1C0700
1C0F00
3FFE00
3FF800
3FFE00
380F00
780700
700700
700700
700F00
703E00
FFFC00
FFF000
ENDCHAR
STARTCHAR 0433
ENCODING 1075
SWIDTH 488 0
DWIDTH 19 0
BBX 16 19 3 0
BITMAP
0040
0FFC
0FFE
0E1E
000F
0007
000E
001E
00FC
07F8
1FE0
7E00
7800
F000
E000
E000
FC38
7FF8
3FF8
ENDCHAR
STARTCHAR 0434
ENCODING 1076
SWIDTH 488 0
DWIDTH 19 0
BBX 17 27 3 0
BITMAP
0FE000
0FF800
0FFC00
003E00
000E00
000F00
000700
000700
000700
01F780
07FF80
0FFF80
1E0780
3C0700
380700
780700
700700
700700
700F00
F00E00
F00E00
F01E00
F01C00
703C00
78F800
3FF000
1FC000
ENDCHAR
STARTCHAR 0435
ENCODING 1077
SWIDTH 488 0
DWIDTH 19 0
BBX 17 18 3 0
BITMAP
03FE00
07FF00
1F8F00
3E0780
3C0780
780700
700700
F01F00
EFFE00
FFF800
FF8000
E00000
E00000
E00000
F00000
7E3C00
3FFC00
1FF800
ENDCHAR
STARTCHAR 0436
ENCODING 1078
SWIDTH 488 0
DWIDTH 19 0
BBX 22 18 0 0
BITMAP
0E0C3C
1F0C7C
071CF0
031CE0
0319C0
0319C0
033980
033980
03FF80
07FF80
077300
067300
067300
0E6300
0C6380
1CE380
F8E1E0
F0C1E0
ENDCHAR
STARTCHAR 0437
ENCODING 1079
SWIDTH 488 0
DWIDTH 19 0
BBX 16 18 3 1
BITMAP
0FFE
0FFF
0E1F
0007
0007
0007
000F
07FE
07F8
07FC
001E
000E
000E
000E
001E
F8FC
FFF8
FFE0
ENDCHAR
STARTCHAR 0438
ENCODING 1080
SWIDTH 488 0
DWIDTH 19 0
BBX 17 18 3 0
BITMAP
1C0380
1C0780
3C0700
380700
380700
380F00
780E00
700E00
700E00
700E00
F01E00
F01C00
E01C00
F01C00
F03C00
78FC00
7FFC00
3F9C00
ENDCHAR
STARTCHAR 0439
ENCODING 1081
SWIDTH 488 0
DWIDTH 19 0
BBX 17 26 3 0
BITMAP
010200
038700
03CF00
01FE00
00F800
000000
000000
000000
1C0380
1C0780
3C0700
380700
380700
380F00
780E00
700E00
700E00
700E00
F01E00
F01C00
E01C00
F01C00
F03C00
78FC00
7FFC00
3F9C00
ENDCHAR
STARTCHAR 043A
ENCODING 1082
SWIDTH 488 0
DWIDTH 19 0
BBX 18 18 3 0
BITMAP
0E03C0
1E0780
1C1E00
1C3C00
1C7800
3CF000
3BC000
3F8000
3F0000
7F8000
73C000
71E000
70F000
707800
E07800
E03C00
E03C00
E01E00
ENDCHAR
STARTCHAR 043B
ENCODING 1083
SWIDTH 488 0
DWIDTH 19 0
BBX 20 18 0 0
BITMAP
003FF0
007FF0
007FF0
0070E0
0070E0
00E0E0
00E1E0
00E1C0
01C1C0
01C1C0
03C3C0
038380
078380
0F0380
1E0380
7C0780
F80700
E00700
ENDCHAR
STARTCHAR 043C
ENCODING 1084
SWIDTH 488 0
DWIDTH 19 0
BBX 20 18 1 0
BITMAP
070070
0780F0
0F81F0
0F81F0
0F83E0
1D87E0
1D86E0
1D8EE0
398CE0
39DCE0
39F9C0
39F1C0
71F1C0
70E1C0
7001C0
E003C0
E00380
E00380
ENDCHAR
STARTCHAR 043D
ENCODING 1085
SWIDTH 488 0
DWIDTH 19 0
BBX 18 18 2 0
BITMAP
0E01C0
0E01C0
0E03C0
0E0380
1E0380
1C0380
1C0780
1FFF00
3FFF00
3FFF00
380700
380E00
780E00
700E00
700E00
701E00
F01C00
E01C00
ENDCHAR
STARTCHAR 043E
ENCODING 1086
SWIDTH 488 0
DWIDTH 19 0
BBX 17 18 3 0
BITMAP
03FC00
07FE00
0F9F00
1E0700
3C0780
380780
780780
700780
700700
F00700
E00700
E00F00
E00E00
F01E00
F03C00
7DF800
7FF000
1FC000
ENDCHAR
STARTCHAR 043F
ENCODING 1087
SWIDTH 488 0
DWIDTH 19 0
BBX 16 18 3 0
BITMAP
0FFC
1FFE
1F3F
1C0F
1C07
3C07
3807
3807
3807
780E
700E
700E
700E
701E
E01C
E01C
E01C
E03C
ENDCHAR
STARTCHAR 0440
ENCODING 1088
SWIDTH 488 0
DWIDTH 19 0
BBX 19 24 1 -6
BITMAP
03FF00
07FF80
0787C0
0701C0
0F01E0
0E01E0
0E01E0
0E01E0
1E01C0
1C01C0
1C01C0
1C03C0
1C0780
3C0F00
381F00
3DFE00
3FF800
7FE000
700000
700000
700000
F00000
E00000
E00000
ENDCHAR
STARTCHAR 0441
ENCODING 1089
SWIDTH 488 0
DWIDTH 19 0
BBX 17 19 3 0
BITMAP
001800
01FF80
07FF00
0F8300
1E0000
3C0000
780000
700000
F00000
E00000
E00000
E00000
E00000
E00000
E00000
F00000
7E3C00
3FFC00
1FF800
ENDCHAR
STARTCHAR 0442
ENCODING 1090
SWIDTH 488 0
DWIDTH 19 0
BBX 19 18 1 0
BITMAP
0FF7C0
0FFFE0
0E7CE0
0E38E0
1C38E0
1C38E0
1C70E0
1C70C0
3871C0
3871C0
38E1C0
3801C0
300380
700380
700380
700380
600700
E00700
ENDCHAR
STARTCHAR 0443
ENCODING 1091
SWIDTH 488 0
DWIDTH 19 0
BBX 22 25 -1 -7
BITMAP
03C03C
03C038
03C038
01C078
01C070
01C070
01C0E0
01C0E0
01E1E0
00E1C0
00E3C0
00E380
00E780
00F700
007F00
007E00
007C00
003C00
003800
007000
00E000
43C000
7F8000
FF0000
300000
ENDCHAR
STARTCHAR 0444
ENCODING 1092
SWIDTH 488 0
DWIDTH 19 0
BBX 19 33 2 -6
BITMAP
000600
000E00
000E00
000C00
001C00
001C00
001C00
001800
003800
01FE00
07FF80
0FFF80
1E73C0
3C71C0
3871C0
7071E0
70E1E0
70E1E0
F0E1C0
F0E1C0
F1C3C0
71C380
71C780
79CF00
3FFE00
3FFC00
0FF000
038000
030000
070000
070000
070000
060000
ENDCHAR
STARTCHAR 0445
ENCODING 1093
SWIDTH 488 0
DWIDTH 19 0
BBX 20 18 1 0
BITMAP
0700F0
0781E0
0383C0
03C380
01C700
01EE00
00FC00
00FC00
007800
00F800
01F800
03FC00
079C00
0F1E00
1E0E00
3C0F00
780700
F00700
ENDCHAR
STARTCHAR 0446
ENCODING 1094
SWIDTH 488 0
DWIDTH 19 0
BBX 16 23 3 -5
BITMAP
1C07
3C0F
380E
380E
380E
781E
701C
701C
701C
F01C
E038
E038
E038
E038
F078
79FE
7FDE
3F9E
001C
001C
001C
001C
003C
ENDCHAR
STARTCHAR 0447
ENCODING 1095
SWIDTH 488 0
DWIDTH 19 0
BBX 16 18 4 0
BITMAP
3807
7807
700F
700E
700E
F00E
E01E
E01C
F01C
7FFC
7FFC
0738
0038
0038
0038
0078
0070
0070
ENDCHAR
STARTCHAR 0448
ENCODING 1096
SWIDTH 488 0
DWIDTH 19 0
BBX 18 18 2 0
BITMAP
1C00C0
3801C0
3801C0
3801C0
38E1C0
30E380
70E380
71C380
71C380
61C700
E1C700
E18700
E38700
E38700
E38E00
E7DF00
FFFF00
7DF700
ENDCHAR
STARTCHAR 0449
ENCODING 1097
SWIDTH 488 0
DWIDTH 19 0
BBX 18 23 2 -5
BITMAP
1C00C0
3801C0
3801C0
3801C0
38E1C0
30E380
70E380
71C380
71C380
61C700
E1C700
E18700
E38700
E38700
E38F00
E7DFC0
FFFBC0
7DF380
000380
000380
000380
000700
000700
ENDCHAR
STARTCHAR 044A
ENCODING 1098
SWIDTH 488 0
DWIDTH 19 0
BBX 15 18 4 0
BITMAP
7E00
FE00
FE00
0E00
1C00
1C00
1CC0
1FF8
3FFC
381E
380E
380E
700E
700E
701C
707C
FFF8
FFE0
ENDCHAR
STARTCHAR 044B
ENCODING 1099
SWIDTH 488 0
DWIDTH 19 0
BBX 20 18 1 0
BITMAP
0E0070
0E0070
0E0070
1C00F0
1C00E0
1C00E0
1C00E0
3FE1E0
3FF1C0
3871C0
3879C0
3839C0
703B80
707380
707380
71F380
FFE700
FF8700
ENDCHAR
STARTCHAR 044C
ENCODING 1100
SWIDTH 488 0
DWIDTH 19 0
BBX 16 18 3 0
BITMAP
0E00
0E00
1E00
1C00
1C00
1C00
3CC0
3FFC
3FFE
381E
780F
7007
700F
700E
F01E
E07C
FFF8
FFF0
ENDCHAR
STARTCHAR 044D
ENCODING 1101
SWIDTH 488 0
DWIDTH 19 0
BBX 16 19 3 0
BITMAP
0080
1FF8
1FFC
0C7E
000F
0007
0007
0007
07FF
07FF
0FFF
0007
000F
000E
001E
007C
F3F8
FFF0
FFC0
ENDCHAR
STARTCHAR 044E
ENCODING 1102
SWIDTH 488 0
DWIDTH 19 0
BBX 18 18 2 0
BITMAP
0E1F80
1C3FC0
1C39C0
1C71C0
1C71C0
38E1C0
38E1C0
38E1C0
3FC1C0
7FC1C0
71C1C0
71C1C0
71C380
F1C380
E1C700
E1EF00
E0FE00
E0FC00
ENDCHAR
STARTCHAR 044F
ENCODING 1103
SWIDTH 488 0
DWIDTH 19 0
BBX 18 18 2 0
BITMAP
01FFC0
03FFC0
0781C0
0F03C0
1E0380
1E0380
1C0380
1E0780
0F8700
0FFF00
03FF00
070F00
0F0E00
1E0E00
3C0E00
381E00
781C00
F01C00
ENDCHAR
STARTCHAR 0450
ENCODING 1104
SWIDTH 488 0
DWIDTH 19 0
BBX 17 27 3 0
BITMAP
002000
006000
00F000
007800
003C00
001E00
000C00
000000
000000
03FE00
07FF00
1F8F00
3E0780
3C0780
780700
700700
F01F00
EFFE00
FFF800
FF8000
E00000
E00000
E00000
F00000
7E3C00
3FFC00
1FF800
ENDCHAR
STARTCHAR 0451
ENCODING 1105
SWIDTH 488 0
DWIDTH 19 0
BBX 18 25 3 0
BITMAP
00E3C0
01E3C0
01E380
004100
000000
000000
000000
03FE00
07FF00
1F8F00
3E0780
3C0780
780700
700700
F01F00
EFFE00
FFF800
FF8000
E00000
E00000
E00000
F00000
7E3C00
3FFC00
1FF800
ENDCHAR
STARTCHAR 0452
ENCODING 1106
SWIDTH 488 0
DWIDTH 19 0
BBX 16 34 3 -7
BITMAP
01C0
0380
0380
1FFE
1FFC
1FFC
0700
0700
0700
0FFC
0FFE
0F1F
0E0F
1E07
1C07
1C07
1C07
3C07
380F
380E
380E
780E
701E
701C
701C
F01C
E03C
0038
0038
0078
00F0
07F0
07E0
0200
ENDCHAR
STARTCHAR 0453
ENCODING 1107
SWIDTH 488 0
DWIDTH 19 0
BBX 16 27 3 0
BITMAP
0004
000E
001E
003C
0078
00F0
0040
0000
0040
0FFC
0FFE
0E1E
000F
0007
000E
001E
00FC
07F8
1FE0
7E00
7800
F000
E000
E000
FC38
7FF8
3FF8
ENDCHAR
STARTCHAR 0454
ENCODING 1108
SWIDTH 488 0
DWIDTH 19 0
BBX 17 19 3 0
BITMAP
000800
01FF80
07FF00
0FC300
1E0000
3C0000
380000
700000
7FF800
FFF800
FFF000
E00000
E00000
E00000
F00000
780000
7F3C00
3FFC00
0FF800
ENDCHAR
STARTCHAR 0455
ENCODING 1109
SWIDTH 488 0
DWIDTH 19 0
BBX 16 18 3 0
BITMAP
03FF
07FF
0F87
0E00
0E00
0E00
0F00
0F80
07F0
01F8
007C
003C
001C
001C
403C
70F8
FFF8
7FE0
ENDCHAR
STARTCHAR 0456
ENCODING 1110
SWIDTH 488 0
DWIDTH 19 0
BBX 12 26 5 0
BITMAP
01C0
03E0
07E0
03C0
03C0
0000
0000
0000
7F80
FF80
FF80
0700
0700
0700
0F00
0E00
0E00
0E00
0E00
1E00
1C00
1C00
1E00
0FF0
0FE0
07E0
ENDCHAR
STARTCHAR 0457
ENCODING 1111
SWIDTH 488 0
DWIDTH 19 0
BBX 14 25 5 0
BITMAP
1E38
1E3C
1E38
0010
0000
0000
0000
7F80
FF80
FF80
0700
0700
0700
0F00
0E00
0E00
0E00
0E00
1E00
1C00
1C00
1E00
0FF0
0FE0
07E0
ENDCHAR
STARTCHAR 0458
ENCODING 1112
SWIDTH 488 0
DWIDTH 19 0
BBX 18 32 1 -7
BITMAP
0003C0
0003C0
0007C0
0007C0
000380
000000
000000
000000
01FF80
01FF80
03FF80
000380
000700
000700
000700
000700
000F00
000E00
000E00
000E00
001E00
001C00
001C00
001C00
003C00
003800
003800
007800
007000
61F000
FFE000
FF8000
ENDCHAR
STARTCHAR 0459
ENCODING 1113
SWIDTH 488 0
DWIDTH 19 0
BBX 19 18 0 0
BITMAP
01FF00
01FF00
01FE00
01CE00
018E00
038E00
039C80
039FE0
031FE0
071CE0
073860
0E3860
0E38E0
1C38E0
3C30E0
7871C0
F07F80
E07F00
ENDCHAR
STARTCHAR 045A
ENCODING 1114
SWIDTH 488 0
DWIDTH 19 0
BBX 17 18 2 0
BITMAP
0E1C00
1C1C00
1C3800
1C3800
1C3800
383800
387200
3FFF80
3FFF80
3FF380
70E180
70E180
70E380
60E380
E0C380
E1C700
E1FE00
C1FC00
ENDCHAR
STARTCHAR 045B
ENCODING 1115
SWIDTH 488 0
DWIDTH 19 0
BBX 16 27 3 0
BITMAP
01C0
0380
0380
1FFE
1FFC
1FFC
0700
0700
0700
0FFC
0FFE
0F1F
0E0F
1E07
1C07
1C07
1C07
3C07
380F
380E
380E
780E
701E
701C
701C
F01C
E03C
ENDCHAR
STARTCHAR 045C
ENCODING 1116
SWIDTH 488 0
DWIDTH 19 0
BBX 18 27 3 0
BITMAP
000200
000600
000F00
001E00
003C00
007000
002000
000000
000000
0E03C0
1E0780
1C1E00
1C3C00
1C7800
3CF000
3BC000
3F8000
3F0000
7F8000
73C000
71E000
70F000
707800
E07800
E03C00
E03C00
E01E00
ENDCHAR
STARTCHAR 045D
ENCODING 1117
SWIDTH 488 0
DWIDTH 19 0
BBX 17 27 3 0
BITMAP
008000
01C000
01E000
00F000
007000
003800
001000
000000
000000
1C0380
1C0780
3C0700
380700
380700
380F00
780E00
700E00
700E00
700E00
F01E00
F01C00
E01C00
F01C00
F03C00
78FC00
7FFC00
3F9C00
ENDCHAR
STARTCHAR 045E
ENCODING 1118
SWIDTH 488 0
DWIDTH 19 0
BBX 22 33 -1 -7
BITMAP
001020
003870
003CF0
001FE0
000F80
000000
000000
000000
03C03C
03C038
03C038
01C078
01C070
01C070
01C0E0
01C0E0
01E1E0
00E1C0
00E3C0
00E380
00E780
00F700
007F00
007E00
007C00
003C00
003800
007000
00E000
43C000
7F8000
FF0000
300000
ENDCHAR
STARTCHAR 045F
ENCODING 1119
SWIDTH 488 0
DWIDTH 19 0
BBX 17 24 3 -6
BITMAP
1C0380
1C0780
3C0700
380700
380700
380F00
780E00
700E00
700E00
700E00
F01E00
F01C00
E01C00
F01C00
F03C00
78FC00
7FFC00
3F9C00
000000
070000
0F0000
0E0000
0E0000
0E0000
ENDCHAR
STARTCHAR 0462
ENCODING 1122
SWIDTH 488 0
DWIDTH 19 0
BBX 15 26 4 0
BITMAP
0380
0380
0780
3FFC
3FFC
3FFC
0F00
0E00
0E00
0E00
1E00
1FF0
1FFC
1FFC
3C1E
380E
380E
380E
380E
780E
701E
701C
703C
F3F8
FFF0
FFC0
ENDCHAR
STARTCHAR 0463
ENCODING 1123
SWIDTH 488 0
DWIDTH 19 0
BBX 20 18 0 0
BITMAP
07F000
0FF800
0E3C00
0E1C00
0E1C00
1C1C00
1C3900
1C3FC0
1C3FE0
3838F0
383870
387070
387070
707070
7070E0
70E1E0
70FFC0
F0FF80
ENDCHAR
STARTCHAR 0472
ENCODING 1138
SWIDTH 488 0
DWIDTH 19 0
BBX 18 26 3 -1
BITMAP
003000
01FE00
03FF00
078780
0F0380
1E03C0
1C01C0
3C01C0
3801C0
7801C0
7001C0
7F83C0
7FE380
F1FF80
E07F80
E01F80
E00700
E00700
E00E00
E00E00
F01C00
F03C00
78F800
3FF000
1FC000
020000
ENDCHAR
STARTCHAR 0473
ENCODING 1139
SWIDTH 488 0
DWIDTH 19 0
BBX 17 19 3 0
BITMAP
002000
03FC00
07FE00
0F9F00
1E0700
3C0780
380780
780780
7F8780
7FEF00
F0FF00
E07700
E00F00
E00E00
F01E00
F03C00
7CF800
7FF000
1FE000
ENDCHAR
STARTCHAR 0474
ENCODING 1140
SWIDTH 488 0
DWIDTH 19 0
BBX 19 24 5 0
BITMAP
E003E0
E007E0
E00F40
E01E00
E01C00
E03C00
E03800
E03800
E07000
E07000
E0E000
E0E000
E1C000
E1C000
E38000
E38000
E70000
E70000
6E0000
6E0000
7C0000
7C0000
780000
780000
ENDCHAR
STARTCHAR 0475
ENCODING 1141
SWIDTH 488 0
DWIDTH 19 0
BBX 17 19 5 0
BITMAP
000200
E01F80
E03F00
E03800
E07800
E07000
E0E000
E0E000
E1C000
E1C000
E38000
E38000
E70000
E70000
7E0000
7E0000
7C0000
780000
780000
ENDCHAR
STARTCHAR 048A
ENCODING 1162
SWIDTH 488 0
DWIDTH 19 0
BBX 19 37 2 -7
BITMAP
00E0E0
00E1C0
007FC0
007F00
000800
000000
000000
0700E0
0701E0
0703E0
0E03E0
0E07C0
0E0FC0
0E1DC0
0C19C0
1C3980
1C7380
1C6380
18E380
39C300
398700
3B8700
330700
760700
7E0E00
7C0E00
7C0E00
F80E00
F01F00
F01F00
E01F00
000E00
001E00
001C00
003800
007800
006000
ENDCHAR
STARTCHAR 048B
ENCODING 1163
SWIDTH 488 0
DWIDTH 19 0
BBX 16 32 3 -6
BITMAP
0102
0387
03CF
01FE
00F8
0000
0000
0000
1C07
1C07
3C07
380F
380E
380E
780E
701E
701C
701C
F01C
F03C
E038
F038
F078
79FC
7FFE
3F8E
001C
001C
0038
0078
00F0
0040
ENDCHAR
STARTCHAR 048C
ENCODING 1164
SWIDTH 488 0
DWIDTH 19 0
BBX 16 24 3 0
BITMAP
0380
0780
3FF8
3FF8
3FF0
0F00
0E00
0E00
0E00
0FF8
1FFC
1C3E
1C1E
1C0E
3C0F
380F
380E
380E
781E
701C
703C
7BF8
FFF0
FFC0
ENDCHAR
STARTCHAR 048D
ENCODING 1165
SWIDTH 488 0
DWIDTH 19 0
BBX 15 19 3 0
BITMAP
0E00
0E00
7FF0
FFE0
1C00
1C00
3C00
3880
3FF8
3FFE
381E
780E
700E
700E
700E
F01E
E07C
FFF8
FFE0
ENDCHAR
STARTCHAR 048E
ENCODING 1166
SWIDTH 488 0
DWIDTH 19 0
BBX 19 24 2 0
BITMAP
03FF00
07FF80
078FC0
0701E0
0700E0
0F00E0
0E00E0
0E00E0
0E31E0
0E31C0
1E33C0
1C3F80
1FFF00
1FFE00
3FFC00
380C00
380C00
380E00
780400
700000
700000
700000
F00000
E00000
ENDCHAR
STARTCHAR 048F
ENCODING 1167
SWIDTH 488 0
DWIDTH 19 0
BBX 18 25 1 -6
BITMAP
001800
03FF00
07FF80
078FC0
0703C0
0F01C0
0E01C0
0E01C0
0E01C0
1E01C0
1E01C0
1C03C0
1C6380
1C7780
3C7F00
383E00
39FC00
3FF800
7FF800
701C00
701C00
700800
F00000
E00000
E00000
ENDCHAR
STARTCHAR 0490
ENCODING 1168
SWIDTH 488 0
DWIDTH 19 0
BBX 22 29 1 0
BITMAP
00001C
00001C
00001C
00001C
000038
007FF8
007FF8
00FFF8
00E000
00E000
00E000
01E000
01C000
01C000
01C000
03C000
038000
038000
038000
078000
070000
070000
070000
0F0000
0E0000
0E0000
FFF000
FFF000
FFF000
ENDCHAR
STARTCHAR 0491
ENCODING 1169
SWIDTH 488 0
DWIDTH 19 0
BBX 16 23 4 0
BITMAP
0007
0007
0007
000E
000E
0FFE
0FFE
0FFC
1E00
1C00
1C00
1C00
3C00
3800
3800
3800
7800
7000
7000
7000
F000
E000
E000
ENDCHAR
STARTCHAR 0492
ENCODING 1170
SWIDTH 488 0
DWIDTH 19 0
BBX 21 24 1 0
BITMAP
007FF8
007FF8
007FF8
00F000
00E000
00E000
00E000
01E000
01C000
01C000
1FFE00
1FFE00
1FFC00
038000
038000
038000
070000
070000
070000
070000
0F0000
7FF000
FFF000
FFF000
ENDCHAR
STARTCHAR 0493
ENCODING 1171
SWIDTH 488 0
DWIDTH 19 0
BBX 16 19 3 0
BITMAP
0060
0FFC
0FFE
0E0F
0007
0007
100F
1C1E
1FFC
07F8
1FF0
3F3C
780C
7000
F000
F000
7C18
7FFC
1FF8
ENDCHAR
STARTCHAR 0494
ENCODING 1172
SWIDTH 488 0
DWIDTH 19 0
BBX 18 30 2 -6
BITMAP
07FFC0
07FF80
07FF80
070000
0F0000
0E0000
0E0000
0E0000
1E0000
1DF800
1FFC00
1FFE00
3C0F00
380F00
380700
380700
380780
780780
700700
700700
700700
F00F00
E00E00
E01E00
001E00
003C00
007800
01F000
1FE000
1F8000
ENDCHAR
STARTCHAR 0495
ENCODING 1173
SWIDTH 488 0
DWIDTH 19 0
BBX 15 24 3 -6
BITMAP
0FFE
1FFC
1FFC
1C00
1C00
3C00
3800
3FF0
3FF8
7FFC
703C
701C
701E
701E
F01E
E01C
E01C
E01C
003C
0038
0070
01F0
0FE0
0F80
ENDCHAR
STARTCHAR 0496
ENCODING 1174
SWIDTH 488 0
DWIDTH 19 0
BBX 24 30 0 -6
BITMAP
038707
03870E
03871C
01C71C
01CE38
01CE70
01CE70
00CEE0
00FDC0
00FF80
007F80
00FF00
01DF00
03BB80
03BB80
073B80
0E3180
0E7180
1C71C0
3871C0
3861C0
70E1F0
F0E1E0
E0E1E0
0000E0
0001E0
0001C0
0001C0
0001C0
0001C0
ENDCHAR
STARTCHAR 0497
ENCODING 1175
SWIDTH 488 0
DWIDTH 19 0
BBX 22 23 0 -5
BITMAP
0E0C3C
1F0C7C
071CF0
031CE0
0319C0
0319C0
033980
033980
03FF80
07FF80
077300
067300
067300
0E6300
0C6380
1CE3C0
F8E1F0
F0C0F0
000060
0000E0
0000E0
0000E0
0001C0
ENDCHAR
STARTCHAR 0498
ENCODING 1176
SWIDTH 488 0
DWIDTH 19 0
BBX 19 31 1 -6
BITMAP
01FF80
03FFC0
03C3E0
0000E0
0000E0
0000E0
0000E0
0001E0
0003C0
000F80
03FF00
03FE00
03FF00
000780
000380
0003C0
0003C0
0003C0
000380
000780
400F00
783F00
FFFE00
3FF800
018000
038000
03C000
01C000
0BC000
1F8000
040000
ENDCHAR
STARTCHAR 0499
ENCODING 1177
SWIDTH 488 0
DWIDTH 19 0
BBX 16 25 3 -6
BITMAP
0FFE
0FFF
0E1F
0007
0007
0007
000F
07FE
07F8
07FC
001E
000E
000E
000E
001E
F8FC
FFF8
FFE0
0700
0600
0F00
0300
3F00
3F00
1800
ENDCHAR
STARTCHAR 049A
ENCODING 1178
SWIDTH 488 0
DWIDTH 19 0
BBX 20 30 2 -6
BITMAP
0780F0
0701E0
0703C0
070380
0F0700
0E0E00
0E3C00
0E7800
1EF000
1DE000
1FC000
1F8000
3FC000
39C000
39E000
38F000
387000
787800
703800
703C00
701C00
F01F00
E01F00
E00F00
000F00
000E00
000E00
000E00
000E00
001C00
ENDCHAR
STARTCHAR 049B
ENCODING 1179
SWIDTH 488 0
DWIDTH 19 0
BBX 17 23 3 -5
BITMAP
0E0780
1E0F00
1C1E00
1C3C00
1C7000
3DE000
3BC000
3F8000
3F0000
7F8000
73C000
71E000
70E000
70F000
E07000
E07E00
E03E00
E03C00
001C00
001C00
001C00
003C00
003800
ENDCHAR
STARTCHAR 049C
ENCODING 1180
SWIDTH 488 0
DWIDTH 19 0
BBX 22 24 1 0
BITMAP
07803C
070078
070070
0700E0
0F01E0
0E73C0
0E6380
0E6700
1EEF00
1CFE00
1FFC00
1FF800
3FF800
39FC00
399C00
399E00
3B8E00
738E00
700F00
700700
700700
F00700
E00780
E00780
ENDCHAR
STARTCHAR 049D
ENCODING 1181
SWIDTH 488 0
DWIDTH 19 0
BBX 20 18 1 0
BITMAP
0F00F0
0E01E0
0E03C0
0E6380
1EE700
1CCE00
1CDC00
1FF800
3FF000
3FF800
39BC00
399C00
7B9E00
738E00
700F00
700F00
F00700
E00780
ENDCHAR
STARTCHAR 049E
ENCODING 1182
SWIDTH 488 0
DWIDTH 19 0
BBX 21 24 2 0
BITMAP
038078
0380F0
0781E0
3FC3C0
3FC780
070F00
0F1E00
0E3C00
0E7800
0EF000
1FE000
1FC000
1FC000
1DE000
1CF000
3C7800
383800
383C00
381C00
781E00
700E00
700F00
700700
F00780
ENDCHAR
STARTCHAR 049F
ENCODING 1183
SWIDTH 488 0
DWIDTH 19 0
BBX 18 19 3 0
BITMAP
0E0000
0E03C0
7F8780
FF8F00
FF1E00
1C3C00
3CF000
39E000
3FC000
3F0000
7F8000
73C000
71E000
70F000
707000
E07800
E03C00
E03C00
E01E00
ENDCHAR
STARTCHAR 04A0
ENCODING 1184
SWIDTH 488 0
DWIDTH 19 0
BBX 19 24 4 0
BITMAP
3F81E0
7F03C0
7F0780
070F00
0F0E00
0E1C00
0E3C00
0E7800
1EF000
1DE000
1FC000
1F8000
3F8000
39C000
39E000
38E000
38F000
787000
707800
703800
703800
F03C00
E01C00
E01C00
ENDCHAR
STARTCHAR 04A1
ENCODING 1185
SWIDTH 488 0
DWIDTH 19 0
BBX 17 18 4 0
BITMAP
7E0780
FE0F00
0E1E00
1E3C00
1C7800
1CF000
1DC000
3F8000
3F0000
3B8000
3BC000
79E000
70E000
70F000
707000
F07800
E03800
E03C00
ENDCHAR
STARTCHAR 04A2
ENCODING 1186
SWIDTH 488 0
DWIDTH 19 0
BBX 20 30 2 -6
BITMAP
070070
070070
0F00F0
0E00E0
0E00E0
0E00E0
0E01E0
1E01C0
1C01C0
1C01C0
1FFFC0
3FFF80
3FFF80
380380
380380
780780
700700
700700
700700
F00F00
E00E00
E00F80
E00F00
E01F00
000700
000700
000E00
000E00
000E00
000E00
ENDCHAR
STARTCHAR 04A3
ENCODING 1187
SWIDTH 488 0
DWIDTH 19 0
BBX 18 23 2 -5
BITMAP
0E01C0
0E01C0
0E03C0
0E0380
1E0380
1C0380
1C0780
1FFF00
3FFF00
3FFF00
380F00
380E00
780E00
700E00
701E00
701F00
F01F00
E01E00
000E00
000E00
000E00
001E00
001C00
ENDCHAR
STARTCHAR 04A4
ENCODING 1188
SWIDTH 488 0
DWIDTH 19 0
BBX 22 24 2 0
BITMAP
0700FC
0701FC
0701FC
0F01C0
0E01C0
0E03C0
0E0380
1E0380
1C0380
1C0380
1FFF80
3FFF00
3FFF00
380700
380F00
780E00
700E00
700E00
701E00
F01C00
E01C00
E01C00
E03C00
E03800
ENDCHAR
STARTCHAR 04A5
ENCODING 1189
SWIDTH 488 0
DWIDTH 19 0
BBX 20 18 2 0
BITMAP
0E03F0
0E07F0
1E0700
1C0700
1C0700
1C0F00
3C0E00
3FFE00
3FFE00
3FFE00
381C00
781C00
701C00
703C00
703800
F03800
E03800
E07800
ENDCHAR
STARTCHAR 04A6
ENCODING 1190
SWIDTH 488 0
DWIDTH 19 0
BBX 18 30 1 -7
BITMAP
03FE00
03FC00
07FC00
071C00
071C00
061800
0E3800
0E3800
0E3800
0E3F00
1C7F80
1C73C0
1C71C0
1C71C0
38E1C0
38E1C0
38E1C0
38E1C0
70C1C0
71C1C0
71C1C0
71C3C0
E18380
E38380
000700
000F00
000E00
003E00
007C00
007000
ENDCHAR
STARTCHAR 04A7
ENCODING 1191
SWIDTH 488 0
DWIDTH 19 0
BBX 19 24 1 -6
BITMAP
0FF000
0FF800
1C7800
1C3800
1C3800
1C3800
3C3800
383F80
387FC0
387FC0
7871C0
7071C0
70E1E0
70E1C0
70E1C0
E0E1C0
E1C1C0
E1C1C0
000380
000380
000700
000F00
007E00
007C00
ENDCHAR
STARTCHAR 04A8
ENCODING 1192
SWIDTH 488 0
DWIDTH 19 0
BBX 18 31 3 -6
BITMAP
000C00
00FFC0
03FF80
07C180
0F0000
1E0000
3C0000
383E00
787F00
70FF00
71E380
F1C380
E38380
E38380
E38380
E38380
E70700
E70700
E70700
E70E00
E71E00
F73C00
7F7800
7FF000
1FE000
038000
038000
03C000
01F000
00FC00
007C00
ENDCHAR
STARTCHAR 04A9
ENCODING 1193
SWIDTH 488 0
DWIDTH 19 0
BBX 16 23 3 -5
BITMAP
03F8
0FF8
1F00
3C00
3818
707E
70FF
E1C7
E387
E387
E387
E307
E707
E70E
E71C
FF3C
7FF8
1FE0
0380
03C0
01F0
00F8
0030
ENDCHAR
STARTCHAR 04AA
ENCODING 1194
SWIDTH 488 0
DWIDTH 19 0
BBX 19 32 3 -7
BITMAP
000600
007FC0
01FFE0
03E1E0
078040
0F0000
1E0000
1C0000
3C0000
380000
380000
700000
700000
700000
700000
700000
F00000
F00000
700000
700000
780000
780000
3F3C00
1FFC00
0FF800
038000
030000
078000
038000
1F8000
1F0000
0C0000
ENDCHAR
STARTCHAR 04AB
ENCODING 1195
SWIDTH 488 0
DWIDTH 19 0
BBX 17 26 3 -7
BITMAP
001800
01FF80
07FF00
0F8300
1E0000
3C0000
780000
700000
F00000
E00000
E00000
E00000
E00000
E00000
E00000
F00000
7E3C00
3FFC00
1FF800
070000
060000
0F0000
038000
3F0000
3F0000
0C0000
ENDCHAR
STARTCHAR 04AC
ENCODING 1196
SWIDTH 488 0
DWIDTH 19 0
BBX 17 30 6 -6
BITMAP
FFFF80
FFFF80
FFFF00
038000
038000
038000
038000
078000
070000
070000
070000
0F0000
0E0000
0E0000
0E0000
1E0000
1C0000
1C0000
1C0000
3C0000
380000
3E0000
3C0000
7C0000
1C0000
1C0000
380000
380000
380000
380000
ENDCHAR
STARTCHAR 04AD
ENCODING 1197
SWIDTH 488 0
DWIDTH 19 0
BBX 19 23 1 -5
BITMAP
0FF7C0
0FFFE0
0E7CE0
0E38E0
1C38E0
1C38E0
1C70E0
1C70C0
3871C0
3871C0
38E1C0
380180
300380
700380
700380
7003C0
6007C0
E007C0
000380
000380
000380
000380
000700
ENDCHAR
STARTCHAR 04AE
ENCODING 1198
SWIDTH 488 0
DWIDTH 19 0
BBX 18 24 6 0
BITMAP
E003C0
E00380
E00780
E00F00
700E00
701C00
703C00
703800
387000
38E000
39E000
1DC000
1F8000
1F0000
0E0000
0E0000
1E0000
1C0000
1C0000
1C0000
3C0000
380000
380000
380000
ENDCHAR
STARTCHAR 04AF
ENCODING 1199
SWIDTH 488 0
DWIDTH 19 0
BBX 16 24 5 -6
BITMAP
E00F
F00E
F00E
F01C
F01C
7038
7038
7070
7070
70E0
71E0
71C0
7B80
3B80
3F00
3E00
3E00
3C00
3800
3800
3800
7800
7000
7000
ENDCHAR
STARTCHAR 04B0
ENCODING 1200
SWIDTH 488 0
DWIDTH 19 0
BBX 19 24 5 0
BITMAP
7001E0
7001C0
7003C0
700780
380700
380E00
381E00
1C1C00
1C3800
1C7000
1CF000
0FE000
0FC000
078000
FFF800
FFF800
FFF800
0E0000
0E0000
0E0000
1E0000
1C0000
1C0000
1C0000
ENDCHAR
STARTCHAR 04B1
ENCODING 1201
SWIDTH 488 0
DWIDTH 19 0
BBX 18 24 3 -6
BITMAP
3803C0
3C0380
3C0380
3C0700
3C0700
1C0E00
1C0E00
1C1C00
1C1C00
1C3800
1C7800
1C7000
0EE000
0EE000
0FC000
0F8000
FFF800
FFF000
0E0000
0E0000
0E0000
1E0000
1C0000
1C0000
ENDCHAR
STARTCHAR 04B2
ENCODING 1202
SWIDTH 488 0
DWIDTH 19 0
BBX 22 30 1 -6
BITMAP
03C03C
03C078
01C070
01C0E0
01E1E0
00E3C0
00E380
00E700
007E00
007E00
007C00
007800
00F800
00FC00
01DC00
03DC00
079E00
0F0E00
0E0E00
1E0E00
3C0F00
780780
F00780
F00780
000780
000700
000700
000700
000700
000E00
ENDCHAR
STARTCHAR 04B3
ENCODING 1203
SWIDTH 488 0
DWIDTH 19 0
BBX 19 23 1 -5
BITMAP
0701E0
0701C0
078380
038700
03CF00
01DE00
01FC00
00F800
00F000
01F000
01F800
03B800
073C00
0E1C00
1E1C00
3C1F80
780F80
F00F00
000700
000700
000700
000F00
000E00
ENDCHAR
STARTCHAR 04B4
ENCODING 1204
SWIDTH 488 0
DWIDTH 19 0
BBX 19 30 3 -6
BITMAP
1FF0E0
3FF1E0
3FF1C0
0701C0
0701C0
0703C0
0F0380
0E0380
0E0380
0E0780
0E0700
1C0700
1C0700
1C0F00
1C0E00
380E00
380E00
381E00
381C00
781C00
701C00
7FFE00
7FFE00
FFFE00
001E00
001C00
001C00
001C00
001C00
003800
ENDCHAR
STARTCHAR 04B5
ENCODING 1205
SWIDTH 488 0
DWIDTH 19 0
BBX 17 23 3 -5
BITMAP
7FC380
FFC780
FFC700
1C0700
1C0700
1C0F00
3C0E00
380E00
380E00
380E00
781E00
781C00
701C00
701C00
783C00
7CFF00
3FFE00
1F8E00
000E00
000E00
001C00
001C00
001C00
ENDCHAR
STARTCHAR 04B6
ENCODING 1206
SWIDTH 488 0
DWIDTH 19 0
BBX 17 30 5 -6
BITMAP
380380
380780
380700
700700
700700
700F00
700E00
F00E00
E00E00
E01E00
E01C00
F01C00
F87C00
7FFC00
3FF800
003800
003800
007800
007000
007000
007000
007800
00F800
00F800
007800
007000
007000
007000
007000
00E000
ENDCHAR
STARTCHAR 04B7
ENCODING 1207
SWIDTH 488 0
DWIDTH 19 0
BBX 16 23 4 -5
BITMAP
3807
7807
700F
700E
700E
F00E
E01E
E01C
F01C
7FFC
7FFC
0638
0038
0038
0078
007C
007C
0078
0038
0038
0038
0078
0070
ENDCHAR
STARTCHAR 04B8
ENCODING 1208
SWIDTH 488 0
DWIDTH 19 0
BBX 17 24 5 0
BITMAP
380380
380380
380380
700780
700700
700700
700700
F00F00
E38E00
E38E00
E38E00
F31E00
FB3C00
7FFC00
3FFC00
061C00
063800
0E3800
0E3800
0C3800
007000
007000
007000
007000
ENDCHAR
STARTCHAR 04B9
ENCODING 1209
SWIDTH 488 0
DWIDTH 19 0
BBX 16 18 4 0
BITMAP
3807
7807
700F
700E
700E
F00E
E39E
E31C
F31C
7FFC
7FFC
0738
0638
0E38
0E38
0078
0070
0070
ENDCHAR
STARTCHAR 04BA
ENCODING 1210
SWIDTH 488 0
DWIDTH 19 0
BBX 17 24 2 0
BITMAP
078000
070000
070000
070000
0F0000
0E0000
0E0000
0E0000
1FFC00
1FFE00
1FFF00
1C0780
3C0780
380380
380380
380380
380380
780780
700700
700700
700700
F00F00
E00E00
E00E00
ENDCHAR
STARTCHAR 04BB
ENCODING 1211
SWIDTH 488 0
DWIDTH 19 0
BBX 17 27 2 0
BITMAP
018000
038000
038000
078000
070000
070000
070000
0F0000
0E0000
0FFC00
0FFE00
1F1F00
1C0700
1C0700
1C0780
3C0700
380700
380700
380700
380F00
780E00
700E00
700E00
701E00
F01C00
E01C00
E01C00
ENDCHAR
STARTCHAR 04BC
ENCODING 1212
SWIDTH 488 0
DWIDTH 19 0
BBX 19 26 3 -1
BITMAP
000600
001F80
003FC0
0079C0
00E0E0
01E0E0
01C0E0
73C0E0
6380E0
E380E0
F781C0
7FFFC0
3FFFC0
0FFFC0
0F0000
0E0000
0E0000
0E0000
0E0000
0E0000
0E0000
0F0000
078C00
07FC00
03FC00
004000
ENDCHAR
STARTCHAR 04BD
ENCODING 1213
SWIDTH 488 0
DWIDTH 19 0
BBX 18 18 3 0
BITMAP
007F00
00FF80
01E3C0
03C3C0
C781C0
C703C0
CF0380
EE0780
FFFF00
7FFC00
1FE000
1C0000
1C0000
1E0000
0E0000
0FCC00
07FE00
03FC00
ENDCHAR
STARTCHAR 04BE
ENCODING 1214
SWIDTH 488 0
DWIDTH 19 0
BBX 19 31 3 -6
BITMAP
000600
001F80
003FC0
0079C0
00E0E0
01E0E0
01C0E0
73C0E0
6380E0
E380E0
F781C0
7FFFC0
3FFFC0
0FFFC0
0F0000
0E0000
0E0000
0E0000
0E0000
0E0000
0E0000
0F0000
078C00
07FC00
03FC00
00E000
00E000
01C000
01C000
01C000
01C000
ENDCHAR
STARTCHAR 04BF
ENCODING 1215
SWIDTH 488 0
DWIDTH 19 0
BBX 18 23 3 -5
BITMAP
007F00
00FF80
01E3C0
03C3C0
C781C0
C703C0
CF0380
EE0780
FFFF00
7FFC00
1FE000
1C0000
1C0000
1E0000
0E0000
0FCC00
07FE00
03FC00
01E000
01C000
01C000
01C000
01C000
ENDCHAR
STARTCHAR 04C0
ENCODING 1216
SWIDTH 488 0
DWIDTH 19 0
BBX 18 24 3 0
BITMAP
07FFC0
07FFC0
07FF80
007800
007000
007000
007000
00F000
00E000
00E000
00E000
01E000
01C000
01C000
01C000
03C000
038000
038000
038000
078000
070000
FFF800
FFF800
FFF000
ENDCHAR
STARTCHAR 04C1
ENCODING 1217
SWIDTH 488 0
DWIDTH 19 0
BBX 24 31 0 0
BITMAP
001C1C
001C38
001FF0
000FE0
000180
000000
000000
038707
03870E
03871C
01C71C
01CE38
01CE70
01CE70
00CEE0
00FDC0
00FF80
007F80
00FF00
01DB00
03BB80
03BB80
073980
0E31C0
0E71C0
1C71C0
3871C0
3861C0
70E1C0
F0E0E0
E0E0E0
ENDCHAR
STARTCHAR 04C2
ENCODING 1218
SWIDTH 488 0
DWIDTH 19 0
BBX 22 26 0 0
BITMAP
001020
003870
0038F0
001FE0
000F80
000000
000000
000000
0E0C3C
1F0C7C
071CF0
031CE0
0319C0
0319C0
033980
033980
03FF80
07FF80
077300
067300
067300
0E6300
0C6380
1CE380
F8E1E0
F0C1E0
ENDCHAR
STARTCHAR 04C3
ENCODING 1219
SWIDTH 488 0
DWIDTH 19 0
BBX 21 30 2 -6
BITMAP
078078
0700F0
0701E0
0703C0
0F0780
0E0F00
0E1E00
0E3C00
1E7800
1CF000
1DE000
1FF800
3FFC00
383E00
380F00
380700
380700
700700
700700
700700
700700
F00700
E00F00
E00E00
001E00
003C00
007C00
01F800
0FE000
0FC000
ENDCHAR
STARTCHAR 04C4
ENCODING 1220
SWIDTH 488 0
DWIDTH 19 0
BBX 17 24 3 -6
BITMAP
0E0380
1E0F00
1C1E00
1C3C00
1C7800
3CF000
39E000
3F8000
3FF000
7FF800
707C00
703C00
701C00
701C00
F01C00
E01C00
E01C00
E01C00
003C00
003800
007800
01F000
0FE000
0F8000
ENDCHAR
STARTCHAR 04C5
ENCODING 1221
SWIDTH 488 0
DWIDTH 19 0
BBX 21 30 0 -7
BITMAP
001FF8
001FF8
001FF8
003C78
003870
003870
003870
0070F0
0070E0
0070E0
00E0E0
00E1E0
00E1C0
01C1C0
01C1C0
03C3C0
038380
078380
070380
0F0380
1E0700
7C07C0
F807C0
F007C0
000380
000780
000700
000E00
001C00
003800
ENDCHAR
STARTCHAR 04C6
ENCODING 1222
SWIDTH 488 0
DWIDTH 19 0
BBX 19 23 0 -6
BITMAP
003FE0
007FE0
007FE0
0070E0
0071C0
00E1C0
00E1C0
00E1C0
01C380
01C380
03C380
038380
078780
0F0700
1E0700
7C0780
F80F80
E00F80
000780
000700
000E00
001E00
003C00
ENDCHAR
STARTCHAR 04C7
ENCODING 1223
SWIDTH 488 0
DWIDTH 19 0
BBX 20 31 2 -7
BITMAP
070070
070070
070070
0F00F0
0E00E0
0E00E0
0E00E0
1E01E0
1C01C0
1C01C0
1FFFC0
3FFFC0
3FFF80
380380
380380
780780
700700
700700
700700
F00700
E00E00
E00E00
E00E00
E00E00
001E00
001C00
001C00
003C00
01F800
03F000
008000
ENDCHAR
STARTCHAR 04C8
ENCODING 1224
SWIDTH 488 0
DWIDTH 19 0
BBX 18 25 2 -7
BITMAP
0F01C0
0E01C0
0E03C0
0E0380
1E0380
1C0380
1C0380
1FFF80
3FFF00
3FFF00
380700
380F00
780E00
700E00
700E00
701E00
F01C00
E01C00
001C00
003C00
003800
007800
03F000
07E000
010000
ENDCHAR
STARTCHAR 04C9
ENCODING 1225
SWIDTH 488 0
DWIDTH 19 0
BBX 20 30 2 -7
BITMAP
0700F0
0700E0
0700E0
0F00E0
0E01E0
0E01C0
0E01C0
1E01C0
1C03C0
1C0380
1FFF80
3FFF80
3FFF80
380700
380700
780700
700700
700F00
700E00
F00E00
E00E00
E01F00
E01F00
E01F00
000E00
000E00
001C00
003C00
007800
007000
ENDCHAR
STARTCHAR 04CA
ENCODING 1226
SWIDTH 488 0
DWIDTH 19 0
BBX 17 23 2 -6
BITMAP
0E0380
0E0380
0E0380
0E0780
1E0700
1C0700
1C0700
1FFF00
3FFE00
3FFE00
380E00
380E00
781E00
701C00
701C00
701E00
F03E00
E03E00
001E00
001C00
003800
007800
00F000
ENDCHAR
STARTCHAR 04CB
ENCODING 1227
SWIDTH 488 0
DWIDTH 19 0
BBX 17 30 5 -6
BITMAP
380380
380380
380380
700780
700700
700700
700700
F00F00
E00E00
E00E00
E00E00
F01E00
F83C00
7FFC00
3FFC00
003C00
003800
003800
003800
003800
007000
01F000
01F000
01F000
01C000
01C000
038000
038000
038000
038000
ENDCHAR
STARTCHAR 04CC
ENCODING 1228
SWIDTH 488 0
DWIDTH 19 0
BBX 16 23 4 -5
BITMAP
3807
7807
700F
700E
700E
F00E
E01E
E01C
F01C
7FFC
7FFC
0738
0038
0038
0038
00F8
00F0
01F0
01C0
01C0
01C0
0380
0380
ENDCHAR
STARTCHAR 04CD
ENCODING 1229
SWIDTH 488 0
DWIDTH 19 0
BBX 19 30 1 -7
BITMAP
0380E0
0380E0
03C1E0
07C1E0
07C360
07C3E0
0FC6E0
0CC6E0
0CCCC0
1CCCC0
1CD9C0
1CD9C0
18F1C0
38F180
38E380
380380
300380
700380
700380
700700
700700
E007C0
E007C0
E00F80
000380
000700
000F00
001E00
003C00
003800
ENDCHAR
STARTCHAR 04CE
ENCODING 1230
SWIDTH 488 0
DWIDTH 19 0
BBX 18 24 1 -6
BITMAP
0F01C0
0F03C0
0F03C0
1F07C0
1F07C0
1B0FC0
1B0DC0
3B1D80
3B9B80
3BBB80
33F380
73E380
71E780
71C700
F00700
E007C0
E007C0
E00F80
000380
000700
000F00
001E00
001C00
000800
ENDCHAR
STARTCHAR 04CF
ENCODING 1231
SWIDTH 488 0
DWIDTH 19 0
BBX 18 24 3 0
BITMAP
07FFC0
07FFC0
07FF80
007800
007000
007000
007000
00F000
00E000
00E000
00E000
01E000
01C000
01C000
01C000
03C000
038000
038000
038000
078000
070000
FFF800
FFF800
FFF000
ENDCHAR
STARTCHAR 04D0
ENCODING 1232
SWIDTH 488 0
DWIDTH 19 0
BBX 21 31 0 0
BITMAP
001818
001C38
001FF0
000FE0
000300
000000
000000
000F80
000F80
001F80
001B80
003B80
007380
007380
00E380
00E380
01C1C0
0181C0
0381C0
0701C0
0701C0
0E01C0
0FFFC0
1FFFC0
1FFFC0
3801C0
3801C0
7001C0
7001C0
E001C0
E001C0
ENDCHAR
STARTCHAR 04D1
ENCODING 1233
SWIDTH 488 0
DWIDTH 19 0
BBX 18 26 3 0
BITMAP
004080
00E1C0
00E3C0
007F80
003E00
000000
000000
000000
01FF80
07FF80
0FC700
1E0700
3C0700
780700
700E00
F00E00
F00E00
E00E00
E01E00
E01C00
E01C00
E01C00
F03C00
F8FC00
7FFC00
3F9C00
ENDCHAR
STARTCHAR 04D2
ENCODING 1234
SWIDTH 488 0
DWIDTH 19 0
BBX 21 31 0 0
BITMAP
001830
003C78
003C78
001C70
000000
000000
000000
000F80
000F80
001F80
001B80
003B80
007380
007380
00E380
00E380
01C1C0
0181C0
0381C0
0701C0
0701C0
0E01C0
0FFFC0
1FFFC0
1FFFC0
3801C0
3801C0
7001C0
7001C0
E001C0
E001C0
ENDCHAR
ENDFONT
